<svg width="166" height="86" viewBox="0 0 166 86" fill="none" xmlns="http://www.w3.org/2000/svg">
<path d="M23.1982 2.37944C25.202 1.66126 27.924 0.504354 30.2116 0.382059C32.0613 0.228413 34.0651 0 35.7662 0L35.9152 0.786621C32.6757 0.84713 29.2873 0.352054 26.2134 1.66126C23.9563 2.27735 21.931 3.56455 20.4244 5.35232C18.7302 7.1621 17.8251 9.7915 15.4466 10.8752C15.3672 10.7993 14.9628 10.4843 15.0438 10.4351L16.7243 9.67754L17.5713 8.66383C17.4638 8.39036 20.8881 3.63153 23.1982 2.37944Z" fill="#5C4635"/>
<path d="M102.674 28.9729C108.032 28.5164 113.457 28.4779 118.81 29.0059C116.316 29.3745 113.794 29.028 111.288 29.0775C108.419 29.006 105.533 29.3635 102.674 28.9729Z" fill="#C97734"/>
<path d="M133.694 63.3147C135.107 63.3312 136.365 62.5116 137.778 62.6216C141.188 62.9022 144.665 64.8 145.99 68.1005C148.418 72.6277 145.78 78.6126 141.111 80.4773C135.421 83.1287 128.501 78.321 128.192 72.2701C128.093 69.9653 129.136 67.7979 130.344 65.8946C130.631 65.9001 131.211 65.9166 131.498 65.9221C133.021 68.073 135.002 69.9158 136.161 72.3141C136.442 73.6453 138.07 73.1557 139.014 72.9357C139.108 72.4516 139.13 71.9676 139.08 71.489C137.452 69.7782 136.459 67.5834 134.792 65.9056C134.312 65.13 133.065 64.3489 133.694 63.3147Z" fill="#C97734"/>
<path d="M154.218 64.9127L155.217 64.0738C156.651 65.273 158.285 66.2027 159.709 67.4239C157.877 67.5944 155.829 65.3857 154.218 64.9127Z" fill="#B85300"/>
<path d="M46.4005 70.6859C47.5374 71.9346 48.9115 72.9907 49.7945 74.4484C48.6797 75.3506 47.4822 76.1317 46.3122 76.9513C44.7615 76.5718 43.1776 76.9953 41.6159 76.9898C41.4503 75.2076 42.9127 73.5738 44.2538 72.4846C44.8719 71.6705 46.4557 71.9731 46.4005 70.6859Z" fill="#C97734"/>
<path d="M35.7662 0C36.8228 0.00372762 37.7994 0.528215 38.7186 0.643595C42.1291 2.03531 44.9712 4.47218 47.6036 6.98607C49.1543 8.65832 50.9368 10.4901 51.3066 12.7895C51.1134 14.2802 51.1852 15.7819 51.2735 17.2726C51.4004 19.341 50.9534 21.4258 51.3618 23.4776C51.3894 25.0949 51.1576 26.7066 51.2624 28.3183C51.5715 29.039 52.5979 29.27 52.5648 30.1831C51.886 29.7266 51.2017 29.2755 50.5119 28.8409C50.683 23.5326 51.4114 18.1803 50.7437 12.8665C49.6951 9.32392 46.7096 6.87605 43.9779 4.5877C41.6766 2.86044 39.2153 0.731608 36.158 0.803119L35.9152 0.786621L35.7662 0Z" fill="#5B4843"/>
<path d="M26.2134 1.66126C29.2873 0.352054 32.6757 0.84713 35.9152 0.786621L36.158 0.803119C36.4063 3.86159 37.9129 6.59 38.6579 9.52195C39.0056 14.5442 36.1856 18.9944 34.0057 23.3126C32.2122 27.2072 29.2873 31.1898 30.5842 35.7115C31.8038 38.4619 34.4858 40.4807 37.4052 41.1518C40.9205 41.6634 45.1588 41.4654 47.5429 38.4399C49.5406 35.684 50.4677 32.2129 50.5119 28.8409C51.2017 29.2755 51.886 29.7266 52.5648 30.1831C52.5759 30.1941 52.5924 30.2161 52.5979 30.2271C54.6067 33.0711 58.3815 33.6157 61.6319 33.7257C65.1528 33.2526 68.7289 32.851 72.1118 31.7069C75.5112 31.6849 78.8114 30.7882 82.1943 30.5682C82.5144 34.9689 84.2582 39.221 86.7195 42.8681C90.108 47.9124 95.9632 50.9103 101.934 51.5539C104.832 51.7245 107.806 51.3504 110.615 52.2525C113.921 53.1987 117.309 54.2823 120.135 56.2957C112.177 56.5432 104.042 55.5255 96.2888 57.7699C92.3596 58.309 88.5793 59.7392 85.0419 61.4995C81.223 63.6998 77.1282 65.3665 73.21 67.3413C72.1785 67.6592 70.9109 68.203 69.507 68.5185C65.6991 69.7617 61.8858 70.9059 57.8848 71.39C57.4102 71.9896 56.8859 72.5891 56.7314 73.3648C56.0471 75.7906 54.993 78.09 54.2646 80.5048C51.0141 80.6809 47.7416 80.8459 44.4856 80.7249C44.8222 79.3497 45.8928 78.299 46.3122 76.9513C47.4822 76.1317 48.6797 75.3506 49.7945 74.4484C48.9115 72.9907 47.5374 71.9346 46.4005 70.6859C43.5198 68.0345 40.5894 65.4326 37.8908 62.5886C31.7596 55.531 27.411 46.7792 26.5721 37.4167C26.8039 34.0997 26.9364 30.7332 26.7487 27.4162L26.3238 27.3172C22.4442 26.7451 18.6364 25.7714 14.7181 25.4194C13.2281 25.2874 11.8319 24.6383 10.3364 24.5283C6.87068 24.3632 3.2891 22.537 1.65558 19.4015C2.62134 18.0428 3.05731 16.4145 3.50984 14.8413C5.63451 13.7136 8.16755 13.7466 10.3253 12.6464C12.0582 12.1624 13.9069 11.8928 15.4466 10.8752C17.8251 9.7915 18.7302 7.1621 20.4244 5.35232C21.931 3.56455 23.9563 2.27735 26.2134 1.66126ZM24.3647 10.4296C24.0541 10.9141 23.9654 11.9339 24.2764 12.4704C24.4214 13.2517 25.0349 13.5146 25.7443 13.6421C27.1185 13.0975 27.4882 11.8378 27.1185 10.4626C26.0741 9.61881 25.1811 9.83053 24.3647 10.4296Z" fill="#B85300"/>
<path d="M89.7879 29.8311C94.0593 29.259 98.3749 29.1985 102.674 28.9729C105.533 29.3635 108.419 29.006 111.288 29.0775C113.794 29.028 116.316 29.3745 118.81 29.0059C123.242 29.3745 127.916 29.523 131.84 31.8389C134.511 33.9787 136.365 36.9162 138.76 39.3365C136.409 41.0638 133.385 40.5742 130.675 41.1188C120.725 41.5479 110.753 41.3003 100.798 41.1023C97.3098 40.6897 93.7944 40.6017 90.2846 40.6512C89.661 40.6512 89.0429 40.6457 88.4193 40.6237C86.0849 37.6698 85.4337 33.8577 84.3962 30.3371C86.107 29.666 88.0054 30.0951 89.7879 29.8311Z" fill="#B85300"/>
<path d="M131.155 42.384C134.086 42.439 137.06 42.0375 139.731 40.7778C145.189 48.3634 148.197 57.6489 155.217 64.0738L154.218 64.9127C153.224 63.763 151.955 62.9352 150.857 61.89C147.496 58.7435 144.72 55.0415 142.187 51.2184C141.851 50.7068 141.437 50.2282 140.758 50.3272C140.377 52.17 140.498 54.2328 141.652 55.7896C141.536 56.6367 141.536 57.5113 141.255 58.331C139.351 58.1879 137.452 57.4563 135.548 58.0614C133.368 58.1824 131.492 59.3376 129.489 60.0472C125.946 57.1208 122.32 54.1888 118.115 52.258C113.132 49.7331 107.47 48.831 101.923 48.93C97.1718 48.666 92.9501 46.0806 89.6555 42.7966C89.9811 42.461 90.3674 42.2685 90.8089 42.2245C104.258 42.1585 117.718 43.5392 131.155 42.384Z" fill="#B85300"/>
<path d="M36.158 0.803119C39.2153 0.731608 41.6766 2.86044 43.9779 4.5877C46.7096 6.87605 49.6951 9.32392 50.7437 12.8665C51.4114 18.1803 50.683 23.5326 50.5119 28.8409C50.4677 32.2129 49.5406 35.684 47.5429 38.4399C45.1588 41.4654 40.9205 41.6634 37.4052 41.1518C34.4858 40.4807 31.8038 38.4619 30.5842 35.7115C29.2873 31.1898 32.2122 27.2072 34.0057 23.3126C36.1856 18.9944 39.0056 14.5442 38.6579 9.52195C37.9129 6.59 36.4063 3.86159 36.158 0.803119Z" fill="#62372D"/>
<path d="M82.1943 30.5682C82.9172 30.3812 83.6567 30.3426 84.3962 30.3371C85.4337 33.8577 86.0849 37.6698 88.4193 40.6237C89.0429 40.6457 89.661 40.6512 90.2846 40.6512C89.8707 41.1463 89.4733 41.6469 89.0815 42.153C89.225 42.3125 89.512 42.6371 89.6555 42.7966C92.9501 46.0806 97.1718 48.666 101.923 48.93C107.47 48.831 113.132 49.7331 118.115 52.258C122.32 54.1888 125.946 57.1208 129.489 60.0472C131.492 59.3376 133.368 58.1824 135.548 58.0614C137.452 57.4563 139.351 58.1879 141.255 58.331C141.536 57.5113 141.536 56.6367 141.652 55.7896C142.607 57.0768 143.103 58.672 144.119 59.8987C146.718 61.483 148.942 63.7658 150.134 66.5877C152.038 70.8179 151.458 76.0327 148.672 79.7457C146.508 82.9857 142.733 84.988 138.92 85.4611C132.386 86.1872 125.653 81.495 124.368 75.015C124.13 73.5298 123.606 72.0501 122.475 71.0104C119.108 67.3799 118.827 61.8845 120.654 57.4563C120.521 57.1648 120.262 56.5872 120.135 56.2957C117.309 54.2823 113.921 53.1987 110.615 52.2525C107.806 51.3504 104.832 51.7245 101.934 51.5539C95.9632 50.9103 90.108 47.9124 86.7195 42.8681C84.2582 39.221 82.5144 34.9689 82.1943 30.5682ZM124.158 59.7942C123.098 61.8075 122.784 64.6129 124.544 66.3402C125.284 64.921 126.227 63.6283 127.138 62.3191C127.171 60.9494 125.504 59.6732 124.158 59.7942ZM133.694 63.3147C133.065 64.3489 134.312 65.13 134.792 65.9056C136.459 67.5834 137.452 69.7782 139.08 71.489C139.13 71.9676 139.108 72.4516 139.014 72.9357C138.07 73.1557 136.442 73.6453 136.161 72.3141C135.002 69.9158 133.021 68.073 131.498 65.9221C131.211 65.9166 130.631 65.9001 130.344 65.8946C129.136 67.7979 128.093 69.9653 128.192 72.2701C128.501 78.321 135.421 83.1287 141.111 80.4773C145.78 78.6126 148.418 72.6277 145.99 68.1005C144.665 64.8 141.188 62.9022 137.778 62.6216C136.365 62.5116 135.107 63.3312 133.694 63.3147Z" fill="#62372D"/>
<path d="M24.3647 10.4296C25.1811 9.83053 26.0741 9.61881 27.1185 10.4626C27.4882 11.8378 27.1185 13.0975 25.7443 13.6421C25.0349 13.5146 24.4214 13.2517 24.2764 12.4704C23.9654 11.9339 24.0541 10.9141 24.3647 10.4296Z" fill="#29312F"/>
<path d="M5.2758 13.7411C8.56508 12.7018 15.1421 10.6823 15.0438 10.4351C15.0438 10.4351 15.2893 10.7033 15.4466 10.8752C13.9069 11.8928 12.0582 12.1624 10.3253 12.6464C8.16755 13.7466 5.63451 13.7136 3.50984 14.8413C2.4889 15.0998 1.47899 15.4079 0.618084 16.0405C0.27593 17.2617 1.13683 18.3618 1.65558 19.4015C3.2891 22.537 6.87068 24.3632 10.3364 24.5283C11.8319 24.6383 13.2281 25.2874 14.7181 25.4194C18.6364 25.7714 22.4442 26.7451 26.3238 27.3172C26.5721 30.6672 25.9375 34.0832 26.5721 37.4167C27.411 46.7792 31.7596 55.531 37.8908 62.5886L37.4052 62.7977C29.9771 54.4144 25.4298 43.3852 25.8216 32.1304C25.6671 30.6452 26.3735 29.028 25.6947 27.6418C22.7422 27.3227 19.856 26.6846 16.909 26.3215C12.737 25.1499 8.01303 25.6064 4.27141 23.0981C2.10259 21.4533 0.0331117 19.0274 0 16.2C1.02094 14.4562 3.43258 14.1812 5.2758 13.7411Z" fill="#5C4635"/>
<path d="M51.3066 12.7895C52.1344 16.2495 52.0626 20.0066 51.3618 23.4776C50.9534 21.4258 51.4004 19.341 51.2735 17.2726C51.1852 15.7819 51.1134 14.2802 51.3066 12.7895Z" fill="#45403F"/>
<path d="M0.618084 16.0405C1.47899 15.4079 2.4889 15.0998 3.50984 14.8413C3.05731 16.4145 2.62134 18.0428 1.65558 19.4015C1.13683 18.3618 0.27593 17.2617 0.618084 16.0405Z" fill="#423A2E"/>
<path d="M26.3238 27.3172L26.7487 27.4162C26.9364 30.7332 26.8039 34.0997 26.5721 37.4167C25.9375 34.0832 26.5721 30.6672 26.3238 27.3172Z" fill="#AF6526"/>
<path d="M89.7769 29.182C94.3628 28.6649 98.9985 28.8519 103.579 28.2358C107.988 28.0983 112.403 28.1423 116.813 28.1918C121.674 28.8794 126.823 28.6374 131.304 30.9258C133.694 32.2735 135.195 34.6058 137.027 36.5586C137.932 37.4278 138.385 38.792 139.726 39.089C140.029 39.8261 140.101 40.6678 140.636 41.2839C146.122 48.8585 149.014 58.364 156.453 64.4479C158.164 65.6636 159.891 67.0883 162.021 67.4349C161.491 69.4372 159.494 67.6934 158.263 67.4954C157.397 66.9672 154.87 65.6823 154.218 64.9127C155.829 65.3857 157.877 67.5944 159.709 67.4239C158.285 66.2027 156.651 65.273 155.217 64.0738C148.197 57.6489 145.189 48.3634 139.731 40.7778C139.428 40.2827 139.119 39.7931 138.76 39.3365C136.365 36.9162 134.511 33.9787 131.84 31.8389C127.916 29.523 123.242 29.3745 118.81 29.0059C113.457 28.4779 108.032 28.5164 102.674 28.9729C98.3749 29.1985 94.0593 29.259 89.7879 29.8311C88.0054 30.0951 86.107 29.666 84.3962 30.3371C83.6567 30.3426 82.9172 30.3812 82.1943 30.5682C78.8114 30.7882 75.5112 31.6849 72.1118 31.7069C68.7289 32.851 65.1528 33.2526 61.6319 33.7257C58.3815 33.6157 54.6067 33.0711 52.5979 30.2271C54.7668 31.2833 56.8528 33.1426 59.4631 33.1206C61.7478 33.1426 64.1208 33.3571 66.2896 32.4825C74.0488 30.8653 81.8907 29.9466 89.7769 29.182Z" fill="#644A35"/>
<path d="M138.76 39.3365C139.119 39.7931 139.428 40.2827 139.731 40.7778C137.06 42.0375 134.086 42.439 131.155 42.384C117.718 43.5392 104.258 42.1585 90.8089 42.2245C90.3674 42.2685 89.9811 42.461 89.6555 42.7966C89.512 42.6371 89.225 42.3125 89.0815 42.153C89.4733 41.6469 89.8707 41.1463 90.2846 40.6512C93.7944 40.6017 97.3098 40.6897 100.798 41.1023C110.753 41.3003 120.725 41.5479 130.675 41.1188C133.385 40.5742 136.409 41.0638 138.76 39.3365Z" fill="#763D22"/>
<path d="M140.758 50.3272C141.437 50.2282 141.851 50.7068 142.187 51.2184C144.72 55.0415 147.496 58.7435 150.857 61.89C151.955 62.9352 153.224 63.763 154.218 64.9127C150.603 63.1854 148.103 59.7337 145.52 56.7412C144.003 54.7829 142.612 52.7311 141.139 50.7453C141.105 52.324 141.122 54.0568 142.154 55.3605C143.125 56.6147 143.589 58.1604 144.477 59.4586C149.681 62.3521 152.788 68.689 151.552 74.5254C150.719 78.7556 147.86 82.5181 144.003 84.504C139.643 86.6713 134.047 86.5283 129.969 83.7833C127.265 82.2211 125.377 79.5532 124.169 76.7313C123.7 75.2901 123.678 73.6233 122.894 72.3251C119.368 68.9916 117.949 63.6008 119.583 59.0186C119.704 58.4355 120.278 57.7259 119.831 57.1648C116.504 56.3286 113.038 56.5707 109.633 56.5487C106.278 56.4882 103.016 57.4178 99.6717 57.5223C94.6884 58.518 89.6058 59.5851 85.1357 62.121C81.5486 64.0023 77.9118 65.8176 74.1867 67.4239L73.21 67.3413C77.1282 65.3665 81.223 63.6998 85.0419 61.4995C88.5793 59.7392 92.3596 58.309 96.2888 57.7699C104.042 55.5255 112.177 56.5432 120.135 56.2957C120.262 56.5872 120.521 57.1648 120.654 57.4563C118.827 61.8845 119.108 67.3799 122.475 71.0104C123.606 72.0501 124.13 73.5298 124.368 75.015C125.653 81.495 132.386 86.1872 138.92 85.4611C142.733 84.988 146.508 82.9857 148.672 79.7457C151.458 76.0327 152.038 70.8179 150.134 66.5877C148.942 63.7658 146.718 61.483 144.119 59.8987C143.103 58.672 142.607 57.0768 141.652 55.7896C140.498 54.2328 140.377 52.17 140.758 50.3272Z" fill="#57453A"/>
<path d="M124.158 59.7942C125.504 59.6732 127.171 60.9494 127.138 62.3191C126.227 63.6283 125.284 64.921 124.544 66.3402C122.784 64.6129 123.098 61.8075 124.158 59.7942Z" fill="#C77633"/>
<path d="M37.8908 62.5886C40.5894 65.4326 43.5198 68.0345 46.4005 70.6859C46.4557 71.9731 44.8719 71.6705 44.2538 72.4846C42.9127 73.5738 41.4503 75.2076 41.6159 76.9898C43.1776 76.9953 44.7615 76.5718 46.3122 76.9513C45.8928 78.299 44.8222 79.3497 44.4856 80.7249L44.5408 81.1154C47.8409 81.3465 51.1465 81.1044 54.4522 81.0439C53.8507 81.5445 52.9732 81.2365 52.2613 81.352C49.6013 81.2695 46.9138 81.693 44.2759 81.3905C43.7958 79.8833 45.0926 78.7446 45.352 77.3694C43.9723 77.2704 42.5817 77.4794 41.202 77.2979C40.7495 75.6146 42.085 73.9424 43.1666 72.7267C43.7902 71.7915 45.2527 71.8025 45.6445 70.7189C43.0011 68.2765 39.9106 65.3941 37.4052 62.7977L37.8908 62.5886Z" fill="#554335"/>
<path d="M69.507 68.5185C70.9109 68.203 72.1785 67.6592 73.21 67.3413L74.1867 67.4239C69.4131 69.1621 63.144 71.2964 58.089 71.929C56.5162 74.817 56.025 78.1615 54.4522 81.0439C51.1465 81.1044 47.8409 81.3465 44.5408 81.1154L44.4856 80.7249C47.7416 80.8459 51.0141 80.6809 54.2646 80.5048C54.993 78.09 56.0471 75.7906 56.7314 73.3648C56.8859 72.5891 57.4102 71.9896 57.8848 71.39C61.8858 70.9059 65.6991 69.7617 69.507 68.5185Z" fill="#735238"/>
<path d="M158.263 67.4954C159.494 67.6934 161.491 69.4372 162.021 67.4349C163.268 68.0895 164.653 68.2435 166 68.579C163.472 69.6132 160.503 68.8651 158.263 67.4954Z" fill="#473E38"/>
</svg>
