<svg width="538" height="90" viewBox="0 0 538 90" fill="none" xmlns="http://www.w3.org/2000/svg">
<g filter="url(#filter0_d_38_33996)">
<mask id="path-1-outside-1_38_33996" maskUnits="userSpaceOnUse" x="197.3" y="28.4" width="338" height="29" fill="black">
<rect fill="white" x="197.3" y="28.4" width="338" height="29"/>
<path d="M199.3 30.7341H202.832L211.136 51.0182H211.423L219.727 30.7341H223.259V55.1704H220.491V36.6045H220.252L212.616 55.1704H209.943L202.307 36.6045H202.068V55.1704H199.3V30.7341Z"/>
<path d="M232.552 55.1704V30.7341H247.3V33.3591H235.511V41.6159H246.536V44.2409H235.511V52.5454H247.491V55.1704H232.552Z"/>
<path d="M272.03 30.7341H274.989V46.9136C274.989 48.5841 274.595 50.0756 273.808 51.3881C273.028 52.6926 271.926 53.7227 270.503 54.4784C269.079 55.2261 267.408 55.6 265.491 55.6C263.574 55.6 261.904 55.2261 260.48 54.4784C259.056 53.7227 257.95 52.6926 257.163 51.3881C256.383 50.0756 255.993 48.5841 255.993 46.9136V30.7341H258.953V46.675C258.953 47.8682 259.215 48.9301 259.74 49.8608C260.265 50.7835 261.013 51.5114 261.983 52.0443C262.962 52.5693 264.131 52.8318 265.491 52.8318C266.851 52.8318 268.021 52.5693 268.999 52.0443C269.978 51.5114 270.725 50.7835 271.242 49.8608C271.767 48.9301 272.03 47.8682 272.03 46.675V30.7341Z"/>
<path d="M284.258 55.1704V30.7341H292.515C294.432 30.7341 295.999 31.0801 297.216 31.7721C298.441 32.4562 299.348 33.3829 299.937 34.5523C300.525 35.7216 300.82 37.0261 300.82 38.4659C300.82 39.9057 300.525 41.2142 299.937 42.3915C299.356 43.5687 298.457 44.5074 297.24 45.2074C296.023 45.8994 294.464 46.2454 292.563 46.2454H286.645V43.6204H292.467C293.78 43.6204 294.834 43.3937 295.629 42.9403C296.425 42.4869 297.001 41.8744 297.359 41.1028C297.725 40.3233 297.908 39.4443 297.908 38.4659C297.908 37.4875 297.725 36.6125 297.359 35.8409C297.001 35.0693 296.421 34.4648 295.617 34.0273C294.814 33.5818 293.748 33.3591 292.42 33.3591H287.217V55.1704H284.258Z"/>
<path d="M308.946 55.1704V30.7341H323.694V33.3591H311.905V41.6159H322.93V44.2409H311.905V52.5454H323.885V55.1704H308.946Z"/>
<path d="M331.051 33.3591V30.7341H349.378V33.3591H341.694V55.1704H338.735V33.3591H331.051Z"/>
<path d="M357.305 55.1704V30.7341H372.053V33.3591H360.264V41.6159H371.289V44.2409H360.264V52.5454H372.244V55.1704H357.305Z"/>
<path d="M394.11 36.8432C393.967 35.6341 393.386 34.6954 392.368 34.0273C391.35 33.3591 390.101 33.025 388.622 33.025C387.54 33.025 386.593 33.2 385.782 33.55C384.978 33.9 384.35 34.3812 383.897 34.9937C383.451 35.6062 383.228 36.3023 383.228 37.0818C383.228 37.7341 383.384 38.2949 383.694 38.7642C384.012 39.2256 384.418 39.6114 384.911 39.9216C385.404 40.2239 385.921 40.4744 386.462 40.6733C387.003 40.8642 387.5 41.0193 387.953 41.1386L390.435 41.8068C391.072 41.9739 391.78 42.2045 392.559 42.4989C393.347 42.7932 394.098 43.1949 394.814 43.704C395.538 44.2051 396.135 44.8494 396.604 45.6369C397.073 46.4244 397.308 47.3909 397.308 48.5364C397.308 49.8568 396.962 51.05 396.27 52.1159C395.586 53.1818 394.584 54.029 393.263 54.6574C391.951 55.2858 390.356 55.6 388.478 55.6C386.728 55.6 385.213 55.3176 383.932 54.7528C382.66 54.1881 381.657 53.4006 380.926 52.3903C380.202 51.3801 379.792 50.2068 379.697 48.8704H382.751C382.831 49.7932 383.141 50.5568 383.682 51.1614C384.231 51.7579 384.923 52.2034 385.758 52.4977C386.601 52.7841 387.508 52.9273 388.478 52.9273C389.608 52.9273 390.622 52.7443 391.521 52.3784C392.42 52.0045 393.132 51.4875 393.657 50.8273C394.182 50.1591 394.444 49.3795 394.444 48.4886C394.444 47.6773 394.218 47.017 393.764 46.5079C393.311 45.9988 392.714 45.5852 391.974 45.267C391.235 44.9489 390.435 44.6704 389.576 44.4318L386.569 43.5727C384.66 43.0238 383.149 42.2403 382.035 41.2221C380.922 40.204 380.365 38.8716 380.365 37.225C380.365 35.8568 380.735 34.6636 381.474 33.6454C382.222 32.6193 383.224 31.8238 384.481 31.2591C385.746 30.6863 387.158 30.4 388.717 30.4C390.292 30.4 391.692 30.6824 392.917 31.2471C394.142 31.804 395.113 32.5676 395.828 33.5381C396.552 34.5085 396.934 35.6102 396.974 36.8432H394.11Z"/>
<path d="M405.533 55.1704V30.7341H413.79C415.707 30.7341 417.274 31.0801 418.491 31.7721C419.716 32.4562 420.623 33.3829 421.212 34.5523C421.8 35.7216 422.095 37.0261 422.095 38.4659C422.095 39.9057 421.8 41.2142 421.212 42.3915C420.631 43.5687 419.732 44.5074 418.515 45.2074C417.298 45.8994 415.739 46.2454 413.838 46.2454H407.92V43.6204H413.742C415.055 43.6204 416.109 43.3937 416.904 42.9403C417.7 42.4869 418.276 41.8744 418.634 41.1028C419 40.3233 419.183 39.4443 419.183 38.4659C419.183 37.4875 419 36.6125 418.634 35.8409C418.276 35.0693 417.696 34.4648 416.892 34.0273C416.089 33.5818 415.023 33.3591 413.695 33.3591H408.492V55.1704H405.533Z"/>
<path d="M430.221 55.1704V30.7341H444.969V33.3591H433.18V41.6159H444.205V44.2409H433.18V52.5454H445.16V55.1704H430.221Z"/>
<path d="M473.326 38.3704H470.367C470.192 37.5193 469.886 36.7716 469.448 36.1273C469.019 35.4829 468.494 34.942 467.873 34.5045C467.261 34.0591 466.581 33.725 465.833 33.5023C465.085 33.2795 464.306 33.1682 463.494 33.1682C462.015 33.1682 460.674 33.542 459.473 34.2898C458.28 35.0375 457.33 36.1392 456.622 37.5949C455.922 39.0506 455.572 40.8364 455.572 42.9523C455.572 45.0682 455.922 46.854 456.622 48.3096C457.33 49.7653 458.28 50.867 459.473 51.6148C460.674 52.3625 462.015 52.7364 463.494 52.7364C464.306 52.7364 465.085 52.625 465.833 52.4023C466.581 52.1795 467.261 51.8494 467.873 51.4119C468.494 50.9665 469.019 50.4216 469.448 49.7773C469.886 49.125 470.192 48.3773 470.367 47.5341H473.326C473.103 48.7829 472.698 49.9006 472.109 50.8869C471.52 51.8733 470.789 52.7125 469.914 53.4045C469.039 54.0886 468.056 54.6096 466.966 54.9676C465.885 55.3256 464.727 55.5045 463.494 55.5045C461.41 55.5045 459.557 54.9954 457.934 53.9773C456.311 52.9591 455.035 51.5114 454.104 49.6341C453.173 47.7568 452.708 45.5295 452.708 42.9523C452.708 40.375 453.173 38.1477 454.104 36.2704C455.035 34.3932 456.311 32.9454 457.934 31.9273C459.557 30.9091 461.41 30.4 463.494 30.4C464.727 30.4 465.885 30.579 466.966 30.9369C468.056 31.2949 469.039 31.8199 469.914 32.5119C470.789 33.196 471.52 34.0312 472.109 35.0176C472.698 35.996 473.103 37.1136 473.326 38.3704Z"/>
<path d="M484.427 30.7341V55.1704H481.468V30.7341H484.427Z"/>
<path d="M494.722 55.1704H491.62L500.593 30.7341H503.647L512.62 55.1704H509.518L502.215 34.6H502.025L494.722 55.1704ZM495.868 45.625H508.372V48.25H495.868V45.625Z"/>
<path d="M519.786 55.1704V30.7341H522.745V52.5454H534.104V55.1704H519.786Z"/>
</mask>
<path d="M199.3 30.7341H202.832L211.136 51.0182H211.423L219.727 30.7341H223.259V55.1704H220.491V36.6045H220.252L212.616 55.1704H209.943L202.307 36.6045H202.068V55.1704H199.3V30.7341Z" fill="#4D4D4D"/>
<path d="M232.552 55.1704V30.7341H247.3V33.3591H235.511V41.6159H246.536V44.2409H235.511V52.5454H247.491V55.1704H232.552Z" fill="#4D4D4D"/>
<path d="M272.03 30.7341H274.989V46.9136C274.989 48.5841 274.595 50.0756 273.808 51.3881C273.028 52.6926 271.926 53.7227 270.503 54.4784C269.079 55.2261 267.408 55.6 265.491 55.6C263.574 55.6 261.904 55.2261 260.48 54.4784C259.056 53.7227 257.95 52.6926 257.163 51.3881C256.383 50.0756 255.993 48.5841 255.993 46.9136V30.7341H258.953V46.675C258.953 47.8682 259.215 48.9301 259.74 49.8608C260.265 50.7835 261.013 51.5114 261.983 52.0443C262.962 52.5693 264.131 52.8318 265.491 52.8318C266.851 52.8318 268.021 52.5693 268.999 52.0443C269.978 51.5114 270.725 50.7835 271.242 49.8608C271.767 48.9301 272.03 47.8682 272.03 46.675V30.7341Z" fill="#4D4D4D"/>
<path d="M284.258 55.1704V30.7341H292.515C294.432 30.7341 295.999 31.0801 297.216 31.7721C298.441 32.4562 299.348 33.3829 299.937 34.5523C300.525 35.7216 300.82 37.0261 300.82 38.4659C300.82 39.9057 300.525 41.2142 299.937 42.3915C299.356 43.5687 298.457 44.5074 297.24 45.2074C296.023 45.8994 294.464 46.2454 292.563 46.2454H286.645V43.6204H292.467C293.78 43.6204 294.834 43.3937 295.629 42.9403C296.425 42.4869 297.001 41.8744 297.359 41.1028C297.725 40.3233 297.908 39.4443 297.908 38.4659C297.908 37.4875 297.725 36.6125 297.359 35.8409C297.001 35.0693 296.421 34.4648 295.617 34.0273C294.814 33.5818 293.748 33.3591 292.42 33.3591H287.217V55.1704H284.258Z" fill="#4D4D4D"/>
<path d="M308.946 55.1704V30.7341H323.694V33.3591H311.905V41.6159H322.93V44.2409H311.905V52.5454H323.885V55.1704H308.946Z" fill="#4D4D4D"/>
<path d="M331.051 33.3591V30.7341H349.378V33.3591H341.694V55.1704H338.735V33.3591H331.051Z" fill="#4D4D4D"/>
<path d="M357.305 55.1704V30.7341H372.053V33.3591H360.264V41.6159H371.289V44.2409H360.264V52.5454H372.244V55.1704H357.305Z" fill="#4D4D4D"/>
<path d="M394.11 36.8432C393.967 35.6341 393.386 34.6954 392.368 34.0273C391.35 33.3591 390.101 33.025 388.622 33.025C387.54 33.025 386.593 33.2 385.782 33.55C384.978 33.9 384.35 34.3812 383.897 34.9937C383.451 35.6062 383.228 36.3023 383.228 37.0818C383.228 37.7341 383.384 38.2949 383.694 38.7642C384.012 39.2256 384.418 39.6114 384.911 39.9216C385.404 40.2239 385.921 40.4744 386.462 40.6733C387.003 40.8642 387.5 41.0193 387.953 41.1386L390.435 41.8068C391.072 41.9739 391.78 42.2045 392.559 42.4989C393.347 42.7932 394.098 43.1949 394.814 43.704C395.538 44.2051 396.135 44.8494 396.604 45.6369C397.073 46.4244 397.308 47.3909 397.308 48.5364C397.308 49.8568 396.962 51.05 396.27 52.1159C395.586 53.1818 394.584 54.029 393.263 54.6574C391.951 55.2858 390.356 55.6 388.478 55.6C386.728 55.6 385.213 55.3176 383.932 54.7528C382.66 54.1881 381.657 53.4006 380.926 52.3903C380.202 51.3801 379.792 50.2068 379.697 48.8704H382.751C382.831 49.7932 383.141 50.5568 383.682 51.1614C384.231 51.7579 384.923 52.2034 385.758 52.4977C386.601 52.7841 387.508 52.9273 388.478 52.9273C389.608 52.9273 390.622 52.7443 391.521 52.3784C392.42 52.0045 393.132 51.4875 393.657 50.8273C394.182 50.1591 394.444 49.3795 394.444 48.4886C394.444 47.6773 394.218 47.017 393.764 46.5079C393.311 45.9988 392.714 45.5852 391.974 45.267C391.235 44.9489 390.435 44.6704 389.576 44.4318L386.569 43.5727C384.66 43.0238 383.149 42.2403 382.035 41.2221C380.922 40.204 380.365 38.8716 380.365 37.225C380.365 35.8568 380.735 34.6636 381.474 33.6454C382.222 32.6193 383.224 31.8238 384.481 31.2591C385.746 30.6863 387.158 30.4 388.717 30.4C390.292 30.4 391.692 30.6824 392.917 31.2471C394.142 31.804 395.113 32.5676 395.828 33.5381C396.552 34.5085 396.934 35.6102 396.974 36.8432H394.11Z" fill="#4D4D4D"/>
<path d="M405.533 55.1704V30.7341H413.79C415.707 30.7341 417.274 31.0801 418.491 31.7721C419.716 32.4562 420.623 33.3829 421.212 34.5523C421.8 35.7216 422.095 37.0261 422.095 38.4659C422.095 39.9057 421.8 41.2142 421.212 42.3915C420.631 43.5687 419.732 44.5074 418.515 45.2074C417.298 45.8994 415.739 46.2454 413.838 46.2454H407.92V43.6204H413.742C415.055 43.6204 416.109 43.3937 416.904 42.9403C417.7 42.4869 418.276 41.8744 418.634 41.1028C419 40.3233 419.183 39.4443 419.183 38.4659C419.183 37.4875 419 36.6125 418.634 35.8409C418.276 35.0693 417.696 34.4648 416.892 34.0273C416.089 33.5818 415.023 33.3591 413.695 33.3591H408.492V55.1704H405.533Z" fill="#4D4D4D"/>
<path d="M430.221 55.1704V30.7341H444.969V33.3591H433.18V41.6159H444.205V44.2409H433.18V52.5454H445.16V55.1704H430.221Z" fill="#4D4D4D"/>
<path d="M473.326 38.3704H470.367C470.192 37.5193 469.886 36.7716 469.448 36.1273C469.019 35.4829 468.494 34.942 467.873 34.5045C467.261 34.0591 466.581 33.725 465.833 33.5023C465.085 33.2795 464.306 33.1682 463.494 33.1682C462.015 33.1682 460.674 33.542 459.473 34.2898C458.28 35.0375 457.33 36.1392 456.622 37.5949C455.922 39.0506 455.572 40.8364 455.572 42.9523C455.572 45.0682 455.922 46.854 456.622 48.3096C457.33 49.7653 458.28 50.867 459.473 51.6148C460.674 52.3625 462.015 52.7364 463.494 52.7364C464.306 52.7364 465.085 52.625 465.833 52.4023C466.581 52.1795 467.261 51.8494 467.873 51.4119C468.494 50.9665 469.019 50.4216 469.448 49.7773C469.886 49.125 470.192 48.3773 470.367 47.5341H473.326C473.103 48.7829 472.698 49.9006 472.109 50.8869C471.52 51.8733 470.789 52.7125 469.914 53.4045C469.039 54.0886 468.056 54.6096 466.966 54.9676C465.885 55.3256 464.727 55.5045 463.494 55.5045C461.41 55.5045 459.557 54.9954 457.934 53.9773C456.311 52.9591 455.035 51.5114 454.104 49.6341C453.173 47.7568 452.708 45.5295 452.708 42.9523C452.708 40.375 453.173 38.1477 454.104 36.2704C455.035 34.3932 456.311 32.9454 457.934 31.9273C459.557 30.9091 461.41 30.4 463.494 30.4C464.727 30.4 465.885 30.579 466.966 30.9369C468.056 31.2949 469.039 31.8199 469.914 32.5119C470.789 33.196 471.52 34.0312 472.109 35.0176C472.698 35.996 473.103 37.1136 473.326 38.3704Z" fill="#4D4D4D"/>
<path d="M484.427 30.7341V55.1704H481.468V30.7341H484.427Z" fill="#4D4D4D"/>
<path d="M494.722 55.1704H491.62L500.593 30.7341H503.647L512.62 55.1704H509.518L502.215 34.6H502.025L494.722 55.1704ZM495.868 45.625H508.372V48.25H495.868V45.625Z" fill="#4D4D4D"/>
<path d="M519.786 55.1704V30.7341H522.745V52.5454H534.104V55.1704H519.786Z" fill="#4D4D4D"/>
<path d="M199.3 30.7341H202.832L211.136 51.0182H211.423L219.727 30.7341H223.259V55.1704H220.491V36.6045H220.252L212.616 55.1704H209.943L202.307 36.6045H202.068V55.1704H199.3V30.7341Z" stroke="#4D4D4D" stroke-width="2.016" mask="url(#path-1-outside-1_38_33996)"/>
<path d="M232.552 55.1704V30.7341H247.3V33.3591H235.511V41.6159H246.536V44.2409H235.511V52.5454H247.491V55.1704H232.552Z" stroke="#4D4D4D" stroke-width="2.016" mask="url(#path-1-outside-1_38_33996)"/>
<path d="M272.03 30.7341H274.989V46.9136C274.989 48.5841 274.595 50.0756 273.808 51.3881C273.028 52.6926 271.926 53.7227 270.503 54.4784C269.079 55.2261 267.408 55.6 265.491 55.6C263.574 55.6 261.904 55.2261 260.48 54.4784C259.056 53.7227 257.95 52.6926 257.163 51.3881C256.383 50.0756 255.993 48.5841 255.993 46.9136V30.7341H258.953V46.675C258.953 47.8682 259.215 48.9301 259.74 49.8608C260.265 50.7835 261.013 51.5114 261.983 52.0443C262.962 52.5693 264.131 52.8318 265.491 52.8318C266.851 52.8318 268.021 52.5693 268.999 52.0443C269.978 51.5114 270.725 50.7835 271.242 49.8608C271.767 48.9301 272.03 47.8682 272.03 46.675V30.7341Z" stroke="#4D4D4D" stroke-width="2.016" mask="url(#path-1-outside-1_38_33996)"/>
<path d="M284.258 55.1704V30.7341H292.515C294.432 30.7341 295.999 31.0801 297.216 31.7721C298.441 32.4562 299.348 33.3829 299.937 34.5523C300.525 35.7216 300.82 37.0261 300.82 38.4659C300.82 39.9057 300.525 41.2142 299.937 42.3915C299.356 43.5687 298.457 44.5074 297.24 45.2074C296.023 45.8994 294.464 46.2454 292.563 46.2454H286.645V43.6204H292.467C293.78 43.6204 294.834 43.3937 295.629 42.9403C296.425 42.4869 297.001 41.8744 297.359 41.1028C297.725 40.3233 297.908 39.4443 297.908 38.4659C297.908 37.4875 297.725 36.6125 297.359 35.8409C297.001 35.0693 296.421 34.4648 295.617 34.0273C294.814 33.5818 293.748 33.3591 292.42 33.3591H287.217V55.1704H284.258Z" stroke="#4D4D4D" stroke-width="2.016" mask="url(#path-1-outside-1_38_33996)"/>
<path d="M308.946 55.1704V30.7341H323.694V33.3591H311.905V41.6159H322.93V44.2409H311.905V52.5454H323.885V55.1704H308.946Z" stroke="#4D4D4D" stroke-width="2.016" mask="url(#path-1-outside-1_38_33996)"/>
<path d="M331.051 33.3591V30.7341H349.378V33.3591H341.694V55.1704H338.735V33.3591H331.051Z" stroke="#4D4D4D" stroke-width="2.016" mask="url(#path-1-outside-1_38_33996)"/>
<path d="M357.305 55.1704V30.7341H372.053V33.3591H360.264V41.6159H371.289V44.2409H360.264V52.5454H372.244V55.1704H357.305Z" stroke="#4D4D4D" stroke-width="2.016" mask="url(#path-1-outside-1_38_33996)"/>
<path d="M394.11 36.8432C393.967 35.6341 393.386 34.6954 392.368 34.0273C391.35 33.3591 390.101 33.025 388.622 33.025C387.54 33.025 386.593 33.2 385.782 33.55C384.978 33.9 384.35 34.3812 383.897 34.9937C383.451 35.6062 383.228 36.3023 383.228 37.0818C383.228 37.7341 383.384 38.2949 383.694 38.7642C384.012 39.2256 384.418 39.6114 384.911 39.9216C385.404 40.2239 385.921 40.4744 386.462 40.6733C387.003 40.8642 387.5 41.0193 387.953 41.1386L390.435 41.8068C391.072 41.9739 391.78 42.2045 392.559 42.4989C393.347 42.7932 394.098 43.1949 394.814 43.704C395.538 44.2051 396.135 44.8494 396.604 45.6369C397.073 46.4244 397.308 47.3909 397.308 48.5364C397.308 49.8568 396.962 51.05 396.27 52.1159C395.586 53.1818 394.584 54.029 393.263 54.6574C391.951 55.2858 390.356 55.6 388.478 55.6C386.728 55.6 385.213 55.3176 383.932 54.7528C382.66 54.1881 381.657 53.4006 380.926 52.3903C380.202 51.3801 379.792 50.2068 379.697 48.8704H382.751C382.831 49.7932 383.141 50.5568 383.682 51.1614C384.231 51.7579 384.923 52.2034 385.758 52.4977C386.601 52.7841 387.508 52.9273 388.478 52.9273C389.608 52.9273 390.622 52.7443 391.521 52.3784C392.42 52.0045 393.132 51.4875 393.657 50.8273C394.182 50.1591 394.444 49.3795 394.444 48.4886C394.444 47.6773 394.218 47.017 393.764 46.5079C393.311 45.9988 392.714 45.5852 391.974 45.267C391.235 44.9489 390.435 44.6704 389.576 44.4318L386.569 43.5727C384.66 43.0238 383.149 42.2403 382.035 41.2221C380.922 40.204 380.365 38.8716 380.365 37.225C380.365 35.8568 380.735 34.6636 381.474 33.6454C382.222 32.6193 383.224 31.8238 384.481 31.2591C385.746 30.6863 387.158 30.4 388.717 30.4C390.292 30.4 391.692 30.6824 392.917 31.2471C394.142 31.804 395.113 32.5676 395.828 33.5381C396.552 34.5085 396.934 35.6102 396.974 36.8432H394.11Z" stroke="#4D4D4D" stroke-width="2.016" mask="url(#path-1-outside-1_38_33996)"/>
<path d="M405.533 55.1704V30.7341H413.79C415.707 30.7341 417.274 31.0801 418.491 31.7721C419.716 32.4562 420.623 33.3829 421.212 34.5523C421.8 35.7216 422.095 37.0261 422.095 38.4659C422.095 39.9057 421.8 41.2142 421.212 42.3915C420.631 43.5687 419.732 44.5074 418.515 45.2074C417.298 45.8994 415.739 46.2454 413.838 46.2454H407.92V43.6204H413.742C415.055 43.6204 416.109 43.3937 416.904 42.9403C417.7 42.4869 418.276 41.8744 418.634 41.1028C419 40.3233 419.183 39.4443 419.183 38.4659C419.183 37.4875 419 36.6125 418.634 35.8409C418.276 35.0693 417.696 34.4648 416.892 34.0273C416.089 33.5818 415.023 33.3591 413.695 33.3591H408.492V55.1704H405.533Z" stroke="#4D4D4D" stroke-width="2.016" mask="url(#path-1-outside-1_38_33996)"/>
<path d="M430.221 55.1704V30.7341H444.969V33.3591H433.18V41.6159H444.205V44.2409H433.18V52.5454H445.16V55.1704H430.221Z" stroke="#4D4D4D" stroke-width="2.016" mask="url(#path-1-outside-1_38_33996)"/>
<path d="M473.326 38.3704H470.367C470.192 37.5193 469.886 36.7716 469.448 36.1273C469.019 35.4829 468.494 34.942 467.873 34.5045C467.261 34.0591 466.581 33.725 465.833 33.5023C465.085 33.2795 464.306 33.1682 463.494 33.1682C462.015 33.1682 460.674 33.542 459.473 34.2898C458.28 35.0375 457.33 36.1392 456.622 37.5949C455.922 39.0506 455.572 40.8364 455.572 42.9523C455.572 45.0682 455.922 46.854 456.622 48.3096C457.33 49.7653 458.28 50.867 459.473 51.6148C460.674 52.3625 462.015 52.7364 463.494 52.7364C464.306 52.7364 465.085 52.625 465.833 52.4023C466.581 52.1795 467.261 51.8494 467.873 51.4119C468.494 50.9665 469.019 50.4216 469.448 49.7773C469.886 49.125 470.192 48.3773 470.367 47.5341H473.326C473.103 48.7829 472.698 49.9006 472.109 50.8869C471.52 51.8733 470.789 52.7125 469.914 53.4045C469.039 54.0886 468.056 54.6096 466.966 54.9676C465.885 55.3256 464.727 55.5045 463.494 55.5045C461.41 55.5045 459.557 54.9954 457.934 53.9773C456.311 52.9591 455.035 51.5114 454.104 49.6341C453.173 47.7568 452.708 45.5295 452.708 42.9523C452.708 40.375 453.173 38.1477 454.104 36.2704C455.035 34.3932 456.311 32.9454 457.934 31.9273C459.557 30.9091 461.41 30.4 463.494 30.4C464.727 30.4 465.885 30.579 466.966 30.9369C468.056 31.2949 469.039 31.8199 469.914 32.5119C470.789 33.196 471.52 34.0312 472.109 35.0176C472.698 35.996 473.103 37.1136 473.326 38.3704Z" stroke="#4D4D4D" stroke-width="2.016" mask="url(#path-1-outside-1_38_33996)"/>
<path d="M484.427 30.7341V55.1704H481.468V30.7341H484.427Z" stroke="#4D4D4D" stroke-width="2.016" mask="url(#path-1-outside-1_38_33996)"/>
<path d="M494.722 55.1704H491.62L500.593 30.7341H503.647L512.62 55.1704H509.518L502.215 34.6H502.025L494.722 55.1704ZM495.868 45.625H508.372V48.25H495.868V45.625Z" stroke="#4D4D4D" stroke-width="2.016" mask="url(#path-1-outside-1_38_33996)"/>
<path d="M519.786 55.1704V30.7341H522.745V52.5454H534.104V55.1704H519.786Z" stroke="#4D4D4D" stroke-width="2.016" mask="url(#path-1-outside-1_38_33996)"/>
<path d="M283.842 55.139V55.643H284.346H287.305H287.809V55.139V46.718H292.65C294.609 46.718 296.261 46.362 297.577 45.6141L297.579 45.6128C298.876 44.8669 299.847 43.8569 300.476 42.5842C301.102 41.3309 301.411 39.9445 301.411 38.4345C301.411 36.924 301.102 35.5406 300.474 34.2942C299.837 33.0289 298.857 32.0311 297.551 31.3016C296.235 30.554 294.575 30.1987 292.603 30.1987H284.346H283.842V30.7027V55.139ZM292.555 43.085H287.809V33.8317H292.507C293.786 33.8317 294.758 34.047 295.46 34.4366L295.46 34.4366L295.464 34.4385C296.18 34.8284 296.681 35.3556 296.99 36.0216L296.99 36.0216L296.991 36.0254C297.321 36.7203 297.492 37.5199 297.492 38.4345C297.492 39.349 297.321 40.1533 296.991 40.8573L296.99 40.8593C296.679 41.5285 296.179 42.0653 295.467 42.471C294.774 42.8663 293.815 43.085 292.555 43.085ZM308.53 55.139V55.643H309.034H323.972H324.476V55.139V52.514V52.01H323.972H312.497V44.7135H323.018H323.522V44.2095V41.5845V41.0805H323.018H312.497V33.8317H323.782H324.286V33.3277V30.7027V30.1987H323.782H309.034H308.53V30.7027V55.139ZM330.635 33.3277V33.8317H331.139H338.319V55.139V55.643H338.823H341.782H342.286V55.139V33.8317H349.466H349.97V33.3277V30.7027V30.1987H349.466H331.139H330.635V30.7027V33.3277Z" fill="#B85300" stroke="#B85300" stroke-width="1.008"/>
</g>
<path d="M186 20.32C185.072 20.32 184.32 21.0722 184.32 22C184.32 22.9278 185.072 23.68 186 23.68V20.32ZM536 23.68C536.928 23.68 537.68 22.9278 537.68 22C537.68 21.0722 536.928 20.32 536 20.32V23.68ZM536 65.68C536.928 65.68 537.68 64.9278 537.68 64C537.68 63.0722 536.928 62.32 536 62.32V65.68ZM186 62.32C185.072 62.32 184.32 63.0722 184.32 64C184.32 64.9278 185.072 65.68 186 65.68V62.32ZM189.365 65.68C190.293 65.68 191.045 64.9278 191.045 64C191.045 63.0722 190.293 62.32 189.365 62.32V65.68ZM196.096 62.32C195.168 62.32 194.416 63.0722 194.416 64C194.416 64.9278 195.168 65.68 196.096 65.68V62.32ZM202.827 65.68C203.755 65.68 204.507 64.9278 204.507 64C204.507 63.0722 203.755 62.32 202.827 62.32V65.68ZM209.558 62.32C208.63 62.32 207.878 63.0722 207.878 64C207.878 64.9278 208.63 65.68 209.558 65.68V62.32ZM216.288 65.68C217.216 65.68 217.968 64.9278 217.968 64C217.968 63.0722 217.216 62.32 216.288 62.32V65.68ZM223.019 62.32C222.091 62.32 221.339 63.0722 221.339 64C221.339 64.9278 222.091 65.68 223.019 65.68V62.32ZM229.75 65.68C230.678 65.68 231.43 64.9278 231.43 64C231.43 63.0722 230.678 62.32 229.75 62.32V65.68ZM236.481 62.32C235.553 62.32 234.801 63.0722 234.801 64C234.801 64.9278 235.553 65.68 236.481 65.68V62.32ZM243.212 65.68C244.139 65.68 244.892 64.9278 244.892 64C244.892 63.0722 244.139 62.32 243.212 62.32V65.68ZM249.942 62.32C249.014 62.32 248.262 63.0722 248.262 64C248.262 64.9278 249.014 65.68 249.942 65.68V62.32ZM256.673 65.68C257.601 65.68 258.353 64.9278 258.353 64C258.353 63.0722 257.601 62.32 256.673 62.32V65.68ZM263.404 62.32C262.476 62.32 261.724 63.0722 261.724 64C261.724 64.9278 262.476 65.68 263.404 65.68V62.32ZM270.135 65.68C271.062 65.68 271.815 64.9278 271.815 64C271.815 63.0722 271.062 62.32 270.135 62.32V65.68ZM276.865 62.32C275.938 62.32 275.185 63.0722 275.185 64C275.185 64.9278 275.938 65.68 276.865 65.68V62.32ZM283.596 65.68C284.524 65.68 285.276 64.9278 285.276 64C285.276 63.0722 284.524 62.32 283.596 62.32V65.68ZM290.327 62.32C289.399 62.32 288.647 63.0722 288.647 64C288.647 64.9278 289.399 65.68 290.327 65.68V62.32ZM297.058 65.68C297.986 65.68 298.738 64.9278 298.738 64C298.738 63.0722 297.986 62.32 297.058 62.32V65.68ZM303.788 62.32C302.861 62.32 302.108 63.0722 302.108 64C302.108 64.9278 302.861 65.68 303.788 65.68V62.32ZM310.519 65.68C311.447 65.68 312.199 64.9278 312.199 64C312.199 63.0722 311.447 62.32 310.519 62.32V65.68ZM317.25 62.32C316.322 62.32 315.57 63.0722 315.57 64C315.57 64.9278 316.322 65.68 317.25 65.68V62.32ZM323.981 65.68C324.909 65.68 325.661 64.9278 325.661 64C325.661 63.0722 324.909 62.32 323.981 62.32V65.68ZM330.712 62.32C329.784 62.32 329.032 63.0722 329.032 64C329.032 64.9278 329.784 65.68 330.712 65.68V62.32ZM337.442 65.68C338.37 65.68 339.122 64.9278 339.122 64C339.122 63.0722 338.37 62.32 337.442 62.32V65.68ZM344.173 62.32C343.245 62.32 342.493 63.0722 342.493 64C342.493 64.9278 343.245 65.68 344.173 65.68V62.32ZM350.904 65.68C351.832 65.68 352.584 64.9278 352.584 64C352.584 63.0722 351.832 62.32 350.904 62.32V65.68ZM357.635 62.32C356.707 62.32 355.955 63.0722 355.955 64C355.955 64.9278 356.707 65.68 357.635 65.68V62.32ZM364.365 65.68C365.293 65.68 366.045 64.9278 366.045 64C366.045 63.0722 365.293 62.32 364.365 62.32V65.68ZM371.096 62.32C370.168 62.32 369.416 63.0722 369.416 64C369.416 64.9278 370.168 65.68 371.096 65.68V62.32ZM377.827 65.68C378.755 65.68 379.507 64.9278 379.507 64C379.507 63.0722 378.755 62.32 377.827 62.32V65.68ZM384.558 62.32C383.63 62.32 382.878 63.0722 382.878 64C382.878 64.9278 383.63 65.68 384.558 65.68V62.32ZM391.288 65.68C392.216 65.68 392.968 64.9278 392.968 64C392.968 63.0722 392.216 62.32 391.288 62.32V65.68ZM398.019 62.32C397.091 62.32 396.339 63.0722 396.339 64C396.339 64.9278 397.091 65.68 398.019 65.68V62.32ZM404.75 65.68C405.678 65.68 406.43 64.9278 406.43 64C406.43 63.0722 405.678 62.32 404.75 62.32V65.68ZM411.481 62.32C410.553 62.32 409.801 63.0722 409.801 64C409.801 64.9278 410.553 65.68 411.481 65.68V62.32ZM418.212 65.68C419.139 65.68 419.892 64.9278 419.892 64C419.892 63.0722 419.139 62.32 418.212 62.32V65.68ZM424.942 62.32C424.015 62.32 423.262 63.0722 423.262 64C423.262 64.9278 424.015 65.68 424.942 65.68V62.32ZM431.673 65.68C432.601 65.68 433.353 64.9278 433.353 64C433.353 63.0722 432.601 62.32 431.673 62.32V65.68ZM438.404 62.32C437.476 62.32 436.724 63.0722 436.724 64C436.724 64.9278 437.476 65.68 438.404 65.68V62.32ZM445.135 65.68C446.062 65.68 446.815 64.9278 446.815 64C446.815 63.0722 446.062 62.32 445.135 62.32V65.68ZM451.865 62.32C450.938 62.32 450.185 63.0722 450.185 64C450.185 64.9278 450.938 65.68 451.865 65.68V62.32ZM458.596 65.68C459.524 65.68 460.276 64.9278 460.276 64C460.276 63.0722 459.524 62.32 458.596 62.32V65.68ZM465.327 62.32C464.399 62.32 463.647 63.0722 463.647 64C463.647 64.9278 464.399 65.68 465.327 65.68V62.32ZM472.058 65.68C472.986 65.68 473.738 64.9278 473.738 64C473.738 63.0722 472.986 62.32 472.058 62.32V65.68ZM478.789 62.32C477.861 62.32 477.109 63.0722 477.109 64C477.109 64.9278 477.861 65.68 478.789 65.68V62.32ZM485.519 65.68C486.447 65.68 487.199 64.9278 487.199 64C487.199 63.0722 486.447 62.32 485.519 62.32V65.68ZM492.25 62.32C491.322 62.32 490.57 63.0722 490.57 64C490.57 64.9278 491.322 65.68 492.25 65.68V62.32ZM498.981 65.68C499.909 65.68 500.661 64.9278 500.661 64C500.661 63.0722 499.909 62.32 498.981 62.32V65.68ZM505.712 62.32C504.784 62.32 504.032 63.0722 504.032 64C504.032 64.9278 504.784 65.68 505.712 65.68V62.32ZM512.442 65.68C513.37 65.68 514.122 64.9278 514.122 64C514.122 63.0722 513.37 62.32 512.442 62.32V65.68ZM519.173 62.32C518.245 62.32 517.493 63.0722 517.493 64C517.493 64.9278 518.245 65.68 519.173 65.68V62.32ZM525.904 65.68C526.832 65.68 527.584 64.9278 527.584 64C527.584 63.0722 526.832 62.32 525.904 62.32V65.68ZM532.635 62.32C531.707 62.32 530.955 63.0722 530.955 64C530.955 64.9278 531.707 65.68 532.635 65.68V62.32ZM532.635 20.32C531.707 20.32 530.955 21.0722 530.955 22C530.955 22.9278 531.707 23.68 532.635 23.68V20.32ZM525.904 23.68C526.832 23.68 527.584 22.9278 527.584 22C527.584 21.0722 526.832 20.32 525.904 20.32V23.68ZM519.173 20.32C518.245 20.32 517.493 21.0722 517.493 22C517.493 22.9278 518.245 23.68 519.173 23.68V20.32ZM512.442 23.68C513.37 23.68 514.122 22.9278 514.122 22C514.122 21.0722 513.37 20.32 512.442 20.32V23.68ZM505.712 20.32C504.784 20.32 504.032 21.0722 504.032 22C504.032 22.9278 504.784 23.68 505.712 23.68V20.32ZM498.981 23.68C499.909 23.68 500.661 22.9278 500.661 22C500.661 21.0722 499.909 20.32 498.981 20.32V23.68ZM492.25 20.32C491.322 20.32 490.57 21.0722 490.57 22C490.57 22.9278 491.322 23.68 492.25 23.68V20.32ZM485.519 23.68C486.447 23.68 487.199 22.9278 487.199 22C487.199 21.0722 486.447 20.32 485.519 20.32V23.68ZM478.788 20.32C477.861 20.32 477.108 21.0722 477.108 22C477.108 22.9278 477.861 23.68 478.788 23.68V20.32ZM472.058 23.68C472.986 23.68 473.738 22.9278 473.738 22C473.738 21.0722 472.986 20.32 472.058 20.32V23.68ZM465.327 20.32C464.399 20.32 463.647 21.0722 463.647 22C463.647 22.9278 464.399 23.68 465.327 23.68V20.32ZM458.596 23.68C459.524 23.68 460.276 22.9278 460.276 22C460.276 21.0722 459.524 20.32 458.596 20.32V23.68ZM451.865 20.32C450.938 20.32 450.185 21.0722 450.185 22C450.185 22.9278 450.938 23.68 451.865 23.68V20.32ZM445.135 23.68C446.062 23.68 446.815 22.9278 446.815 22C446.815 21.0722 446.062 20.32 445.135 20.32V23.68ZM438.404 20.32C437.476 20.32 436.724 21.0722 436.724 22C436.724 22.9278 437.476 23.68 438.404 23.68V20.32ZM431.673 23.68C432.601 23.68 433.353 22.9278 433.353 22C433.353 21.0722 432.601 20.32 431.673 20.32V23.68ZM424.942 20.32C424.014 20.32 423.262 21.0722 423.262 22C423.262 22.9278 424.014 23.68 424.942 23.68V20.32ZM418.212 23.68C419.139 23.68 419.892 22.9278 419.892 22C419.892 21.0722 419.139 20.32 418.212 20.32V23.68ZM411.481 20.32C410.553 20.32 409.801 21.0722 409.801 22C409.801 22.9278 410.553 23.68 411.481 23.68V20.32ZM404.75 23.68C405.678 23.68 406.43 22.9278 406.43 22C406.43 21.0722 405.678 20.32 404.75 20.32V23.68ZM398.019 20.32C397.091 20.32 396.339 21.0722 396.339 22C396.339 22.9278 397.091 23.68 398.019 23.68V20.32ZM391.288 23.68C392.216 23.68 392.968 22.9278 392.968 22C392.968 21.0722 392.216 20.32 391.288 20.32V23.68ZM384.558 20.32C383.63 20.32 382.878 21.0722 382.878 22C382.878 22.9278 383.63 23.68 384.558 23.68V20.32ZM377.827 23.68C378.755 23.68 379.507 22.9278 379.507 22C379.507 21.0722 378.755 20.32 377.827 20.32V23.68ZM371.096 20.32C370.168 20.32 369.416 21.0722 369.416 22C369.416 22.9278 370.168 23.68 371.096 23.68V20.32ZM364.365 23.68C365.293 23.68 366.045 22.9278 366.045 22C366.045 21.0722 365.293 20.32 364.365 20.32V23.68ZM357.635 20.32C356.707 20.32 355.955 21.0722 355.955 22C355.955 22.9278 356.707 23.68 357.635 23.68V20.32ZM350.904 23.68C351.832 23.68 352.584 22.9278 352.584 22C352.584 21.0722 351.832 20.32 350.904 20.32V23.68ZM344.173 20.32C343.245 20.32 342.493 21.0722 342.493 22C342.493 22.9278 343.245 23.68 344.173 23.68V20.32ZM337.442 23.68C338.37 23.68 339.122 22.9278 339.122 22C339.122 21.0722 338.37 20.32 337.442 20.32V23.68ZM330.712 20.32C329.784 20.32 329.032 21.0722 329.032 22C329.032 22.9278 329.784 23.68 330.712 23.68V20.32ZM323.981 23.68C324.909 23.68 325.661 22.9278 325.661 22C325.661 21.0722 324.909 20.32 323.981 20.32V23.68ZM317.25 20.32C316.322 20.32 315.57 21.0722 315.57 22C315.57 22.9278 316.322 23.68 317.25 23.68V20.32ZM310.519 23.68C311.447 23.68 312.199 22.9278 312.199 22C312.199 21.0722 311.447 20.32 310.519 20.32V23.68ZM303.788 20.32C302.861 20.32 302.108 21.0722 302.108 22C302.108 22.9278 302.861 23.68 303.788 23.68V20.32ZM297.058 23.68C297.985 23.68 298.738 22.9278 298.738 22C298.738 21.0722 297.985 20.32 297.058 20.32V23.68ZM290.327 20.32C289.399 20.32 288.647 21.0722 288.647 22C288.647 22.9278 289.399 23.68 290.327 23.68V20.32ZM283.596 23.68C284.524 23.68 285.276 22.9278 285.276 22C285.276 21.0722 284.524 20.32 283.596 20.32V23.68ZM276.865 20.32C275.938 20.32 275.185 21.0722 275.185 22C275.185 22.9278 275.938 23.68 276.865 23.68V20.32ZM270.135 23.68C271.062 23.68 271.815 22.9278 271.815 22C271.815 21.0722 271.062 20.32 270.135 20.32V23.68ZM263.404 20.32C262.476 20.32 261.724 21.0722 261.724 22C261.724 22.9278 262.476 23.68 263.404 23.68V20.32ZM256.673 23.68C257.601 23.68 258.353 22.9278 258.353 22C258.353 21.0722 257.601 20.32 256.673 20.32V23.68ZM249.942 20.32C249.014 20.32 248.262 21.0722 248.262 22C248.262 22.9278 249.014 23.68 249.942 23.68V20.32ZM243.211 23.68C244.139 23.68 244.891 22.9278 244.891 22C244.891 21.0722 244.139 20.32 243.211 20.32V23.68ZM236.481 20.32C235.553 20.32 234.801 21.0722 234.801 22C234.801 22.9278 235.553 23.68 236.481 23.68V20.32ZM229.75 23.68C230.678 23.68 231.43 22.9278 231.43 22C231.43 21.0722 230.678 20.32 229.75 20.32V23.68ZM223.019 20.32C222.091 20.32 221.339 21.0722 221.339 22C221.339 22.9278 222.091 23.68 223.019 23.68V20.32ZM216.288 23.68C217.216 23.68 217.968 22.9278 217.968 22C217.968 21.0722 217.216 20.32 216.288 20.32V23.68ZM209.558 20.32C208.63 20.32 207.878 21.0722 207.878 22C207.878 22.9278 208.63 23.68 209.558 23.68V20.32ZM202.827 23.68C203.755 23.68 204.507 22.9278 204.507 22C204.507 21.0722 203.755 20.32 202.827 20.32V23.68ZM196.096 20.32C195.168 20.32 194.416 21.0722 194.416 22C194.416 22.9278 195.168 23.68 196.096 23.68V20.32ZM189.365 23.68C190.293 23.68 191.045 22.9278 191.045 22C191.045 21.0722 190.293 20.32 189.365 20.32V23.68ZM186 65.68H189.365V62.32H186V65.68ZM196.096 65.68H202.827V62.32H196.096V65.68ZM209.558 65.68H216.288V62.32H209.558V65.68ZM223.019 65.68H229.75V62.32H223.019V65.68ZM236.481 65.68H243.212V62.32H236.481V65.68ZM249.942 65.68H256.673V62.32H249.942V65.68ZM263.404 65.68H270.135V62.32H263.404V65.68ZM276.865 65.68H283.596V62.32H276.865V65.68ZM290.327 65.68H297.058V62.32H290.327V65.68ZM303.788 65.68H310.519V62.32H303.788V65.68ZM317.25 65.68H323.981V62.32H317.25V65.68ZM330.712 65.68H337.442V62.32H330.712V65.68ZM344.173 65.68H350.904V62.32H344.173V65.68ZM357.635 65.68H364.365V62.32H357.635V65.68ZM371.096 65.68H377.827V62.32H371.096V65.68ZM384.558 65.68H391.288V62.32H384.558V65.68ZM398.019 65.68H404.75V62.32H398.019V65.68ZM411.481 65.68H418.212V62.32H411.481V65.68ZM424.942 65.68H431.673V62.32H424.942V65.68ZM438.404 65.68H445.135V62.32H438.404V65.68ZM451.865 65.68H458.596V62.32H451.865V65.68ZM465.327 65.68H472.058V62.32H465.327V65.68ZM478.789 65.68H485.519V62.32H478.789V65.68ZM492.25 65.68H498.981V62.32H492.25V65.68ZM505.712 65.68H512.442V62.32H505.712V65.68ZM519.173 65.68H525.904V62.32H519.173V65.68ZM532.635 65.68H536V62.32H532.635V65.68ZM536 20.32H532.635V23.68H536V20.32ZM525.904 20.32H519.173V23.68H525.904V20.32ZM512.442 20.32H505.712V23.68H512.442V20.32ZM498.981 20.32H492.25V23.68H498.981V20.32ZM485.519 20.32H478.788V23.68H485.519V20.32ZM472.058 20.32H465.327V23.68H472.058V20.32ZM458.596 20.32H451.865V23.68H458.596V20.32ZM445.135 20.32H438.404V23.68H445.135V20.32ZM431.673 20.32H424.942V23.68H431.673V20.32ZM418.212 20.32H411.481V23.68H418.212V20.32ZM404.75 20.32H398.019V23.68H404.75V20.32ZM391.288 20.32H384.558V23.68H391.288V20.32ZM377.827 20.32H371.096V23.68H377.827V20.32ZM364.365 20.32H357.635V23.68H364.365V20.32ZM350.904 20.32H344.173V23.68H350.904V20.32ZM337.442 20.32H330.712V23.68H337.442V20.32ZM323.981 20.32H317.25V23.68H323.981V20.32ZM310.519 20.32H303.788V23.68H310.519V20.32ZM297.058 20.32H290.327V23.68H297.058V20.32ZM283.596 20.32H276.865V23.68H283.596V20.32ZM270.135 20.32H263.404V23.68H270.135V20.32ZM256.673 20.32H249.942V23.68H256.673V20.32ZM243.211 20.32H236.481V23.68H243.211V20.32ZM229.75 20.32H223.019V23.68H229.75V20.32ZM216.288 20.32H209.558V23.68H216.288V20.32ZM202.827 20.32H196.096V23.68H202.827V20.32ZM189.365 20.32H186V23.68H189.365V20.32Z" fill="#4C4C4C"/>
<path d="M23.1982 2.37944C25.202 1.66126 27.924 0.504354 30.2116 0.382059C32.0613 0.228413 34.0651 0 35.7662 0L35.9152 0.786621C32.6757 0.84713 29.2873 0.352054 26.2134 1.66126C23.9563 2.27735 21.931 3.56455 20.4244 5.35232C18.7302 7.1621 17.8251 9.7915 15.4466 10.8752C15.3672 10.7993 14.9628 10.4843 15.0438 10.4351L16.7243 9.67754L17.5713 8.66383C17.4638 8.39036 20.8881 3.63153 23.1982 2.37944Z" fill="#5C4635"/>
<path d="M102.674 28.9729C108.032 28.5164 113.457 28.4779 118.81 29.0059C116.316 29.3745 113.794 29.028 111.288 29.0775C108.419 29.006 105.533 29.3635 102.674 28.9729Z" fill="#C97734"/>
<path d="M133.694 63.3147C135.107 63.3312 136.365 62.5116 137.778 62.6216C141.188 62.9022 144.665 64.8 145.99 68.1005C148.418 72.6277 145.78 78.6126 141.111 80.4773C135.421 83.1287 128.501 78.321 128.192 72.2701C128.093 69.9653 129.136 67.7979 130.344 65.8946C130.631 65.9001 131.211 65.9166 131.498 65.9221C133.021 68.073 135.002 69.9158 136.161 72.3141C136.442 73.6453 138.07 73.1557 139.014 72.9357C139.108 72.4516 139.13 71.9676 139.08 71.489C137.452 69.7782 136.459 67.5834 134.792 65.9056C134.312 65.13 133.065 64.3489 133.694 63.3147Z" fill="#C97734"/>
<path d="M154.218 64.9127L155.217 64.0738C156.651 65.273 158.285 66.2027 159.709 67.4239C157.877 67.5944 155.829 65.3857 154.218 64.9127Z" fill="#B85300"/>
<path d="M46.4005 70.6859C47.5374 71.9346 48.9115 72.9907 49.7945 74.4484C48.6797 75.3506 47.4822 76.1317 46.3122 76.9513C44.7615 76.5718 43.1776 76.9953 41.6159 76.9898C41.4503 75.2076 42.9127 73.5738 44.2538 72.4846C44.8719 71.6705 46.4557 71.9731 46.4005 70.6859Z" fill="#C97734"/>
<path d="M35.7662 0C36.8228 0.00372762 37.7994 0.528215 38.7186 0.643595C42.1291 2.03531 44.9712 4.47218 47.6036 6.98607C49.1543 8.65832 50.9368 10.4901 51.3066 12.7895C51.1134 14.2802 51.1852 15.7819 51.2735 17.2726C51.4004 19.341 50.9534 21.4258 51.3618 23.4776C51.3894 25.0949 51.1576 26.7066 51.2624 28.3183C51.5715 29.039 52.5979 29.27 52.5648 30.1831C51.886 29.7266 51.2017 29.2755 50.5119 28.8409C50.683 23.5326 51.4114 18.1803 50.7437 12.8665C49.6951 9.32392 46.7096 6.87605 43.9779 4.5877C41.6766 2.86044 39.2153 0.731608 36.158 0.803119L35.9152 0.786621L35.7662 0Z" fill="#5B4843"/>
<path d="M26.2134 1.66126C29.2873 0.352054 32.6757 0.84713 35.9152 0.786621L36.158 0.803119C36.4063 3.86159 37.9129 6.59 38.6579 9.52195C39.0056 14.5442 36.1856 18.9944 34.0057 23.3126C32.2122 27.2072 29.2873 31.1898 30.5842 35.7115C31.8038 38.4619 34.4858 40.4807 37.4052 41.1518C40.9205 41.6634 45.1588 41.4654 47.5429 38.4399C49.5406 35.684 50.4678 32.2129 50.5119 28.8409C51.2017 29.2755 51.886 29.7266 52.5648 30.1831C52.5759 30.1941 52.5924 30.2161 52.5979 30.2271C54.6067 33.0711 58.3815 33.6157 61.6319 33.7257C65.1528 33.2526 68.7289 32.851 72.1118 31.7069C75.5112 31.6849 78.8114 30.7882 82.1943 30.5682C82.5144 34.9689 84.2582 39.221 86.7195 42.8681C90.108 47.9124 95.9632 50.9103 101.934 51.5539C104.832 51.7244 107.806 51.3504 110.615 52.2525C113.921 53.1987 117.309 54.2823 120.135 56.2957C112.177 56.5432 104.042 55.5255 96.2888 57.7699C92.3596 58.309 88.5793 59.7392 85.0419 61.4995C81.223 63.6998 77.1282 65.3665 73.21 67.3413C72.1785 67.6592 70.9109 68.203 69.507 68.5185C65.6991 69.7617 61.8858 70.9059 57.8848 71.39C57.4102 71.9896 56.8859 72.5891 56.7314 73.3648C56.0471 75.7906 54.993 78.09 54.2646 80.5048C51.0141 80.6809 47.7416 80.8459 44.4856 80.7249C44.8222 79.3497 45.8928 78.299 46.3122 76.9513C47.4822 76.1317 48.6797 75.3506 49.7945 74.4484C48.9115 72.9907 47.5374 71.9346 46.4005 70.6859C43.5198 68.0345 40.5894 65.4326 37.8908 62.5886C31.7596 55.531 27.411 46.7792 26.5721 37.4167C26.8039 34.0997 26.9364 30.7332 26.7487 27.4162L26.3238 27.3172C22.4442 26.7451 18.6364 25.7715 14.7181 25.4194C13.2281 25.2874 11.8319 24.6383 10.3364 24.5283C6.87068 24.3632 3.2891 22.537 1.65558 19.4015C2.62134 18.0428 3.05731 16.4145 3.50984 14.8413C5.63451 13.7136 8.16755 13.7466 10.3253 12.6464C12.0582 12.1624 13.9069 11.8928 15.4466 10.8752C17.8251 9.7915 18.7302 7.1621 20.4244 5.35232C21.931 3.56455 23.9563 2.27735 26.2134 1.66126ZM24.3647 10.4296C24.0541 10.9141 23.9654 11.9339 24.2764 12.4704C24.4214 13.2517 25.0349 13.5146 25.7443 13.6421C27.1185 13.0975 27.4882 11.8378 27.1185 10.4626C26.0741 9.61881 25.1811 9.83053 24.3647 10.4296Z" fill="#B85300"/>
<path d="M89.7879 29.8311C94.0593 29.259 98.3749 29.1985 102.674 28.9729C105.533 29.3635 108.419 29.006 111.288 29.0775C113.794 29.028 116.316 29.3745 118.81 29.0059C123.242 29.3745 127.916 29.523 131.84 31.8389C134.511 33.9787 136.365 36.9162 138.76 39.3365C136.409 41.0638 133.385 40.5742 130.675 41.1188C120.725 41.5479 110.753 41.3003 100.798 41.1023C97.3098 40.6897 93.7944 40.6017 90.2846 40.6512C89.661 40.6512 89.0429 40.6457 88.4193 40.6237C86.0849 37.6698 85.4337 33.8577 84.3962 30.3371C86.107 29.666 88.0054 30.0951 89.7879 29.8311Z" fill="#B85300"/>
<path d="M131.155 42.384C134.086 42.439 137.06 42.0375 139.731 40.7778C145.189 48.3634 148.197 57.6488 155.217 64.0738L154.218 64.9127C153.224 63.763 151.955 62.9352 150.857 61.89C147.496 58.7435 144.72 55.0415 142.187 51.2184C141.851 50.7068 141.437 50.2282 140.758 50.3272C140.377 52.17 140.498 54.2328 141.652 55.7896C141.536 56.6367 141.536 57.5113 141.255 58.331C139.351 58.1879 137.452 57.4563 135.548 58.0614C133.368 58.1824 131.492 59.3376 129.489 60.0472C125.946 57.1208 122.32 54.1888 118.115 52.258C113.132 49.7331 107.47 48.831 101.923 48.93C97.1718 48.666 92.9501 46.0806 89.6555 42.7966C89.9811 42.461 90.3674 42.2685 90.8089 42.2245C104.258 42.1585 117.718 43.5392 131.155 42.384Z" fill="#B85300"/>
<path d="M36.158 0.803119C39.2153 0.731608 41.6766 2.86044 43.9779 4.5877C46.7096 6.87605 49.6951 9.32392 50.7437 12.8665C51.4114 18.1803 50.683 23.5326 50.5119 28.8409C50.4678 32.2129 49.5406 35.684 47.5429 38.4399C45.1588 41.4654 40.9205 41.6634 37.4052 41.1518C34.4858 40.4807 31.8038 38.4619 30.5842 35.7115C29.2873 31.1898 32.2122 27.2072 34.0057 23.3126C36.1856 18.9944 39.0056 14.5442 38.6579 9.52195C37.9129 6.59 36.4063 3.86159 36.158 0.803119Z" fill="#62372D"/>
<path d="M82.1943 30.5682C82.9172 30.3812 83.6567 30.3426 84.3962 30.3371C85.4337 33.8577 86.0849 37.6698 88.4193 40.6237C89.0429 40.6457 89.661 40.6512 90.2846 40.6512C89.8707 41.1463 89.4733 41.6469 89.0815 42.153C89.225 42.3125 89.512 42.6371 89.6555 42.7966C92.9501 46.0806 97.1718 48.666 101.923 48.93C107.47 48.831 113.132 49.7331 118.115 52.258C122.32 54.1888 125.946 57.1208 129.489 60.0472C131.492 59.3376 133.368 58.1824 135.548 58.0614C137.452 57.4563 139.351 58.1879 141.255 58.331C141.536 57.5113 141.536 56.6367 141.652 55.7896C142.607 57.0768 143.103 58.672 144.119 59.8987C146.718 61.483 148.942 63.7658 150.134 66.5877C152.038 70.8179 151.458 76.0327 148.672 79.7457C146.508 82.9857 142.733 84.988 138.92 85.4611C132.386 86.1872 125.653 81.495 124.368 75.015C124.13 73.5298 123.606 72.0501 122.475 71.0104C119.108 67.3799 118.827 61.8845 120.654 57.4563C120.521 57.1648 120.262 56.5872 120.135 56.2957C117.309 54.2823 113.921 53.1987 110.615 52.2525C107.806 51.3504 104.832 51.7244 101.934 51.5539C95.9632 50.9103 90.108 47.9124 86.7195 42.8681C84.2582 39.221 82.5144 34.9689 82.1943 30.5682ZM124.158 59.7942C123.098 61.8075 122.784 64.6129 124.544 66.3402C125.284 64.921 126.227 63.6283 127.138 62.3191C127.171 60.9494 125.504 59.6732 124.158 59.7942ZM133.694 63.3147C133.065 64.3489 134.312 65.13 134.792 65.9056C136.459 67.5834 137.452 69.7782 139.08 71.489C139.13 71.9676 139.108 72.4516 139.014 72.9357C138.07 73.1557 136.442 73.6453 136.161 72.3141C135.002 69.9158 133.021 68.073 131.498 65.9221C131.211 65.9166 130.631 65.9001 130.344 65.8946C129.136 67.7979 128.093 69.9653 128.192 72.2701C128.501 78.321 135.421 83.1287 141.111 80.4773C145.78 78.6126 148.418 72.6277 145.99 68.1005C144.665 64.8 141.188 62.9022 137.778 62.6216C136.365 62.5116 135.107 63.3312 133.694 63.3147Z" fill="#62372D"/>
<path d="M24.3647 10.4296C25.1811 9.83053 26.0741 9.61881 27.1185 10.4626C27.4882 11.8378 27.1185 13.0975 25.7443 13.6421C25.0349 13.5146 24.4214 13.2517 24.2764 12.4704C23.9654 11.9339 24.0541 10.9141 24.3647 10.4296Z" fill="#29312F"/>
<path d="M5.2758 13.7411C8.56507 12.7018 15.1421 10.6823 15.0438 10.4351C15.0438 10.4351 15.2893 10.7033 15.4466 10.8752C13.9069 11.8928 12.0582 12.1624 10.3253 12.6464C8.16755 13.7466 5.63451 13.7136 3.50984 14.8413C2.4889 15.0998 1.47899 15.4079 0.618084 16.0405C0.27593 17.2617 1.13683 18.3618 1.65558 19.4015C3.2891 22.537 6.87068 24.3632 10.3364 24.5283C11.8319 24.6383 13.2281 25.2874 14.7181 25.4194C18.6364 25.7715 22.4442 26.7451 26.3238 27.3172C26.5721 30.6672 25.9375 34.0832 26.5721 37.4167C27.411 46.7792 31.7596 55.531 37.8908 62.5886L37.4052 62.7977C29.9771 54.4144 25.4298 43.3852 25.8216 32.1304C25.6671 30.6452 26.3735 29.028 25.6947 27.6418C22.7422 27.3227 19.856 26.6846 16.909 26.3215C12.737 25.1499 8.01303 25.6064 4.27141 23.0981C2.10259 21.4533 0.0331117 19.0274 0 16.2C1.02094 14.4562 3.43258 14.1812 5.2758 13.7411Z" fill="#5C4635"/>
<path d="M51.3066 12.7895C52.1344 16.2495 52.0626 20.0066 51.3618 23.4776C50.9534 21.4258 51.4004 19.341 51.2735 17.2726C51.1852 15.7819 51.1134 14.2802 51.3066 12.7895Z" fill="#45403F"/>
<path d="M0.618084 16.0405C1.47899 15.4079 2.4889 15.0998 3.50984 14.8413C3.05731 16.4145 2.62134 18.0428 1.65558 19.4015C1.13683 18.3618 0.27593 17.2617 0.618084 16.0405Z" fill="#423A2E"/>
<path d="M26.3238 27.3172L26.7487 27.4162C26.9364 30.7332 26.8039 34.0997 26.5721 37.4167C25.9375 34.0832 26.5721 30.6672 26.3238 27.3172Z" fill="#AF6526"/>
<path d="M89.7769 29.182C94.3628 28.6649 98.9985 28.8519 103.579 28.2358C107.988 28.0983 112.403 28.1423 116.813 28.1918C121.674 28.8794 126.823 28.6374 131.304 30.9258C133.694 32.2735 135.195 34.6058 137.027 36.5586C137.932 37.4278 138.385 38.792 139.726 39.089C140.029 39.8261 140.101 40.6678 140.636 41.2839C146.122 48.8585 149.014 58.364 156.453 64.4479C158.164 65.6636 159.891 67.0883 162.021 67.4349C161.491 69.4372 159.494 67.6934 158.263 67.4954C157.397 66.9672 154.87 65.6823 154.218 64.9127C155.829 65.3857 157.877 67.5944 159.709 67.4239C158.285 66.2027 156.651 65.273 155.217 64.0738C148.197 57.6488 145.189 48.3634 139.731 40.7778C139.428 40.2827 139.119 39.7931 138.76 39.3365C136.365 36.9162 134.511 33.9787 131.84 31.8389C127.916 29.523 123.242 29.3745 118.81 29.0059C113.457 28.4779 108.032 28.5164 102.674 28.9729C98.3749 29.1985 94.0593 29.259 89.7879 29.8311C88.0054 30.0951 86.107 29.666 84.3962 30.3371C83.6567 30.3426 82.9172 30.3812 82.1943 30.5682C78.8114 30.7882 75.5112 31.6849 72.1118 31.7069C68.7289 32.851 65.1528 33.2526 61.6319 33.7257C58.3815 33.6157 54.6067 33.0711 52.5979 30.2271C54.7668 31.2833 56.8528 33.1426 59.4631 33.1206C61.7478 33.1426 64.1208 33.3571 66.2896 32.4825C74.0488 30.8653 81.8907 29.9466 89.7769 29.182Z" fill="#644A35"/>
<path d="M138.76 39.3365C139.119 39.7931 139.428 40.2827 139.731 40.7778C137.06 42.0375 134.086 42.439 131.155 42.384C117.718 43.5392 104.258 42.1585 90.8089 42.2245C90.3674 42.2685 89.9811 42.461 89.6555 42.7966C89.512 42.6371 89.225 42.3125 89.0815 42.153C89.4733 41.6469 89.8707 41.1463 90.2846 40.6512C93.7944 40.6017 97.3098 40.6897 100.798 41.1023C110.753 41.3003 120.725 41.5479 130.675 41.1188C133.385 40.5742 136.409 41.0638 138.76 39.3365Z" fill="#763D22"/>
<path d="M140.758 50.3272C141.437 50.2282 141.851 50.7068 142.187 51.2184C144.72 55.0415 147.496 58.7435 150.857 61.89C151.955 62.9352 153.224 63.763 154.218 64.9127C150.603 63.1854 148.103 59.7337 145.52 56.7412C144.003 54.7829 142.612 52.7311 141.139 50.7453C141.105 52.324 141.122 54.0568 142.154 55.3605C143.125 56.6147 143.589 58.1604 144.477 59.4586C149.681 62.3521 152.788 68.689 151.552 74.5254C150.719 78.7556 147.86 82.5181 144.003 84.504C139.643 86.6713 134.047 86.5283 129.969 83.7833C127.265 82.2211 125.377 79.5532 124.169 76.7313C123.7 75.2901 123.678 73.6233 122.894 72.3251C119.368 68.9916 117.949 63.6008 119.583 59.0186C119.704 58.4355 120.278 57.7259 119.831 57.1648C116.504 56.3286 113.038 56.5707 109.633 56.5487C106.278 56.4882 103.016 57.4178 99.6717 57.5223C94.6884 58.518 89.6058 59.5851 85.1357 62.121C81.5486 64.0023 77.9118 65.8176 74.1867 67.4239L73.21 67.3413C77.1282 65.3665 81.223 63.6998 85.0419 61.4995C88.5793 59.7392 92.3596 58.309 96.2888 57.7699C104.042 55.5255 112.177 56.5432 120.135 56.2957C120.262 56.5872 120.521 57.1648 120.654 57.4563C118.827 61.8845 119.108 67.3799 122.475 71.0104C123.606 72.0501 124.13 73.5298 124.368 75.015C125.653 81.495 132.386 86.1872 138.92 85.4611C142.733 84.988 146.508 82.9857 148.672 79.7457C151.458 76.0327 152.038 70.8179 150.134 66.5877C148.942 63.7658 146.718 61.483 144.119 59.8987C143.103 58.672 142.607 57.0768 141.652 55.7896C140.498 54.2328 140.377 52.17 140.758 50.3272Z" fill="#57453A"/>
<path d="M124.158 59.7942C125.504 59.6732 127.171 60.9494 127.138 62.3191C126.227 63.6283 125.284 64.921 124.544 66.3402C122.784 64.6129 123.098 61.8075 124.158 59.7942Z" fill="#C77633"/>
<path d="M37.8908 62.5886C40.5894 65.4326 43.5198 68.0345 46.4005 70.6859C46.4557 71.9731 44.8719 71.6705 44.2538 72.4846C42.9127 73.5738 41.4503 75.2076 41.6159 76.9898C43.1776 76.9953 44.7615 76.5718 46.3122 76.9513C45.8928 78.299 44.8222 79.3497 44.4856 80.7249L44.5408 81.1154C47.8409 81.3465 51.1465 81.1044 54.4522 81.0439C53.8507 81.5445 52.9732 81.2365 52.2613 81.352C49.6013 81.2695 46.9138 81.693 44.2759 81.3905C43.7957 79.8833 45.0926 78.7446 45.352 77.3694C43.9723 77.2704 42.5817 77.4794 41.202 77.2979C40.7495 75.6146 42.085 73.9424 43.1666 72.7267C43.7902 71.7915 45.2527 71.8025 45.6445 70.7189C43.0011 68.2765 39.9106 65.3941 37.4052 62.7977L37.8908 62.5886Z" fill="#554335"/>
<path d="M69.507 68.5185C70.9109 68.203 72.1785 67.6592 73.21 67.3413L74.1867 67.4239C69.4131 69.1621 63.144 71.2964 58.089 71.929C56.5162 74.817 56.025 78.1615 54.4522 81.0439C51.1465 81.1044 47.8409 81.3465 44.5408 81.1154L44.4856 80.7249C47.7416 80.8459 51.0141 80.6809 54.2646 80.5048C54.993 78.09 56.0471 75.7906 56.7314 73.3648C56.8859 72.5891 57.4102 71.9896 57.8848 71.39C61.8858 70.9059 65.6991 69.7617 69.507 68.5185Z" fill="#735238"/>
<path d="M158.263 67.4954C159.494 67.6934 161.491 69.4372 162.021 67.4349C163.268 68.0895 164.653 68.2435 166 68.579C163.472 69.6132 160.503 68.8651 158.263 67.4954Z" fill="#473E38"/>
<g filter="url(#filter1_d_38_33996)">
<path d="M269.438 74.1734H269.26C268.379 74.1734 267.692 74.3961 267.197 74.8414C266.712 75.2768 266.47 76.0536 266.47 77.1719C266.47 77.538 266.504 77.7953 266.573 77.9437C266.643 78.0823 266.677 78.1614 266.677 78.1812C266.143 78.1812 265.742 78.0724 265.475 77.8547C265.218 77.6271 265.089 77.256 265.089 76.7414C265.089 76.0388 265.262 75.4005 265.609 74.8265C265.955 74.2427 266.504 73.7726 267.256 73.4164C268.018 73.0601 268.983 72.882 270.151 72.882C270.804 72.882 271.507 72.9414 272.259 73.0601C272.892 73.169 273.456 73.2234 273.951 73.2234C274.584 73.2234 275.158 73.1195 275.673 72.9117C275.653 73.5549 275.49 74.0299 275.183 74.3367C274.876 74.6435 274.421 74.7969 273.817 74.7969C273.501 74.7969 273.184 74.7721 272.867 74.7226C272.551 74.6732 272.1 74.589 271.516 74.4703L269.468 84H267.33L269.438 74.1734ZM274.314 84.0594C273.581 84.0594 273.002 83.8714 272.577 83.4953C272.151 83.1193 271.939 82.5255 271.939 81.7141C271.939 81.0411 272.077 80.294 272.354 79.4726C272.631 78.6513 273.077 77.9437 273.69 77.35C274.304 76.7463 275.076 76.4445 276.006 76.4445C277.273 76.4445 277.906 77.2362 277.906 78.8195V78.8344C277.936 78.8443 277.99 78.8492 278.069 78.8492C278.396 78.8492 278.772 78.7651 279.197 78.5969C279.623 78.4187 280.009 78.206 280.355 77.9586L280.489 78.3594C280.202 78.6661 279.826 78.9284 279.361 79.1461C278.905 79.3539 278.406 79.5023 277.861 79.5914C277.782 80.4919 277.579 81.2786 277.253 81.9516C276.926 82.6245 276.506 83.144 275.991 83.5102C275.476 83.8763 274.917 84.0594 274.314 84.0594ZM274.907 82.7234C275.145 82.7234 275.382 82.5898 275.62 82.3227C275.857 82.0456 276.065 81.6745 276.243 81.2094C276.421 80.7344 276.55 80.2099 276.629 79.6359C276.362 79.5766 276.229 79.3687 276.229 79.0125C276.229 78.6068 276.382 78.3396 276.689 78.2109C276.669 77.8844 276.619 77.6617 276.54 77.543C276.461 77.4143 276.323 77.35 276.125 77.35C275.798 77.35 275.481 77.5875 275.175 78.0625C274.868 78.5375 274.62 79.1065 274.432 79.7695C274.244 80.4325 274.15 81.0164 274.15 81.5211C274.15 81.9961 274.205 82.3177 274.314 82.4859C274.423 82.6443 274.62 82.7234 274.907 82.7234ZM280.451 84.0891C279.887 84.0891 279.417 83.8961 279.041 83.5102C278.665 83.1242 278.477 82.5206 278.477 81.6992C278.477 80.9669 278.62 80.2 278.907 79.3984C279.204 78.587 279.639 77.9042 280.213 77.35C280.797 76.7859 281.49 76.5039 282.291 76.5039C282.697 76.5039 282.999 76.5732 283.197 76.7117C283.395 76.8502 283.494 77.0333 283.494 77.2609V77.3203L284.221 73.9062L286.418 73.6094L284.711 81.625C284.671 81.7734 284.652 81.9318 284.652 82.1C284.652 82.2979 284.696 82.4414 284.785 82.5305C284.884 82.6096 285.043 82.6492 285.26 82.6492C285.537 82.6492 285.775 82.5305 285.973 82.293C286.181 82.0555 286.344 81.7388 286.463 81.343H287.086C286.482 83.1143 285.488 84 284.102 84C283.697 84 283.365 83.8911 283.108 83.6734C282.861 83.4557 282.707 83.1391 282.648 82.7234C282.39 83.1193 282.079 83.4458 281.713 83.7031C281.356 83.9604 280.936 84.0891 280.451 84.0891ZM281.416 82.6492C281.653 82.6492 281.891 82.5404 282.128 82.3227C282.376 82.1049 282.544 81.8031 282.633 81.4172V81.343L283.36 77.9437C283.271 77.5974 283.068 77.4242 282.752 77.4242C282.356 77.4242 282 77.6568 281.683 78.1219C281.366 78.5771 281.119 79.1312 280.941 79.7844C280.763 80.4276 280.674 80.9966 280.674 81.4914C280.674 81.9862 280.743 82.3029 280.881 82.4414C281.03 82.5799 281.208 82.6492 281.416 82.6492ZM288.636 84.0594C287.903 84.0594 287.324 83.8714 286.899 83.4953C286.473 83.1193 286.261 82.5255 286.261 81.7141C286.261 81.0312 286.394 80.2841 286.661 79.4726C286.929 78.6513 287.364 77.9437 287.968 77.35C288.571 76.7463 289.343 76.4445 290.283 76.4445C291.451 76.4445 292.079 77.1125 292.168 78.4484C292.386 78.3989 292.579 78.2802 292.747 78.0922C292.916 77.8943 293.074 77.6716 293.222 77.4242H293.697C293.43 77.9586 293.193 78.3792 292.985 78.6859C292.777 78.9828 292.505 79.2253 292.168 79.4133C292.109 80.3435 291.916 81.1599 291.589 81.8625C291.273 82.5651 290.857 83.1094 290.343 83.4953C289.828 83.8714 289.259 84.0594 288.636 84.0594ZM289.229 82.7234C289.595 82.7234 289.937 82.4266 290.254 81.8328C290.57 81.2391 290.788 80.5068 290.907 79.6359C290.669 79.5469 290.55 79.3242 290.55 78.968C290.55 78.582 290.689 78.3247 290.966 78.1961C290.946 77.8794 290.892 77.6617 290.803 77.543C290.724 77.4143 290.59 77.35 290.402 77.35C290.075 77.35 289.764 77.5875 289.467 78.0625C289.17 78.5276 288.928 79.0966 288.739 79.7695C288.561 80.4325 288.472 81.0164 288.472 81.5211C288.472 81.9961 288.527 82.3177 288.636 82.4859C288.744 82.6443 288.942 82.7234 289.229 82.7234ZM298.048 76.0289H300.186L299.948 77.1422C300.443 76.7167 301.022 76.5039 301.685 76.5039C302.239 76.5039 302.679 76.687 303.006 77.0531C303.332 77.4193 303.496 78.018 303.496 78.8492C303.496 79.631 303.382 80.4227 303.154 81.2242C302.927 82.0159 302.541 82.6937 301.996 83.2578C301.452 83.812 300.735 84.0891 299.844 84.0891C299.211 84.0891 298.79 83.9109 298.582 83.5547L297.811 87.1766L295.569 87.7109L298.048 76.0289ZM299.384 82.7977C299.859 82.7977 300.25 82.575 300.557 82.1297C300.873 81.6844 301.101 81.1549 301.239 80.5414C301.388 79.918 301.462 79.3391 301.462 78.8047C301.462 77.9833 301.215 77.5726 300.72 77.5726C300.542 77.5726 300.359 77.637 300.171 77.7656C299.993 77.8943 299.834 78.0724 299.696 78.3L298.82 82.4562C298.899 82.6839 299.087 82.7977 299.384 82.7977ZM305.986 84.0891C305.254 84.0891 304.685 83.901 304.279 83.525C303.873 83.1391 303.67 82.5404 303.67 81.7289C303.67 81.0461 303.804 80.294 304.071 79.4726C304.338 78.6513 304.774 77.9437 305.378 77.35C305.981 76.7463 306.748 76.4445 307.678 76.4445C308.767 76.4445 309.311 76.9195 309.311 77.8695C309.311 78.4237 309.153 78.9333 308.836 79.3984C308.519 79.8635 308.099 80.2396 307.574 80.5266C307.05 80.8036 306.491 80.962 305.897 81.0016C305.877 81.2984 305.867 81.4963 305.867 81.5953C305.867 82.0802 305.951 82.4117 306.12 82.5898C306.288 82.7581 306.56 82.8422 306.936 82.8422C307.47 82.8422 307.926 82.7185 308.302 82.4711C308.688 82.2237 309.108 81.8477 309.563 81.343H310.068C308.97 83.1737 307.609 84.0891 305.986 84.0891ZM306.016 80.2891C306.382 80.2693 306.728 80.1406 307.055 79.9031C307.391 79.6656 307.658 79.3638 307.856 78.9976C308.064 78.6315 308.168 78.2456 308.168 77.8398C308.168 77.4341 308.044 77.2312 307.797 77.2312C307.441 77.2312 307.089 77.543 306.743 78.1664C306.407 78.7898 306.164 79.4974 306.016 80.2891ZM310.956 84.0891C310.451 84.0891 310.075 83.9357 309.828 83.6289C309.59 83.3221 309.471 82.9164 309.471 82.4117C309.471 82.1544 309.501 81.8922 309.56 81.625L310.51 77.1719H310.02L310.139 76.5781H310.629L311.074 74.5297L313.271 74.2328C313.182 74.6088 313.133 74.8315 313.123 74.9008C313.054 75.1778 312.935 75.737 312.767 76.5781H313.657L313.538 77.1719H312.648L311.698 81.625C311.648 81.8427 311.624 82.0159 311.624 82.1445C311.624 82.5008 311.797 82.6789 312.143 82.6789C312.321 82.6789 312.45 82.6641 312.529 82.6344C312.331 83.2083 312.099 83.5943 311.831 83.7922C311.564 83.9901 311.272 84.0891 310.956 84.0891ZM321.319 72.8672H322.878L321.082 75.6726H319.968L321.319 72.8672ZM318.989 84.0891C318.266 84.0891 317.702 83.901 317.296 83.525C316.891 83.1391 316.688 82.5404 316.688 81.7289C316.688 81.0461 316.821 80.294 317.089 79.4726C317.356 78.6513 317.791 77.9437 318.395 77.35C318.998 76.7463 319.765 76.4445 320.696 76.4445C321.784 76.4445 322.328 76.9195 322.328 77.8695C322.328 78.4237 322.17 78.9333 321.853 79.3984C321.537 79.8635 321.116 80.2396 320.592 80.5266C320.067 80.8036 319.508 80.962 318.914 81.0016C318.895 81.2193 318.885 81.3677 318.885 81.4469C318.885 82.2682 319.191 82.6789 319.805 82.6789C320.082 82.6789 320.379 82.6047 320.696 82.4562C321.012 82.3078 321.299 82.1198 321.557 81.8922C321.289 83.3568 320.433 84.0891 318.989 84.0891ZM319.018 80.2891C319.394 80.2792 319.746 80.1555 320.072 79.918C320.409 79.6805 320.676 79.3786 320.874 79.0125C321.082 78.6364 321.185 78.2456 321.185 77.8398C321.185 77.4341 321.062 77.2312 320.814 77.2312C320.468 77.2312 320.122 77.5479 319.775 78.1812C319.439 78.8047 319.186 79.5073 319.018 80.2891ZM327.672 84.0891C326.94 84.0891 326.371 83.901 325.965 83.525C325.559 83.1391 325.356 82.5404 325.356 81.7289C325.356 81.0461 325.49 80.294 325.757 79.4726C326.024 78.6513 326.46 77.9437 327.063 77.35C327.667 76.7463 328.434 76.4445 329.364 76.4445C330.453 76.4445 330.997 76.9195 330.997 77.8695C330.997 78.4237 330.839 78.9333 330.522 79.3984C330.205 79.8635 329.785 80.2396 329.26 80.5266C328.736 80.8036 328.177 80.962 327.583 81.0016C327.563 81.2984 327.553 81.4963 327.553 81.5953C327.553 82.0802 327.637 82.4117 327.806 82.5898C327.974 82.7581 328.246 82.8422 328.622 82.8422C329.156 82.8422 329.612 82.7185 329.988 82.4711C330.373 82.2237 330.794 81.8477 331.249 81.343H331.754C330.656 83.1737 329.295 84.0891 327.672 84.0891ZM327.702 80.2891C328.068 80.2693 328.414 80.1406 328.741 79.9031C329.077 79.6656 329.344 79.3638 329.542 78.9976C329.75 78.6315 329.854 78.2456 329.854 77.8398C329.854 77.4341 329.73 77.2312 329.483 77.2312C329.127 77.2312 328.775 77.543 328.429 78.1664C328.092 78.7898 327.85 79.4974 327.702 80.2891ZM332.938 84.0891C332.463 84.0891 332.063 84 331.736 83.8219C331.409 83.6339 331.167 83.3964 331.009 83.1094C330.85 82.8125 330.771 82.5057 330.771 82.1891C330.771 81.8625 330.85 81.5805 331.009 81.343C331.157 81.0956 331.34 80.9174 331.558 80.8086C331.944 80.1159 332.28 79.4182 332.567 78.7156C332.854 78.0031 333.126 77.2362 333.384 76.4148L335.581 76.118C335.63 77.3846 335.714 78.7552 335.833 80.2297C335.882 80.8234 335.907 81.2539 335.907 81.5211C335.907 81.7487 335.887 81.9367 335.848 82.0852C336.313 81.818 336.669 81.5706 336.916 81.343H337.54C336.907 82.0753 336.15 82.6937 335.269 83.1984C334.982 83.5052 334.626 83.7328 334.2 83.8812C333.784 84.0198 333.364 84.0891 332.938 84.0891ZM332.463 82.9164C332.829 82.9164 333.136 82.8075 333.384 82.5898C333.631 82.3721 333.755 82.0208 333.755 81.5359C333.755 81.2391 333.725 80.8234 333.666 80.2891C333.567 79.1609 333.502 78.4039 333.473 78.018C333.235 78.7997 332.834 79.7349 332.27 80.8234C332.498 80.9422 332.612 81.1154 332.612 81.343C332.612 81.531 332.547 81.6992 332.419 81.8477C332.3 81.9961 332.147 82.0703 331.959 82.0703C331.751 82.0703 331.617 82.006 331.558 81.8773C331.558 82.2336 331.627 82.4958 331.766 82.6641C331.914 82.8323 332.147 82.9164 332.463 82.9164ZM338.042 76.0289H340.18L339.942 77.1422C340.437 76.7167 341.016 76.5039 341.679 76.5039C342.233 76.5039 342.673 76.687 343 77.0531C343.327 77.4193 343.49 78.018 343.49 78.8492C343.49 79.631 343.376 80.4227 343.148 81.2242C342.921 82.0159 342.535 82.6937 341.991 83.2578C341.446 83.812 340.729 84.0891 339.838 84.0891C339.205 84.0891 338.784 83.9109 338.577 83.5547L337.805 87.1766L335.563 87.7109L338.042 76.0289ZM339.378 82.7977C339.853 82.7977 340.244 82.575 340.551 82.1297C340.867 81.6844 341.095 81.1549 341.234 80.5414C341.382 79.918 341.456 79.3391 341.456 78.8047C341.456 77.9833 341.209 77.5726 340.714 77.5726C340.536 77.5726 340.353 77.637 340.165 77.7656C339.987 77.8943 339.828 78.0724 339.69 78.3L338.814 82.4562C338.893 82.6839 339.081 82.7977 339.378 82.7977ZM345.98 84.0891C345.248 84.0891 344.679 83.901 344.273 83.525C343.867 83.1391 343.665 82.5404 343.665 81.7289C343.665 81.0461 343.798 80.294 344.065 79.4726C344.333 78.6513 344.768 77.9437 345.372 77.35C345.975 76.7463 346.742 76.4445 347.672 76.4445C348.761 76.4445 349.305 76.9195 349.305 77.8695C349.305 78.4237 349.147 78.9333 348.83 79.3984C348.514 79.8635 348.093 80.2396 347.568 80.5266C347.044 80.8036 346.485 80.962 345.891 81.0016C345.871 81.2984 345.861 81.4963 345.861 81.5953C345.861 82.0802 345.946 82.4117 346.114 82.5898C346.282 82.7581 346.554 82.8422 346.93 82.8422C347.465 82.8422 347.92 82.7185 348.296 82.4711C348.682 82.2237 349.102 81.8477 349.558 81.343H350.062C348.964 83.1737 347.603 84.0891 345.98 84.0891ZM346.01 80.2891C346.376 80.2693 346.722 80.1406 347.049 79.9031C347.385 79.6656 347.653 79.3638 347.851 78.9976C348.058 78.6315 348.162 78.2456 348.162 77.8398C348.162 77.4341 348.039 77.2312 347.791 77.2312C347.435 77.2312 347.084 77.543 346.737 78.1664C346.401 78.7898 346.158 79.4974 346.01 80.2891ZM351.677 84.0891C350.945 84.0891 350.376 83.901 349.97 83.525C349.564 83.1391 349.361 82.5404 349.361 81.7289C349.361 81.0461 349.495 80.294 349.762 79.4726C350.039 78.6513 350.475 77.9437 351.068 77.35C351.672 76.7463 352.434 76.4445 353.354 76.4445C353.948 76.4445 354.369 76.5732 354.616 76.8305C354.873 77.0877 355.002 77.4143 355.002 77.8101C355.002 78.1565 354.928 78.4237 354.779 78.6117C354.631 78.7997 354.443 78.8937 354.215 78.8937C354.047 78.8937 353.874 78.8344 353.696 78.7156C353.815 78.3891 353.874 78.0971 353.874 77.8398C353.874 77.6518 353.839 77.5034 353.77 77.3945C353.701 77.2857 353.597 77.2312 353.458 77.2312C353.161 77.2312 352.865 77.4737 352.568 77.9586C352.271 78.4435 352.028 79.0323 351.84 79.725C351.652 80.4177 351.558 81.0411 351.558 81.5953C351.558 82.0802 351.642 82.4117 351.811 82.5898C351.979 82.7581 352.251 82.8422 352.627 82.8422C353.161 82.8422 353.617 82.7185 353.993 82.4711C354.379 82.2237 354.799 81.8477 355.254 81.343H355.759C354.661 83.1737 353.3 84.0891 351.677 84.0891ZM357.73 75.7765C357.404 75.7765 357.127 75.6627 356.899 75.4351C356.671 75.2075 356.558 74.9305 356.558 74.6039C356.558 74.2773 356.671 74.0002 356.899 73.7726C357.127 73.5351 357.404 73.4164 357.73 73.4164C358.057 73.4164 358.334 73.5351 358.561 73.7726C358.799 74.0002 358.918 74.2773 358.918 74.6039C358.918 74.9305 358.799 75.2075 358.561 75.4351C358.334 75.6627 358.057 75.7765 357.73 75.7765ZM356.721 84.0891C356.246 84.0891 355.86 83.9406 355.563 83.6437C355.276 83.3469 355.133 82.9016 355.133 82.3078C355.133 82.0604 355.172 81.7388 355.251 81.343L356.261 76.5781H358.398L357.329 81.625C357.29 81.7734 357.27 81.9318 357.27 82.1C357.27 82.2979 357.315 82.4414 357.404 82.5305C357.503 82.6096 357.661 82.6492 357.879 82.6492C358.166 82.6492 358.433 82.5305 358.68 82.293C358.928 82.0456 359.106 81.7289 359.215 81.343H359.838C359.472 82.4117 359.002 83.1391 358.428 83.525C357.854 83.901 357.285 84.0891 356.721 84.0891ZM360.99 84.0891C360.426 84.0891 359.956 83.8961 359.58 83.5102C359.204 83.1242 359.016 82.5206 359.016 81.6992C359.016 80.9669 359.159 80.2 359.446 79.3984C359.743 78.587 360.178 77.9042 360.752 77.35C361.336 76.7859 362.029 76.5039 362.831 76.5039C363.236 76.5039 363.538 76.5732 363.736 76.7117C363.934 76.8502 364.033 77.0333 364.033 77.2609V77.3648L364.196 76.5781H366.334L365.265 81.625C365.225 81.7734 365.206 81.9318 365.206 82.1C365.206 82.5255 365.408 82.7383 365.814 82.7383C366.091 82.7383 366.329 82.6096 366.527 82.3523C366.734 82.095 366.898 81.7586 367.017 81.343H367.64C367.274 82.4117 366.819 83.1391 366.274 83.525C365.74 83.901 365.201 84.0891 364.656 84.0891C364.241 84.0891 363.904 83.9753 363.647 83.7477C363.4 83.5102 363.251 83.1687 363.202 82.7234C362.915 83.1292 362.593 83.4607 362.237 83.718C361.89 83.9654 361.475 84.0891 360.99 84.0891ZM361.955 82.6492C362.202 82.6492 362.445 82.5354 362.682 82.3078C362.93 82.0703 363.098 81.7487 363.187 81.343L363.899 77.9883C363.899 77.8596 363.85 77.7359 363.751 77.6172C363.652 77.4885 363.499 77.4242 363.291 77.4242C362.895 77.4242 362.539 77.6568 362.222 78.1219C361.905 78.5771 361.658 79.1312 361.48 79.7844C361.302 80.4276 361.213 80.9966 361.213 81.4914C361.213 81.9862 361.282 82.3029 361.42 82.4414C361.569 82.5799 361.747 82.6492 361.955 82.6492ZM368.462 84.0891C367.987 84.0891 367.601 83.9406 367.304 83.6437C367.017 83.337 366.874 82.8818 366.874 82.2781C366.874 82.0307 366.913 81.7091 366.992 81.3133L368.581 73.8765L370.777 73.5797L369.07 81.5953C369.031 81.7437 369.011 81.8872 369.011 82.0258C369.011 82.4216 369.214 82.6195 369.62 82.6195C369.798 82.6195 369.956 82.5898 370.095 82.5305C370.055 83.0253 369.877 83.4112 369.56 83.6883C369.253 83.9555 368.887 84.0891 368.462 84.0891ZM371.728 84.0594C371.401 84.0594 371.124 83.9456 370.897 83.718C370.669 83.4904 370.555 83.2133 370.555 82.8867C370.555 82.5602 370.669 82.2831 370.897 82.0555C371.124 81.818 371.401 81.6992 371.728 81.6992C372.054 81.6992 372.332 81.818 372.559 82.0555C372.797 82.2831 372.915 82.5602 372.915 82.8867C372.915 83.2133 372.797 83.4904 372.559 83.718C372.332 83.9456 372.054 84.0594 371.728 84.0594ZM380.449 85.6922C380.082 85.6922 379.761 85.6625 379.484 85.6031C379.207 85.5438 378.964 85.4003 378.756 85.1727C378.558 84.9451 378.459 84.5938 378.459 84.1188C378.459 83.4557 378.657 82.5651 379.053 81.4469C379.459 80.3286 379.988 79.2055 380.641 78.0773C380.147 78.107 379.756 78.1812 379.469 78.3C379.182 78.4187 378.994 78.6018 378.905 78.8492C378.944 78.8492 378.984 78.8987 379.024 78.9976C379.073 79.0966 379.098 79.2005 379.098 79.3094C379.098 79.4875 379.019 79.631 378.86 79.7398C378.702 79.8388 378.504 79.8883 378.266 79.8883C377.989 79.8883 377.767 79.8141 377.599 79.6656C377.43 79.5172 377.346 79.3044 377.346 79.0273C377.346 78.6909 377.475 78.3841 377.732 78.107C377.999 77.8299 378.365 77.6122 378.831 77.4539C379.296 77.2857 379.81 77.2016 380.374 77.2016C380.582 77.2016 380.839 77.2164 381.146 77.2461C381.958 75.9596 382.814 74.9107 383.714 74.0992C384.625 73.2778 385.49 72.8672 386.312 72.8672C386.787 72.8672 387.178 72.9364 387.484 73.075L385.154 84H383.016L384.159 78.6117C383.793 78.4435 383.457 78.3198 383.15 78.2406C382.843 78.1614 382.517 78.107 382.17 78.0773C381.606 79.2945 381.141 80.5414 380.775 81.818C380.419 83.0846 380.241 84.099 380.241 84.8609C380.241 85.237 380.31 85.5141 380.449 85.6922ZM385.154 73.9211C384.728 74.1487 384.283 74.5742 383.818 75.1976C383.363 75.8112 382.918 76.5583 382.482 77.4391C383.195 77.5776 383.798 77.7508 384.293 77.9586L385.154 73.9211ZM388.597 84.0891C388.122 84.0891 387.736 83.9406 387.439 83.6437C387.152 83.3469 387.009 82.9016 387.009 82.3078C387.009 82.0604 387.049 81.7388 387.128 81.343L388.716 73.9062L390.913 73.6094L389.206 81.625C389.166 81.7734 389.146 81.9318 389.146 82.1C389.146 82.2979 389.191 82.4414 389.28 82.5305C389.379 82.6096 389.537 82.6492 389.755 82.6492C390.042 82.6492 390.309 82.5305 390.557 82.293C390.804 82.0456 390.982 81.7289 391.091 81.343H391.714C391.348 82.4117 390.878 83.1391 390.304 83.525C389.73 83.901 389.161 84.0891 388.597 84.0891ZM393.712 87.7109C393.237 87.7109 392.842 87.5872 392.525 87.3398C392.208 87.0925 392.05 86.7362 392.05 86.2711C392.05 85.707 392.278 85.2518 392.733 84.9055C393.188 84.569 393.767 84.287 394.469 84.0594L394.648 83.2727C394.143 83.8169 393.549 84.0891 392.866 84.0891C392.302 84.0891 391.832 83.8961 391.456 83.5102C391.08 83.1242 390.892 82.5206 390.892 81.6992C390.892 80.9669 391.036 80.2 391.323 79.3984C391.619 78.587 392.055 77.9042 392.629 77.35C393.213 76.7859 393.905 76.5039 394.707 76.5039C395.113 76.5039 395.415 76.5732 395.612 76.7117C395.81 76.8502 395.909 77.0333 395.909 77.2609V77.35L396.073 76.5781H398.21L396.741 83.4656C397.216 83.3073 397.597 83.0698 397.884 82.7531C398.171 82.4365 398.413 81.9664 398.611 81.343H399.234C398.967 82.2237 398.606 82.8719 398.151 83.2875C397.696 83.6932 397.181 83.9703 396.607 84.1188L396.384 85.1875C396.186 86.1474 395.845 86.8055 395.36 87.1617C394.875 87.5279 394.326 87.7109 393.712 87.7109ZM393.831 82.6492C394.059 82.6492 394.291 82.5453 394.529 82.3375C394.766 82.1297 394.93 81.8477 395.019 81.4914L395.776 77.9734C395.776 77.8547 395.726 77.7359 395.627 77.6172C395.528 77.4885 395.375 77.4242 395.167 77.4242C394.771 77.4242 394.415 77.6568 394.098 78.1219C393.782 78.5771 393.534 79.1312 393.356 79.7844C393.178 80.4276 393.089 80.9966 393.089 81.4914C393.089 81.9862 393.158 82.3029 393.297 82.4414C393.445 82.5799 393.623 82.6492 393.831 82.6492ZM393.371 86.5531C393.539 86.5531 393.703 86.4393 393.861 86.2117C394.019 85.9841 394.143 85.6576 394.232 85.232L394.321 84.8016C393.351 85.1578 392.866 85.5784 392.866 86.0633C392.866 86.1919 392.911 86.3057 393 86.4047C393.089 86.5037 393.213 86.5531 393.371 86.5531ZM400.078 84.0891C399.603 84.0891 399.217 83.9406 398.92 83.6437C398.633 83.3469 398.49 82.9016 398.49 82.3078C398.49 82.0604 398.529 81.7388 398.608 81.343L399.618 76.5781H401.755L400.687 81.625C400.657 81.7734 400.642 81.912 400.642 82.0406C400.642 82.4464 400.791 82.6492 401.087 82.6492C401.364 82.6492 401.602 82.5354 401.8 82.3078C401.998 82.0703 402.156 81.7487 402.275 81.343L403.284 76.5781H405.422L404.353 81.625C404.313 81.7734 404.294 81.9318 404.294 82.1C404.294 82.2979 404.338 82.4414 404.427 82.5305C404.526 82.6096 404.685 82.6492 404.902 82.6492C405.179 82.6492 405.417 82.5305 405.615 82.293C405.823 82.0555 405.986 81.7388 406.105 81.343H406.728C406.362 82.4117 405.907 83.1391 405.362 83.525C404.828 83.901 404.289 84.0891 403.744 84.0891C403.319 84.0891 402.977 83.9703 402.72 83.7328C402.473 83.4953 402.324 83.144 402.275 82.6789C401.938 83.2232 401.582 83.5943 401.206 83.7922C400.84 83.9901 400.464 84.0891 400.078 84.0891ZM411.461 84.0891C410.858 84.0891 410.412 83.9307 410.125 83.6141C409.848 83.2875 409.71 82.8867 409.71 82.4117C409.71 82.2039 409.735 81.9714 409.784 81.7141C409.834 81.4469 409.883 81.1896 409.933 80.9422C409.992 80.6948 410.031 80.5365 410.051 80.4672C410.13 80.1208 410.205 79.7794 410.274 79.443C410.343 79.1065 410.378 78.8344 410.378 78.6266C410.378 78.1219 410.2 77.8695 409.843 77.8695C409.586 77.8695 409.359 77.9982 409.161 78.2555C408.963 78.5029 408.804 78.8294 408.686 79.2351L407.676 84H405.539L407.112 76.5781H409.25L409.086 77.35C409.581 76.7958 410.16 76.5187 410.823 76.5187C411.328 76.5187 411.729 76.6573 412.025 76.9344C412.322 77.2114 412.471 77.632 412.471 78.1961C412.471 78.4831 412.436 78.8047 412.367 79.1609C412.298 79.5073 412.199 79.9328 412.07 80.4375C411.991 80.7443 411.917 81.0461 411.847 81.343C411.788 81.6299 411.758 81.8575 411.758 82.0258C411.758 82.2237 411.803 82.3771 411.892 82.4859C411.981 82.5948 412.134 82.6492 412.352 82.6492C412.649 82.6492 412.886 82.5453 413.065 82.3375C413.243 82.1198 413.421 81.7883 413.599 81.343H414.222C413.856 82.4315 413.431 83.1638 412.946 83.5398C412.471 83.906 411.976 84.0891 411.461 84.0891ZM415.289 84.0891C414.814 84.0891 414.414 84 414.087 83.8219C413.76 83.6339 413.518 83.3964 413.36 83.1094C413.201 82.8125 413.122 82.5057 413.122 82.1891C413.122 81.8625 413.201 81.5805 413.36 81.343C413.508 81.0956 413.691 80.9174 413.909 80.8086C414.295 80.1159 414.631 79.4182 414.918 78.7156C415.205 78.0031 415.477 77.2362 415.735 76.4148L417.932 76.118C417.981 77.3846 418.065 78.7552 418.184 80.2297C418.233 80.8234 418.258 81.2539 418.258 81.5211C418.258 82.1247 418.105 82.6195 417.798 83.0055C417.491 83.3914 417.11 83.6685 416.655 83.8367C416.21 84.0049 415.754 84.0891 415.289 84.0891ZM414.814 82.9164C415.181 82.9164 415.487 82.8075 415.735 82.5898C415.982 82.3721 416.106 82.0208 416.106 81.5359C416.106 81.2391 416.076 80.8234 416.017 80.2891C415.918 79.1609 415.853 78.4039 415.824 78.018C415.586 78.7997 415.185 79.7349 414.621 80.8234C414.849 80.9422 414.963 81.1154 414.963 81.343C414.963 81.531 414.899 81.6992 414.77 81.8477C414.651 81.9961 414.498 82.0703 414.31 82.0703C414.102 82.0703 413.968 82.006 413.909 81.8773C413.909 82.2336 413.978 82.4958 414.117 82.6641C414.265 82.8323 414.498 82.9164 414.814 82.9164ZM418.902 85.8703C418.813 85.8109 418.769 85.7268 418.769 85.618C418.769 85.4992 418.799 85.3953 418.858 85.3063C418.917 85.2172 419.016 85.0984 419.155 84.95C419.293 84.8016 419.392 84.6828 419.452 84.5938C419.511 84.5047 419.541 84.3958 419.541 84.2672C419.541 84.1583 419.476 84.0594 419.348 83.9703C418.883 83.6734 418.65 83.3122 418.65 82.8867C418.65 82.5602 418.764 82.2831 418.992 82.0555C419.219 81.818 419.496 81.6992 419.823 81.6992C420.139 81.6992 420.387 81.8031 420.565 82.0109C420.743 82.2187 420.832 82.4909 420.832 82.8273C420.832 83.2924 420.654 83.8169 420.298 84.4008C419.951 84.9846 419.486 85.4745 418.902 85.8703ZM433.741 84.0891C433.137 84.0891 432.692 83.9307 432.405 83.6141C432.128 83.2875 431.989 82.8867 431.989 82.4117C431.989 82.2039 432.014 81.9714 432.063 81.7141C432.113 81.4469 432.162 81.1896 432.212 80.9422C432.271 80.6948 432.311 80.5365 432.33 80.4672C432.41 80.1208 432.484 79.7794 432.553 79.443C432.622 79.1065 432.657 78.8344 432.657 78.6266C432.657 78.1219 432.479 77.8695 432.123 77.8695C431.865 77.8695 431.638 77.9982 431.44 78.2555C431.242 78.5029 431.084 78.8294 430.965 79.2351L429.955 84H427.818L428.901 78.8789C428.931 78.7601 428.946 78.6364 428.946 78.5078C428.946 78.0724 428.798 77.8547 428.501 77.8547C428.224 77.8547 427.981 77.9833 427.773 78.2406C427.575 78.488 427.417 78.8195 427.298 79.2351L426.289 84H424.151L425.725 76.5781H427.862L427.699 77.35C428.204 76.7859 428.807 76.5039 429.51 76.5039C430.381 76.5039 430.891 76.9294 431.039 77.7805C431.583 76.9393 432.271 76.5187 433.102 76.5187C433.607 76.5187 434.008 76.6573 434.305 76.9344C434.601 77.2114 434.75 77.632 434.75 78.1961C434.75 78.4831 434.715 78.8047 434.646 79.1609C434.577 79.5073 434.478 79.9328 434.349 80.4375C434.27 80.7443 434.196 81.0461 434.126 81.343C434.067 81.6299 434.037 81.8575 434.037 82.0258C434.037 82.2237 434.082 82.3771 434.171 82.4859C434.26 82.5948 434.413 82.6492 434.631 82.6492C434.928 82.6492 435.166 82.5453 435.344 82.3375C435.522 82.1198 435.7 81.7883 435.878 81.343H436.501C436.135 82.4315 435.71 83.1638 435.225 83.5398C434.75 83.906 434.255 84.0891 433.741 84.0891ZM437.659 84.0891C437.095 84.0891 436.625 83.8961 436.248 83.5102C435.872 83.1242 435.684 82.5206 435.684 81.6992C435.684 80.9669 435.828 80.2 436.115 79.3984C436.412 78.587 436.847 77.9042 437.421 77.35C438.005 76.7859 438.698 76.5039 439.499 76.5039C439.905 76.5039 440.207 76.5732 440.405 76.7117C440.603 76.8502 440.702 77.0333 440.702 77.2609V77.3648L440.865 76.5781H443.002L441.934 81.625C441.894 81.7734 441.874 81.9318 441.874 82.1C441.874 82.5255 442.077 82.7383 442.483 82.7383C442.76 82.7383 442.997 82.6096 443.195 82.3523C443.403 82.095 443.566 81.7586 443.685 81.343H444.309C443.942 82.4117 443.487 83.1391 442.943 83.525C442.409 83.901 441.869 84.0891 441.325 84.0891C440.909 84.0891 440.573 83.9753 440.316 83.7477C440.068 83.5102 439.92 83.1687 439.87 82.7234C439.583 83.1292 439.262 83.4607 438.905 83.718C438.559 83.9654 438.144 84.0891 437.659 84.0891ZM438.623 82.6492C438.871 82.6492 439.113 82.5354 439.351 82.3078C439.598 82.0703 439.766 81.7487 439.855 81.343L440.568 77.9883C440.568 77.8596 440.519 77.7359 440.42 77.6172C440.321 77.4885 440.167 77.4242 439.959 77.4242C439.564 77.4242 439.207 77.6568 438.891 78.1219C438.574 78.5771 438.327 79.1312 438.148 79.7844C437.97 80.4276 437.881 80.9966 437.881 81.4914C437.881 81.9862 437.951 82.3029 438.089 82.4414C438.238 82.5799 438.416 82.6492 438.623 82.6492ZM446.17 75.7765C445.843 75.7765 445.566 75.6627 445.338 75.4351C445.111 75.2075 444.997 74.9305 444.997 74.6039C444.997 74.2773 445.111 74.0002 445.338 73.7726C445.566 73.5351 445.843 73.4164 446.17 73.4164C446.496 73.4164 446.773 73.5351 447.001 73.7726C447.238 74.0002 447.357 74.2773 447.357 74.6039C447.357 74.9305 447.238 75.2075 447.001 75.4351C446.773 75.6627 446.496 75.7765 446.17 75.7765ZM445.16 84.0891C444.685 84.0891 444.299 83.9406 444.002 83.6437C443.715 83.3469 443.572 82.9016 443.572 82.3078C443.572 82.0604 443.611 81.7388 443.691 81.343L444.7 76.5781H446.838L445.769 81.625C445.729 81.7734 445.709 81.9318 445.709 82.1C445.709 82.2979 445.754 82.4414 445.843 82.5305C445.942 82.6096 446.1 82.6492 446.318 82.6492C446.605 82.6492 446.872 82.5305 447.12 82.293C447.367 82.0456 447.545 81.7289 447.654 81.343H448.277C447.911 82.4117 447.441 83.1391 446.867 83.525C446.293 83.901 445.724 84.0891 445.16 84.0891ZM449.34 84.0891C448.865 84.0891 448.464 84 448.138 83.8219C447.811 83.6339 447.569 83.3964 447.411 83.1094C447.252 82.8125 447.173 82.5057 447.173 82.1891C447.173 81.8625 447.252 81.5805 447.411 81.343C447.559 81.0956 447.742 80.9174 447.96 80.8086C448.346 80.1159 448.682 79.4182 448.969 78.7156C449.256 78.0031 449.528 77.2362 449.786 76.4148L451.982 76.118C452.032 77.3846 452.116 78.7552 452.235 80.2297C452.284 80.8234 452.309 81.2539 452.309 81.5211C452.309 82.1247 452.156 82.6195 451.849 83.0055C451.542 83.3914 451.161 83.6685 450.706 83.8367C450.261 84.0049 449.805 84.0891 449.34 84.0891ZM448.865 82.9164C449.231 82.9164 449.538 82.8075 449.786 82.5898C450.033 82.3721 450.157 82.0208 450.157 81.5359C450.157 81.2391 450.127 80.8234 450.068 80.2891C449.969 79.1609 449.904 78.4039 449.875 78.018C449.637 78.7997 449.236 79.7349 448.672 80.8234C448.9 80.9422 449.014 81.1154 449.014 81.343C449.014 81.531 448.949 81.6992 448.821 81.8477C448.702 81.9961 448.549 82.0703 448.361 82.0703C448.153 82.0703 448.019 82.006 447.96 81.8773C447.96 82.2336 448.029 82.4958 448.168 82.6641C448.316 82.8323 448.549 82.9164 448.865 82.9164ZM453.977 84.0594C453.651 84.0594 453.374 83.9456 453.146 83.718C452.919 83.4904 452.805 83.2133 452.805 82.8867C452.805 82.5602 452.919 82.2831 453.146 82.0555C453.374 81.818 453.651 81.6992 453.977 81.6992C454.304 81.6992 454.581 81.818 454.809 82.0555C455.046 82.2831 455.165 82.5602 455.165 82.8867C455.165 83.2133 455.046 83.4904 454.809 83.718C454.581 83.9456 454.304 84.0594 453.977 84.0594Z" fill="#4D4D4D"/>
</g>
<defs>
<filter id="filter0_d_38_33996" x="195.604" y="28.72" width="342.197" height="32.592" filterUnits="userSpaceOnUse" color-interpolation-filters="sRGB">
<feFlood flood-opacity="0" result="BackgroundImageFix"/>
<feColorMatrix in="SourceAlpha" type="matrix" values="0 0 0 0 0 0 0 0 0 0 0 0 0 0 0 0 0 0 127 0" result="hardAlpha"/>
<feOffset dy="2.016"/>
<feGaussianBlur stdDeviation="1.344"/>
<feComposite in2="hardAlpha" operator="out"/>
<feColorMatrix type="matrix" values="0 0 0 0 0 0 0 0 0 0 0 0 0 0 0 0 0 0 0.25 0"/>
<feBlend mode="normal" in2="BackgroundImageFix" result="effect1_dropShadow_38_33996"/>
<feBlend mode="normal" in="SourceGraphic" in2="effect1_dropShadow_38_33996" result="shape"/>
</filter>
<filter id="filter1_d_38_33996" x="264.161" y="72.8672" width="191.931" height="16.6992" filterUnits="userSpaceOnUse" color-interpolation-filters="sRGB">
<feFlood flood-opacity="0" result="BackgroundImageFix"/>
<feColorMatrix in="SourceAlpha" type="matrix" values="0 0 0 0 0 0 0 0 0 0 0 0 0 0 0 0 0 0 127 0" result="hardAlpha"/>
<feOffset dy="0.927736"/>
<feGaussianBlur stdDeviation="0.463868"/>
<feComposite in2="hardAlpha" operator="out"/>
<feColorMatrix type="matrix" values="0 0 0 0 0 0 0 0 0 0 0 0 0 0 0 0 0 0 0.25 0"/>
<feBlend mode="normal" in2="BackgroundImageFix" result="effect1_dropShadow_38_33996"/>
<feBlend mode="normal" in="SourceGraphic" in2="effect1_dropShadow_38_33996" result="shape"/>
</filter>
</defs>
</svg>
