<svg width="32" height="32" viewBox="0 0 32 32" fill="none" xmlns="http://www.w3.org/2000/svg">
<path d="M16.0052 0C9.32537 0 7.37177 0.00689433 6.99203 0.0384047C5.62121 0.152384 4.7682 0.368272 3.8389 0.83108C3.12272 1.1868 2.5579 1.59915 2.00046 2.17717C0.985269 3.23129 0.370008 4.52814 0.14728 6.06968C0.0389929 6.81805 0.00749261 6.97068 0.00109381 10.7933C-0.00136726 12.0675 0.00109381 13.7444 0.00109381 15.9937C0.00109381 22.67 0.00847043 24.6221 0.0404644 25.0013C0.151213 26.3355 0.360413 27.175 0.803407 28.0932C1.65002 29.8509 3.26694 31.1704 5.17182 31.6627C5.83139 31.8326 6.55987 31.9261 7.49507 31.9705C7.89131 31.9877 11.9299 32 15.971 32C20.0121 32 24.0532 31.9951 24.4396 31.9754C25.5224 31.9244 26.1512 31.84 26.8465 31.6603C28.7637 31.1655 30.3511 29.8657 31.2149 28.0834C31.6493 27.1873 31.8696 26.3158 31.9692 25.0512C31.9909 24.7755 32 20.3796 32 15.9895C32 11.5988 31.9901 7.21095 31.9685 6.93523C31.8676 5.6502 31.6473 4.78613 31.1989 3.87282C30.831 3.12519 30.4224 2.56687 29.8293 1.99599C28.7708 0.984707 27.4763 0.369264 25.9337 0.146722C25.1863 0.0386515 25.0374 0.00664672 21.2129 0H16.0052Z" fill="url(#paint0_radial_38_33842)"/>
<path d="M16.0052 0C9.32537 0 7.37177 0.00689433 6.99203 0.0384047C5.62121 0.152384 4.7682 0.368272 3.8389 0.83108C3.12272 1.1868 2.5579 1.59915 2.00046 2.17717C0.985269 3.23129 0.370008 4.52814 0.14728 6.06968C0.0389929 6.81805 0.00749261 6.97068 0.00109381 10.7933C-0.00136726 12.0675 0.00109381 13.7444 0.00109381 15.9937C0.00109381 22.67 0.00847043 24.6221 0.0404644 25.0013C0.151213 26.3355 0.360413 27.175 0.803407 28.0932C1.65002 29.8509 3.26694 31.1704 5.17182 31.6627C5.83139 31.8326 6.55987 31.9261 7.49507 31.9705C7.89131 31.9877 11.9299 32 15.971 32C20.0121 32 24.0532 31.9951 24.4396 31.9754C25.5224 31.9244 26.1512 31.84 26.8465 31.6603C28.7637 31.1655 30.3511 29.8657 31.2149 28.0834C31.6493 27.1873 31.8696 26.3158 31.9692 25.0512C31.9909 24.7755 32 20.3796 32 15.9895C32 11.5988 31.9901 7.21095 31.9685 6.93523C31.8676 5.6502 31.6473 4.78613 31.1989 3.87282C30.831 3.12519 30.4224 2.56687 29.8293 1.99599C28.7708 0.984707 27.4763 0.369264 25.9337 0.146722C25.1863 0.0386515 25.0374 0.00664672 21.2129 0H16.0052Z" fill="url(#paint1_radial_38_33842)"/>
<path d="M15.9977 4.18506C12.7895 4.18506 12.3868 4.19909 11.1268 4.25644C9.86917 4.31405 9.01075 4.51321 8.25963 4.80542C7.48267 5.10723 6.82358 5.51095 6.16697 6.16799C5.50986 6.82479 5.10625 7.48405 4.80353 8.26097C4.51067 9.01255 4.31132 9.87145 4.25472 11.1289C4.19836 12.3893 4.18359 12.7923 4.18359 16.0014C4.18359 19.2106 4.19786 19.6121 4.25496 20.8725C4.31279 22.1304 4.51189 22.9891 4.80377 23.7404C5.10575 24.5176 5.50937 25.1769 6.16623 25.8337C6.8226 26.4909 7.48167 26.8956 8.25814 27.1975C9.00976 27.4897 9.86844 27.6888 11.1258 27.7464C12.3859 27.8038 12.7883 27.8178 15.9963 27.8178C19.2048 27.8178 19.6062 27.8038 20.8662 27.7464C22.1238 27.6888 22.9833 27.4897 23.7349 27.1975C24.5116 26.8956 25.1697 26.4909 25.826 25.8337C26.4832 25.1769 26.8868 24.5176 27.1895 23.7407C27.4799 22.9891 27.6792 22.1302 27.7383 20.8728C27.7949 19.6123 27.8097 19.2106 27.8097 16.0014C27.8097 12.7923 27.7949 12.3896 27.7383 11.1292C27.6792 9.8712 27.4799 9.01254 27.1895 8.26121C26.8868 7.48404 26.4832 6.82479 25.826 6.16799C25.1689 5.51071 24.5118 5.10699 23.7341 4.80542C22.981 4.51321 22.1221 4.31405 20.8645 4.25644C19.6044 4.19909 19.2033 4.18506 15.9941 4.18506H15.9977ZM14.938 6.31448C15.2525 6.31398 15.6035 6.31448 15.9977 6.31448C19.1519 6.31448 19.5257 6.3258 20.7712 6.38242C21.923 6.4351 22.5481 6.6276 22.9645 6.78934C23.5158 7.00351 23.9089 7.25954 24.3221 7.67311C24.7355 8.08668 24.9915 8.48057 25.2061 9.032C25.3678 9.44803 25.5605 10.0733 25.6129 11.2254C25.6695 12.4711 25.6818 12.8452 25.6818 15.9987C25.6818 19.1522 25.6695 19.5264 25.6129 20.7721C25.5602 21.9242 25.3678 22.5494 25.2061 22.9655C24.992 23.5169 24.7355 23.9096 24.3221 24.3229C23.9086 24.7365 23.5161 24.9925 22.9645 25.2067C22.5486 25.3691 21.923 25.5611 20.7712 25.6138C19.5259 25.6704 19.1519 25.6828 15.9977 25.6828C12.8434 25.6828 12.4695 25.6704 11.2242 25.6138C10.0725 25.5606 9.44735 25.3681 9.03069 25.2064C8.4794 24.9922 8.08563 24.7362 7.67217 24.3226C7.25871 23.9091 7.00276 23.5162 6.78815 22.9645C6.62646 22.5484 6.43375 21.9232 6.38133 20.7711C6.32473 19.5254 6.31341 19.1512 6.31341 15.9958C6.31341 12.8403 6.32473 12.4681 6.38133 11.2224C6.434 10.0703 6.62646 9.44507 6.78815 9.02854C7.00227 8.47711 7.25871 8.08324 7.67217 7.66967C8.08563 7.25609 8.4794 7.00006 9.03069 6.7854C9.4471 6.62292 10.0725 6.43091 11.2242 6.37799C12.314 6.32875 12.7363 6.31398 14.938 6.31152V6.31448ZM22.3035 8.27648C21.5209 8.27648 20.8859 8.91087 20.8859 9.69395C20.8859 10.4768 21.5209 11.1119 22.3035 11.1119C23.0861 11.1119 23.7211 10.4768 23.7211 9.69395C23.7211 8.91112 23.0861 8.27598 22.3035 8.27598V8.27648ZM15.9977 9.93323C12.6475 9.93323 9.93119 12.6503 9.93119 16.0014C9.93119 19.3526 12.6475 22.0684 15.9977 22.0684C19.348 22.0684 22.0633 19.3526 22.0633 16.0014C22.0633 12.6503 19.3478 9.93323 15.9975 9.93323H15.9977ZM15.9977 12.0626C18.1723 12.0626 19.9355 13.826 19.9355 16.0014C19.9355 18.1766 18.1723 19.9402 15.9977 19.9402C13.8229 19.9402 12.06 18.1766 12.06 16.0014C12.06 13.826 13.8229 12.0626 15.9977 12.0626Z" fill="#DEB084"/>
<defs>
<radialGradient id="paint0_radial_38_33842" cx="0" cy="0" r="1" gradientUnits="userSpaceOnUse" gradientTransform="translate(8.50005 34.4647) rotate(-90) scale(31.7144 29.4969)">
<stop stop-color="#FFDD55"/>
<stop offset="0.1" stop-color="#FFDD55"/>
<stop offset="0.5" stop-color="#FF543E"/>
<stop offset="1" stop-color="#C837AB"/>
</radialGradient>
<radialGradient id="paint1_radial_38_33842" cx="0" cy="0" r="1" gradientUnits="userSpaceOnUse" gradientTransform="translate(-5.36017 2.30522) rotate(78.6806) scale(14.1765 58.436)">
<stop stop-color="#3771C8"/>
<stop offset="0.128" stop-color="#3771C8"/>
<stop offset="1" stop-color="#6600FF" stop-opacity="0"/>
</radialGradient>
</defs>
</svg>
