<svg width="340" height="190" viewBox="0 0 340 190" fill="none" xmlns="http://www.w3.org/2000/svg">
<path d="M102.53 17.9987C104.858 17.1616 108.021 15.813 110.679 15.6705C112.828 15.4914 115.156 15.2252 117.132 15.2252L117.305 16.1421C113.542 16.2126 109.605 15.6355 106.033 17.1616C103.411 17.8797 101.058 19.3801 99.3072 21.464C97.3387 23.5735 96.2872 26.6384 93.5236 27.9015C93.4314 27.8131 92.9615 27.4459 93.0556 27.3886L95.0081 26.5055L95.9922 25.3239C95.8674 25.0052 99.8459 19.4582 102.53 17.9987Z" fill="#5C4635"/>
<path d="M194.87 48.9967C201.096 48.4645 207.399 48.4197 213.619 49.0352C210.721 49.4648 207.79 49.0609 204.879 49.1186C201.545 49.0352 198.192 49.452 194.87 48.9967Z" fill="#C97734"/>
<path d="M230.912 89.0264C232.553 89.0456 234.015 88.0902 235.657 88.2185C239.619 88.5455 243.659 90.7576 245.198 94.6047C248.019 99.8817 244.954 106.858 239.529 109.032C232.919 112.122 224.878 106.518 224.519 99.465C224.404 96.7784 225.616 94.2521 227.02 92.0336C227.353 92.04 228.026 92.0592 228.36 92.0656C230.13 94.5727 232.431 96.7207 233.778 99.5163C234.105 101.068 235.996 100.497 237.093 100.241C237.202 99.6766 237.228 99.1123 237.17 98.5545C235.278 96.5604 234.124 94.002 232.188 92.0464C231.63 91.1423 230.181 90.2318 230.912 89.0264Z" fill="#C97734"/>
<path d="M254.758 90.889L255.918 89.9112C257.585 91.309 259.483 92.3926 261.138 93.816C259.009 94.0148 256.63 91.4404 254.758 90.889Z" fill="#B85300"/>
<path d="M129.488 97.6183C130.809 99.0738 132.405 100.305 133.431 102.004C132.136 103.056 130.745 103.966 129.385 104.922C127.584 104.479 125.743 104.973 123.929 104.966C123.737 102.889 125.436 100.985 126.994 99.715C127.712 98.7661 129.552 99.1187 129.488 97.6183Z" fill="#C97734"/>
<path d="M117.132 15.2252C118.36 15.2295 119.495 15.8409 120.563 15.9753C124.525 17.5976 127.827 20.438 130.886 23.3683C132.688 25.3175 134.759 27.4527 135.188 30.1329C134.964 31.8705 135.047 33.6209 135.15 35.3586C135.297 37.7695 134.778 40.1996 135.252 42.5912C135.284 44.4763 135.015 46.355 135.137 48.2337C135.496 49.0737 136.689 49.343 136.65 50.4074C135.862 49.8752 135.066 49.3494 134.265 48.8428C134.464 42.6553 135.31 36.4165 134.534 30.2226C133.316 26.0934 129.847 23.2401 126.673 20.5727C123.999 18.5594 121.14 16.0779 117.588 16.1613L117.305 16.1421L117.132 15.2252Z" fill="#5B4843"/>
<path d="M106.033 17.1616C109.605 15.6355 113.542 16.2126 117.305 16.1421L117.588 16.1613C117.876 19.7263 119.627 22.9066 120.492 26.3242C120.896 32.1783 117.62 37.3655 115.087 42.3989C113.003 46.9385 109.605 51.5807 111.112 56.8513C112.529 60.0573 115.645 62.4105 119.037 63.1927C123.121 63.789 128.045 63.5582 130.815 60.0316C133.136 56.8193 134.214 52.7734 134.265 48.8428C135.066 49.3494 135.862 49.8752 136.65 50.4074C136.663 50.4202 136.682 50.4458 136.689 50.4586C139.023 53.7736 143.408 54.4084 147.185 54.5366C151.276 53.9852 155.431 53.5171 159.361 52.1835C163.311 52.1578 167.145 51.1127 171.076 50.8562C171.448 55.9857 173.474 60.9422 176.334 65.1933C180.27 71.073 187.074 74.5675 194.011 75.3177C197.377 75.5164 200.833 75.0804 204.097 76.132C207.938 77.2348 211.875 78.498 215.158 80.8447C205.912 81.1333 196.461 79.9471 187.452 82.5631C182.887 83.1915 178.494 84.8586 174.384 86.9104C169.947 89.4752 165.19 91.418 160.637 93.7199C159.439 94.0904 157.966 94.7242 156.335 95.092C151.911 96.5411 147.48 97.8748 142.831 98.439C142.28 99.1379 141.671 99.8368 141.491 100.741C140.696 103.569 139.471 106.249 138.625 109.064C134.848 109.269 131.046 109.461 127.263 109.32C127.654 107.717 128.898 106.492 129.385 104.922C130.745 103.966 132.136 103.056 133.431 102.004C132.405 100.305 130.809 99.0738 129.488 97.6183C126.141 94.5278 122.736 91.4949 119.601 88.18C112.477 79.9535 107.425 69.7521 106.45 58.839C106.719 54.9726 106.873 51.0485 106.655 47.1822L106.162 47.0667C101.654 46.3999 97.2297 45.265 92.6772 44.8546C90.946 44.7007 89.3238 43.9441 87.5862 43.8159C83.5595 43.6235 79.3982 41.4948 77.5002 37.84C78.6223 36.2562 79.1289 34.3583 79.6546 32.5245C82.1232 31.2101 85.0663 31.2485 87.5734 29.9662C89.5867 29.4019 91.7347 29.0877 93.5236 27.9015C96.2872 26.6384 97.3387 23.5735 99.3072 21.464C101.058 19.3801 103.411 17.8797 106.033 17.1616ZM103.885 27.3821C103.524 27.9469 103.421 29.1356 103.783 29.761C103.951 30.6717 104.664 30.9781 105.488 31.1267C107.085 30.4919 107.514 29.0236 107.085 27.4206C105.871 26.4371 104.834 26.6839 103.885 27.3821Z" fill="#B85300"/>
<path d="M179.899 49.997C184.861 49.3301 189.876 49.2596 194.87 48.9967C198.192 49.452 201.545 49.0352 204.879 49.1186C207.79 49.0609 210.721 49.4648 213.619 49.0352C218.768 49.4648 224.199 49.6379 228.757 52.3373C231.861 54.8316 234.015 58.2555 236.798 61.0768C234.066 63.0901 230.553 62.5195 227.404 63.1542C215.844 63.6544 204.257 63.3658 192.69 63.135C188.638 62.6541 184.554 62.5515 180.476 62.6092C179.751 62.6092 179.033 62.6028 178.308 62.5772C175.596 59.134 174.84 54.6905 173.634 50.5869C175.622 49.8046 177.828 50.3047 179.899 49.997Z" fill="#B85300"/>
<path d="M227.962 64.629C231.367 64.6931 234.823 64.225 237.926 62.7567C244.268 71.5988 247.762 82.4221 255.918 89.9112L254.758 90.889C253.604 89.5489 252.129 88.5839 250.853 87.3657C246.948 83.6981 243.723 79.3828 240.78 74.9265C240.389 74.3302 239.908 73.7724 239.119 73.8878C238.677 76.0358 238.818 78.4403 240.158 80.2548C240.023 81.2423 240.023 82.2618 239.696 83.2172C237.484 83.0504 235.278 82.1977 233.066 82.903C230.534 83.044 228.353 84.3905 226.026 85.2177C221.91 81.8065 217.697 78.389 212.811 76.1384C207.021 73.1953 200.442 72.1438 193.998 72.2592C188.478 71.9514 183.573 68.9378 179.745 65.1099C180.123 64.7188 180.572 64.4944 181.085 64.4431C196.711 64.3661 212.349 65.9755 227.962 64.629Z" fill="#B85300"/>
<path d="M117.588 16.1613C121.14 16.0779 123.999 18.5594 126.673 20.5727C129.847 23.2401 133.316 26.0934 134.534 30.2226C135.31 36.4165 134.464 42.6553 134.265 48.8428C134.214 52.7734 133.136 56.8193 130.815 60.0316C128.045 63.5582 123.121 63.789 119.037 63.1927C115.645 62.4105 112.529 60.0573 111.112 56.8513C109.605 51.5807 113.003 46.9385 115.087 42.3989C117.62 37.3655 120.896 32.1783 120.492 26.3242C119.627 22.9066 117.876 19.7263 117.588 16.1613Z" fill="#62372D"/>
<path d="M171.076 50.8562C171.916 50.6382 172.775 50.5933 173.634 50.5869C174.84 54.6905 175.596 59.134 178.308 62.5772C179.033 62.6028 179.751 62.6092 180.476 62.6092C179.995 63.1863 179.533 63.7698 179.078 64.3597C179.245 64.5457 179.578 64.9239 179.745 65.1099C183.573 68.9378 188.478 71.9514 193.998 72.2592C200.442 72.1438 207.021 73.1953 212.811 76.1384C217.697 78.389 221.91 81.8065 226.026 85.2177C228.353 84.3905 230.534 83.044 233.066 82.903C235.278 82.1977 237.484 83.0504 239.696 83.2172C240.023 82.2618 240.023 81.2423 240.158 80.2548C241.267 81.7552 241.844 83.6147 243.024 85.0446C246.044 86.8912 248.628 89.5521 250.013 92.8415C252.225 97.7722 251.552 103.851 248.314 108.179C245.8 111.955 241.415 114.289 236.984 114.841C229.392 115.687 221.57 110.218 220.076 102.665C219.8 100.933 219.191 99.2085 217.876 97.9966C213.965 93.7648 213.638 87.3593 215.76 82.1977C215.607 81.8578 215.305 81.1846 215.158 80.8447C211.875 78.498 207.938 77.2348 204.097 76.132C200.833 75.0804 197.377 75.5164 194.011 75.3177C187.074 74.5675 180.27 71.073 176.334 65.1933C173.474 60.9422 171.448 55.9857 171.076 50.8562ZM219.832 84.9227C218.601 87.2695 218.235 90.5396 220.281 92.5529C221.14 90.8986 222.236 89.3919 223.294 87.8658C223.333 86.2692 221.397 84.7817 219.832 84.9227ZM230.912 89.0264C230.181 90.2318 231.63 91.1423 232.188 92.0464C234.124 94.002 235.278 96.5604 237.17 98.5545C237.228 99.1123 237.202 99.6766 237.093 100.241C235.996 100.497 234.105 101.068 233.778 99.5163C232.431 96.7207 230.13 94.5727 228.36 92.0656C228.026 92.0592 227.353 92.04 227.02 92.0336C225.616 94.2521 224.404 96.7784 224.519 99.465C224.878 106.518 232.919 112.122 239.529 109.032C244.954 106.858 248.019 99.8817 245.198 94.6047C243.659 90.7576 239.619 88.5455 235.657 88.2185C234.015 88.0902 232.553 89.0456 230.912 89.0264Z" fill="#62372D"/>
<path d="M103.885 27.3821C104.834 26.6839 105.871 26.4371 107.085 27.4206C107.514 29.0236 107.085 30.4919 105.488 31.1267C104.664 30.9781 103.951 30.6717 103.783 29.761C103.421 29.1356 103.524 27.9469 103.885 27.3821Z" fill="#29312F"/>
<path d="M81.7065 31.2421C85.5282 30.0306 93.1698 27.6767 93.0556 27.3886C93.0556 27.3886 93.3408 27.7012 93.5236 27.9015C91.7347 29.0877 89.5867 29.4019 87.5734 29.9662C85.0663 31.2485 82.1232 31.2101 79.6546 32.5245C78.4684 32.8259 77.2951 33.1849 76.2948 33.9223C75.8973 35.3458 76.8975 36.6281 77.5002 37.84C79.3982 41.4948 83.5595 43.6235 87.5862 43.8159C89.3238 43.9441 90.946 44.7007 92.6772 44.8546C97.2297 45.265 101.654 46.3999 106.162 47.0667C106.45 50.9716 105.713 54.9534 106.45 58.839C107.425 69.7521 112.477 79.9535 119.601 88.18L119.037 88.4237C110.406 78.6519 105.123 65.796 105.578 52.6772C105.398 50.946 106.219 49.0609 105.431 47.4451C102 47.0732 98.6467 46.3294 95.2228 45.9062C90.3754 44.5405 84.8868 45.0727 80.5395 42.1488C78.0196 40.2317 75.6151 37.404 75.5767 34.1083C76.7629 32.0757 79.5649 31.7551 81.7065 31.2421Z" fill="#5C4635"/>
<path d="M135.188 30.1329C136.15 34.166 136.067 38.5453 135.252 42.5912C134.778 40.1996 135.297 37.7695 135.15 35.3586C135.047 33.6209 134.964 31.8705 135.188 30.1329Z" fill="#45403F"/>
<path d="M76.2948 33.9223C77.2951 33.1849 78.4684 32.8259 79.6546 32.5245C79.1289 34.3583 78.6223 36.2562 77.5002 37.84C76.8975 36.6281 75.8973 35.3458 76.2948 33.9223Z" fill="#423A2E"/>
<path d="M106.162 47.0667L106.655 47.1822C106.873 51.0485 106.719 54.9726 106.45 58.839C105.713 54.9534 106.45 50.9716 106.162 47.0667Z" fill="#AF6526"/>
<path d="M179.886 49.2404C185.214 48.6377 190.6 48.8557 195.922 48.1376C201.045 47.9773 206.175 48.0285 211.298 48.0863C216.947 48.8877 222.929 48.6056 228.135 51.273C230.912 52.8439 232.656 55.5626 234.785 57.8388C235.836 58.8519 236.362 60.442 237.92 60.7883C238.273 61.6475 238.356 62.6285 238.978 63.3466C245.351 72.1759 248.711 83.2556 257.355 90.3472C259.342 91.7643 261.349 93.4249 263.824 93.8289C263.209 96.1628 260.888 94.1303 259.458 93.8994C258.451 93.2838 255.516 91.786 254.758 90.889C256.63 91.4404 259.009 94.0148 261.138 93.816C259.483 92.3926 257.585 91.309 255.918 89.9112C247.762 82.4221 244.268 71.5988 237.926 62.7567C237.574 62.1796 237.215 61.609 236.798 61.0768C234.015 58.2555 231.861 54.8316 228.757 52.3373C224.199 49.6379 218.768 49.4648 213.619 49.0352C207.399 48.4197 201.096 48.4645 194.87 48.9967C189.876 49.2596 184.861 49.3301 179.899 49.997C177.828 50.3047 175.622 49.8046 173.634 50.5869C172.775 50.5933 171.916 50.6382 171.076 50.8562C167.145 51.1127 163.311 52.1578 159.361 52.1835C155.431 53.5171 151.276 53.9852 147.185 54.5366C143.408 54.4084 139.023 53.7736 136.689 50.4586C139.209 51.6897 141.632 53.857 144.665 53.8313C147.32 53.857 150.077 54.1071 152.597 53.0876C161.612 51.2024 170.723 50.1317 179.886 49.2404Z" fill="#644A35"/>
<path d="M236.798 61.0768C237.215 61.609 237.574 62.1796 237.926 62.7567C234.823 64.225 231.367 64.6931 227.962 64.629C212.349 65.9755 196.711 64.3661 181.085 64.4431C180.572 64.4944 180.123 64.7188 179.745 65.1099C179.578 64.9239 179.245 64.5457 179.078 64.3597C179.533 63.7698 179.995 63.1863 180.476 62.6092C184.554 62.5515 188.638 62.6541 192.69 63.135C204.257 63.3658 215.844 63.6544 227.404 63.1542C230.553 62.5195 234.066 63.0901 236.798 61.0768Z" fill="#763D22"/>
<path d="M239.119 73.8878C239.908 73.7724 240.389 74.3302 240.78 74.9265C243.723 79.3828 246.948 83.6981 250.853 87.3657C252.129 88.5839 253.604 89.5489 254.758 90.889C250.558 88.8756 247.653 84.8522 244.653 81.3641C242.889 79.0815 241.273 76.6898 239.561 74.3751C239.523 76.2153 239.542 78.2351 240.741 79.7547C241.87 81.2166 242.408 83.0184 243.441 84.5316C249.487 87.9043 253.097 95.2908 251.661 102.094C250.693 107.025 247.371 111.41 242.889 113.725C237.824 116.251 231.322 116.085 226.584 112.885C223.442 111.064 221.249 107.954 219.845 104.665C219.3 102.985 219.274 101.042 218.364 99.5291C214.266 95.6434 212.619 89.3598 214.517 84.0186C214.658 83.339 215.324 82.5118 214.805 81.8578C210.939 80.8832 206.912 81.1653 202.956 81.1397C199.057 81.0692 195.268 82.1528 191.382 82.2746C185.592 83.4352 179.687 84.6791 174.493 87.635C170.326 89.8278 166.1 91.9438 161.772 93.816L160.637 93.7199C165.19 91.418 169.947 89.4752 174.384 86.9104C178.494 84.8586 182.887 83.1915 187.452 82.5631C196.461 79.9471 205.912 81.1333 215.158 80.8447C215.305 81.1846 215.607 81.8578 215.76 82.1977C213.638 87.3593 213.965 93.7648 217.876 97.9966C219.191 99.2085 219.8 100.933 220.076 102.665C221.57 110.218 229.392 115.687 236.984 114.841C241.415 114.289 245.8 111.955 248.314 108.179C251.552 103.851 252.225 97.7722 250.013 92.8415C248.628 89.5521 246.044 86.8912 243.024 85.0446C241.844 83.6147 241.267 81.7552 240.158 80.2548C238.818 78.4403 238.677 76.0358 239.119 73.8878Z" fill="#57453A"/>
<path d="M219.832 84.9227C221.397 84.7817 223.333 86.2692 223.294 87.8658C222.236 89.3919 221.14 90.8986 220.281 92.5529C218.235 90.5396 218.601 87.2695 219.832 84.9227Z" fill="#C77633"/>
<path d="M119.601 88.18C122.736 91.4949 126.141 94.5278 129.488 97.6183C129.552 99.1187 127.712 98.7661 126.994 99.715C125.436 100.985 123.737 102.889 123.929 104.966C125.743 104.973 127.584 104.479 129.385 104.922C128.898 106.492 127.654 107.717 127.263 109.32L127.327 109.775C131.162 110.045 135.002 109.762 138.843 109.692C138.144 110.275 137.125 109.916 136.298 110.051C133.207 109.955 130.084 110.449 127.019 110.096C126.462 108.339 127.968 107.012 128.27 105.409C126.667 105.293 125.051 105.537 123.448 105.325C122.922 103.363 124.474 101.414 125.731 99.9972C126.455 98.9071 128.154 98.92 128.61 97.6568C125.538 94.8099 121.948 91.4501 119.037 88.4237L119.601 88.18Z" fill="#554335"/>
<path d="M156.335 95.092C157.966 94.7242 159.439 94.0904 160.637 93.7199L161.772 93.816C156.226 95.8422 148.942 98.33 143.069 99.0674C141.241 102.434 140.67 106.332 138.843 109.692C135.002 109.762 131.162 110.045 127.327 109.775L127.263 109.32C131.046 109.461 134.848 109.269 138.625 109.064C139.471 106.249 140.696 103.569 141.491 100.741C141.671 99.8368 142.28 99.1379 142.831 98.439C147.48 97.8748 151.911 96.5411 156.335 95.092Z" fill="#735238"/>
<path d="M259.458 93.8994C260.888 94.1303 263.209 96.1628 263.824 93.8289C265.273 94.5919 266.883 94.7714 268.447 95.1626C265.511 96.368 262.061 95.496 259.458 93.8994Z" fill="#473E38"/>
<g filter="url(#filter0_d_112_33903)">
<mask id="path-2-outside-1_112_33903" maskUnits="userSpaceOnUse" x="85.3223" y="134.751" width="173" height="15" fill="black">
<rect fill="white" x="85.3223" y="134.751" width="173" height="15"/>
<path d="M86.3223 135.922H88.1295L92.3788 146.302H92.5253L96.7747 135.922H98.5819V148.426H97.1654V138.926H97.0433L93.1359 148.426H91.7683L87.8608 138.926H87.7387V148.426H86.3223V135.922Z"/>
<path d="M103.337 148.426V135.922H110.883V137.266H104.851V141.49H110.493V142.834H104.851V147.083H110.981V148.426H103.337Z"/>
<path d="M123.537 135.922H125.052V144.201C125.052 145.056 124.85 145.819 124.447 146.491C124.048 147.158 123.484 147.685 122.756 148.072C122.027 148.455 121.173 148.646 120.192 148.646C119.211 148.646 118.356 148.455 117.627 148.072C116.899 147.685 116.333 147.158 115.93 146.491C115.531 145.819 115.332 145.056 115.332 144.201V135.922H116.846V144.079C116.846 144.69 116.98 145.233 117.249 145.709C117.517 146.181 117.9 146.554 118.397 146.827C118.897 147.095 119.496 147.23 120.192 147.23C120.888 147.23 121.486 147.095 121.987 146.827C122.487 146.554 122.87 146.181 123.134 145.709C123.403 145.233 123.537 144.69 123.537 144.079V135.922Z"/>
<path d="M129.794 148.426V135.922H134.019C135 135.922 135.802 136.099 136.425 136.454C137.052 136.804 137.516 137.278 137.817 137.876C138.118 138.474 138.269 139.142 138.269 139.879C138.269 140.615 138.118 141.285 137.817 141.887C137.52 142.49 137.06 142.97 136.437 143.328C135.814 143.682 135.017 143.859 134.044 143.859H131.016V142.516H133.995C134.667 142.516 135.206 142.4 135.613 142.168C136.02 141.936 136.315 141.623 136.498 141.228C136.685 140.829 136.779 140.379 136.779 139.879C136.779 139.378 136.685 138.93 136.498 138.535C136.315 138.141 136.018 137.831 135.607 137.607C135.196 137.38 134.65 137.266 133.971 137.266H131.309V148.426H129.794Z"/>
<path d="M142.427 148.426V135.922H149.973V137.266H143.941V141.49H149.583V142.834H143.941V147.083H150.071V148.426H142.427Z"/>
<path d="M153.738 137.266V135.922H163.116V137.266H159.184V148.426H157.67V137.266H153.738Z"/>
<path d="M167.172 148.426V135.922H174.718V137.266H168.686V141.49H174.328V142.834H168.686V147.083H174.816V148.426H167.172Z"/>
<path d="M186.005 139.048C185.931 138.43 185.634 137.949 185.113 137.607C184.592 137.266 183.953 137.095 183.196 137.095C182.643 137.095 182.158 137.184 181.743 137.363C181.332 137.542 181.011 137.789 180.778 138.102C180.551 138.415 180.437 138.772 180.437 139.17C180.437 139.504 180.516 139.791 180.675 140.031C180.838 140.267 181.045 140.465 181.297 140.624C181.55 140.778 181.814 140.906 182.091 141.008C182.368 141.106 182.622 141.185 182.854 141.246L184.124 141.588C184.45 141.674 184.812 141.792 185.211 141.942C185.614 142.093 185.999 142.298 186.365 142.559C186.735 142.815 187.041 143.145 187.281 143.548C187.521 143.951 187.641 144.445 187.641 145.032C187.641 145.707 187.464 146.318 187.11 146.863C186.76 147.409 186.247 147.842 185.571 148.164C184.9 148.485 184.084 148.646 183.123 148.646C182.228 148.646 181.452 148.502 180.797 148.213C180.146 147.924 179.633 147.521 179.258 147.004C178.888 146.487 178.678 145.886 178.629 145.203H180.192C180.233 145.675 180.392 146.065 180.669 146.375C180.949 146.68 181.304 146.908 181.731 147.059C182.162 147.205 182.626 147.278 183.123 147.278C183.701 147.278 184.22 147.185 184.68 146.998C185.14 146.806 185.504 146.542 185.773 146.204C186.041 145.862 186.176 145.463 186.176 145.007C186.176 144.592 186.06 144.254 185.828 143.994C185.596 143.733 185.29 143.522 184.912 143.359C184.533 143.196 184.124 143.053 183.685 142.931L182.146 142.492C181.169 142.211 180.396 141.81 179.826 141.289C179.256 140.768 178.971 140.086 178.971 139.244C178.971 138.544 179.161 137.933 179.539 137.412C179.922 136.887 180.435 136.48 181.078 136.191C181.725 135.898 182.447 135.751 183.245 135.751C184.051 135.751 184.767 135.896 185.394 136.185C186.021 136.47 186.518 136.861 186.884 137.357C187.254 137.854 187.45 138.417 187.47 139.048H186.005Z"/>
<path d="M191.85 148.426V135.922H196.075C197.056 135.922 197.857 136.099 198.48 136.454C199.107 136.804 199.571 137.278 199.872 137.876C200.173 138.474 200.324 139.142 200.324 139.879C200.324 140.615 200.173 141.285 199.872 141.887C199.575 142.49 199.115 142.97 198.492 143.328C197.87 143.682 197.072 143.859 196.099 143.859H193.071V142.516H196.05C196.722 142.516 197.261 142.4 197.668 142.168C198.075 141.936 198.37 141.623 198.553 141.228C198.741 140.829 198.834 140.379 198.834 139.879C198.834 139.378 198.741 138.93 198.553 138.535C198.37 138.141 198.073 137.831 197.662 137.607C197.251 137.38 196.706 137.266 196.026 137.266H193.364V148.426H191.85Z"/>
<path d="M204.482 148.426V135.922H212.029V137.266H205.997V141.49H211.638V142.834H205.997V147.083H212.126V148.426H204.482Z"/>
<path d="M226.539 139.83H225.025C224.935 139.394 224.778 139.012 224.554 138.682C224.335 138.352 224.066 138.076 223.749 137.852C223.435 137.624 223.087 137.453 222.705 137.339C222.322 137.225 221.923 137.168 221.508 137.168C220.751 137.168 220.065 137.359 219.45 137.742C218.84 138.124 218.353 138.688 217.991 139.433C217.633 140.178 217.454 141.092 217.454 142.174C217.454 143.257 217.633 144.171 217.991 144.916C218.353 145.66 218.84 146.224 219.45 146.607C220.065 146.989 220.751 147.181 221.508 147.181C221.923 147.181 222.322 147.124 222.705 147.01C223.087 146.896 223.435 146.727 223.749 146.503C224.066 146.275 224.335 145.996 224.554 145.667C224.778 145.333 224.935 144.95 225.025 144.519H226.539C226.425 145.158 226.217 145.73 225.916 146.234C225.615 146.739 225.24 147.168 224.793 147.523C224.345 147.873 223.842 148.139 223.285 148.322C222.731 148.506 222.139 148.597 221.508 148.597C220.441 148.597 219.493 148.337 218.663 147.816C217.832 147.295 217.179 146.554 216.703 145.593C216.227 144.633 215.989 143.493 215.989 142.174C215.989 140.856 216.227 139.716 216.703 138.755C217.179 137.795 217.832 137.054 218.663 136.533C219.493 136.012 220.441 135.751 221.508 135.751C222.139 135.751 222.731 135.843 223.285 136.026C223.842 136.209 224.345 136.478 224.793 136.832C225.24 137.182 225.615 137.609 225.916 138.114C226.217 138.615 226.425 139.187 226.539 139.83Z"/>
<path d="M232.219 135.922V148.426H230.705V135.922H232.219Z"/>
<path d="M237.487 148.426H235.9L240.491 135.922H242.054L246.645 148.426H245.058L241.321 137.901H241.223L237.487 148.426ZM238.073 143.542H244.471V144.885H238.073V143.542Z"/>
<path d="M250.312 148.426V135.922H251.826V147.083H257.638V148.426H250.312Z"/>
</mask>
<path d="M86.3223 135.922H88.1295L92.3788 146.302H92.5253L96.7747 135.922H98.5819V148.426H97.1654V138.926H97.0433L93.1359 148.426H91.7683L87.8608 138.926H87.7387V148.426H86.3223V135.922Z" fill="#C9C9C9"/>
<path d="M103.337 148.426V135.922H110.883V137.266H104.851V141.49H110.493V142.834H104.851V147.083H110.981V148.426H103.337Z" fill="#C9C9C9"/>
<path d="M123.537 135.922H125.052V144.201C125.052 145.056 124.85 145.819 124.447 146.491C124.048 147.158 123.484 147.685 122.756 148.072C122.027 148.455 121.173 148.646 120.192 148.646C119.211 148.646 118.356 148.455 117.627 148.072C116.899 147.685 116.333 147.158 115.93 146.491C115.531 145.819 115.332 145.056 115.332 144.201V135.922H116.846V144.079C116.846 144.69 116.98 145.233 117.249 145.709C117.517 146.181 117.9 146.554 118.397 146.827C118.897 147.095 119.496 147.23 120.192 147.23C120.888 147.23 121.486 147.095 121.987 146.827C122.487 146.554 122.87 146.181 123.134 145.709C123.403 145.233 123.537 144.69 123.537 144.079V135.922Z" fill="#C9C9C9"/>
<path d="M129.794 148.426V135.922H134.019C135 135.922 135.802 136.099 136.425 136.454C137.052 136.804 137.516 137.278 137.817 137.876C138.118 138.474 138.269 139.142 138.269 139.879C138.269 140.615 138.118 141.285 137.817 141.887C137.52 142.49 137.06 142.97 136.437 143.328C135.814 143.682 135.017 143.859 134.044 143.859H131.016V142.516H133.995C134.667 142.516 135.206 142.4 135.613 142.168C136.02 141.936 136.315 141.623 136.498 141.228C136.685 140.829 136.779 140.379 136.779 139.879C136.779 139.378 136.685 138.93 136.498 138.535C136.315 138.141 136.018 137.831 135.607 137.607C135.196 137.38 134.65 137.266 133.971 137.266H131.309V148.426H129.794Z" fill="#C9C9C9"/>
<path d="M142.427 148.426V135.922H149.973V137.266H143.941V141.49H149.583V142.834H143.941V147.083H150.071V148.426H142.427Z" fill="#C9C9C9"/>
<path d="M153.738 137.266V135.922H163.116V137.266H159.184V148.426H157.67V137.266H153.738Z" fill="#C9C9C9"/>
<path d="M167.172 148.426V135.922H174.718V137.266H168.686V141.49H174.328V142.834H168.686V147.083H174.816V148.426H167.172Z" fill="#C9C9C9"/>
<path d="M186.005 139.048C185.931 138.43 185.634 137.949 185.113 137.607C184.592 137.266 183.953 137.095 183.196 137.095C182.643 137.095 182.158 137.184 181.743 137.363C181.332 137.542 181.011 137.789 180.778 138.102C180.551 138.415 180.437 138.772 180.437 139.17C180.437 139.504 180.516 139.791 180.675 140.031C180.838 140.267 181.045 140.465 181.297 140.624C181.55 140.778 181.814 140.906 182.091 141.008C182.368 141.106 182.622 141.185 182.854 141.246L184.124 141.588C184.45 141.674 184.812 141.792 185.211 141.942C185.614 142.093 185.999 142.298 186.365 142.559C186.735 142.815 187.041 143.145 187.281 143.548C187.521 143.951 187.641 144.445 187.641 145.032C187.641 145.707 187.464 146.318 187.11 146.863C186.76 147.409 186.247 147.842 185.571 148.164C184.9 148.485 184.084 148.646 183.123 148.646C182.228 148.646 181.452 148.502 180.797 148.213C180.146 147.924 179.633 147.521 179.258 147.004C178.888 146.487 178.678 145.886 178.629 145.203H180.192C180.233 145.675 180.392 146.065 180.669 146.375C180.949 146.68 181.304 146.908 181.731 147.059C182.162 147.205 182.626 147.278 183.123 147.278C183.701 147.278 184.22 147.185 184.68 146.998C185.14 146.806 185.504 146.542 185.773 146.204C186.041 145.862 186.176 145.463 186.176 145.007C186.176 144.592 186.06 144.254 185.828 143.994C185.596 143.733 185.29 143.522 184.912 143.359C184.533 143.196 184.124 143.053 183.685 142.931L182.146 142.492C181.169 142.211 180.396 141.81 179.826 141.289C179.256 140.768 178.971 140.086 178.971 139.244C178.971 138.544 179.161 137.933 179.539 137.412C179.922 136.887 180.435 136.48 181.078 136.191C181.725 135.898 182.447 135.751 183.245 135.751C184.051 135.751 184.767 135.896 185.394 136.185C186.021 136.47 186.518 136.861 186.884 137.357C187.254 137.854 187.45 138.417 187.47 139.048H186.005Z" fill="#C9C9C9"/>
<path d="M191.85 148.426V135.922H196.075C197.056 135.922 197.857 136.099 198.48 136.454C199.107 136.804 199.571 137.278 199.872 137.876C200.173 138.474 200.324 139.142 200.324 139.879C200.324 140.615 200.173 141.285 199.872 141.887C199.575 142.49 199.115 142.97 198.492 143.328C197.87 143.682 197.072 143.859 196.099 143.859H193.071V142.516H196.05C196.722 142.516 197.261 142.4 197.668 142.168C198.075 141.936 198.37 141.623 198.553 141.228C198.741 140.829 198.834 140.379 198.834 139.879C198.834 139.378 198.741 138.93 198.553 138.535C198.37 138.141 198.073 137.831 197.662 137.607C197.251 137.38 196.706 137.266 196.026 137.266H193.364V148.426H191.85Z" fill="#C9C9C9"/>
<path d="M204.482 148.426V135.922H212.029V137.266H205.997V141.49H211.638V142.834H205.997V147.083H212.126V148.426H204.482Z" fill="#C9C9C9"/>
<path d="M226.539 139.83H225.025C224.935 139.394 224.778 139.012 224.554 138.682C224.335 138.352 224.066 138.076 223.749 137.852C223.435 137.624 223.087 137.453 222.705 137.339C222.322 137.225 221.923 137.168 221.508 137.168C220.751 137.168 220.065 137.359 219.45 137.742C218.84 138.124 218.353 138.688 217.991 139.433C217.633 140.178 217.454 141.092 217.454 142.174C217.454 143.257 217.633 144.171 217.991 144.916C218.353 145.66 218.84 146.224 219.45 146.607C220.065 146.989 220.751 147.181 221.508 147.181C221.923 147.181 222.322 147.124 222.705 147.01C223.087 146.896 223.435 146.727 223.749 146.503C224.066 146.275 224.335 145.996 224.554 145.667C224.778 145.333 224.935 144.95 225.025 144.519H226.539C226.425 145.158 226.217 145.73 225.916 146.234C225.615 146.739 225.24 147.168 224.793 147.523C224.345 147.873 223.842 148.139 223.285 148.322C222.731 148.506 222.139 148.597 221.508 148.597C220.441 148.597 219.493 148.337 218.663 147.816C217.832 147.295 217.179 146.554 216.703 145.593C216.227 144.633 215.989 143.493 215.989 142.174C215.989 140.856 216.227 139.716 216.703 138.755C217.179 137.795 217.832 137.054 218.663 136.533C219.493 136.012 220.441 135.751 221.508 135.751C222.139 135.751 222.731 135.843 223.285 136.026C223.842 136.209 224.345 136.478 224.793 136.832C225.24 137.182 225.615 137.609 225.916 138.114C226.217 138.615 226.425 139.187 226.539 139.83Z" fill="#C9C9C9"/>
<path d="M232.219 135.922V148.426H230.705V135.922H232.219Z" fill="#C9C9C9"/>
<path d="M237.487 148.426H235.9L240.491 135.922H242.054L246.645 148.426H245.058L241.321 137.901H241.223L237.487 148.426ZM238.073 143.542H244.471V144.885H238.073V143.542Z" fill="#C9C9C9"/>
<path d="M250.312 148.426V135.922H251.826V147.083H257.638V148.426H250.312Z" fill="#C9C9C9"/>
<path d="M86.3223 135.922H88.1295L92.3788 146.302H92.5253L96.7747 135.922H98.5819V148.426H97.1654V138.926H97.0433L93.1359 148.426H91.7683L87.8608 138.926H87.7387V148.426H86.3223V135.922Z" stroke="#C9C9C9" stroke-width="1.07455" mask="url(#path-2-outside-1_112_33903)"/>
<path d="M103.337 148.426V135.922H110.883V137.266H104.851V141.49H110.493V142.834H104.851V147.083H110.981V148.426H103.337Z" stroke="#C9C9C9" stroke-width="1.07455" mask="url(#path-2-outside-1_112_33903)"/>
<path d="M123.537 135.922H125.052V144.201C125.052 145.056 124.85 145.819 124.447 146.491C124.048 147.158 123.484 147.685 122.756 148.072C122.027 148.455 121.173 148.646 120.192 148.646C119.211 148.646 118.356 148.455 117.627 148.072C116.899 147.685 116.333 147.158 115.93 146.491C115.531 145.819 115.332 145.056 115.332 144.201V135.922H116.846V144.079C116.846 144.69 116.98 145.233 117.249 145.709C117.517 146.181 117.9 146.554 118.397 146.827C118.897 147.095 119.496 147.23 120.192 147.23C120.888 147.23 121.486 147.095 121.987 146.827C122.487 146.554 122.87 146.181 123.134 145.709C123.403 145.233 123.537 144.69 123.537 144.079V135.922Z" stroke="#C9C9C9" stroke-width="1.07455" mask="url(#path-2-outside-1_112_33903)"/>
<path d="M129.794 148.426V135.922H134.019C135 135.922 135.802 136.099 136.425 136.454C137.052 136.804 137.516 137.278 137.817 137.876C138.118 138.474 138.269 139.142 138.269 139.879C138.269 140.615 138.118 141.285 137.817 141.887C137.52 142.49 137.06 142.97 136.437 143.328C135.814 143.682 135.017 143.859 134.044 143.859H131.016V142.516H133.995C134.667 142.516 135.206 142.4 135.613 142.168C136.02 141.936 136.315 141.623 136.498 141.228C136.685 140.829 136.779 140.379 136.779 139.879C136.779 139.378 136.685 138.93 136.498 138.535C136.315 138.141 136.018 137.831 135.607 137.607C135.196 137.38 134.65 137.266 133.971 137.266H131.309V148.426H129.794Z" stroke="#C9C9C9" stroke-width="1.07455" mask="url(#path-2-outside-1_112_33903)"/>
<path d="M142.427 148.426V135.922H149.973V137.266H143.941V141.49H149.583V142.834H143.941V147.083H150.071V148.426H142.427Z" stroke="#C9C9C9" stroke-width="1.07455" mask="url(#path-2-outside-1_112_33903)"/>
<path d="M153.738 137.266V135.922H163.116V137.266H159.184V148.426H157.67V137.266H153.738Z" stroke="#C9C9C9" stroke-width="1.07455" mask="url(#path-2-outside-1_112_33903)"/>
<path d="M167.172 148.426V135.922H174.718V137.266H168.686V141.49H174.328V142.834H168.686V147.083H174.816V148.426H167.172Z" stroke="#C9C9C9" stroke-width="1.07455" mask="url(#path-2-outside-1_112_33903)"/>
<path d="M186.005 139.048C185.931 138.43 185.634 137.949 185.113 137.607C184.592 137.266 183.953 137.095 183.196 137.095C182.643 137.095 182.158 137.184 181.743 137.363C181.332 137.542 181.011 137.789 180.778 138.102C180.551 138.415 180.437 138.772 180.437 139.17C180.437 139.504 180.516 139.791 180.675 140.031C180.838 140.267 181.045 140.465 181.297 140.624C181.55 140.778 181.814 140.906 182.091 141.008C182.368 141.106 182.622 141.185 182.854 141.246L184.124 141.588C184.45 141.674 184.812 141.792 185.211 141.942C185.614 142.093 185.999 142.298 186.365 142.559C186.735 142.815 187.041 143.145 187.281 143.548C187.521 143.951 187.641 144.445 187.641 145.032C187.641 145.707 187.464 146.318 187.11 146.863C186.76 147.409 186.247 147.842 185.571 148.164C184.9 148.485 184.084 148.646 183.123 148.646C182.228 148.646 181.452 148.502 180.797 148.213C180.146 147.924 179.633 147.521 179.258 147.004C178.888 146.487 178.678 145.886 178.629 145.203H180.192C180.233 145.675 180.392 146.065 180.669 146.375C180.949 146.68 181.304 146.908 181.731 147.059C182.162 147.205 182.626 147.278 183.123 147.278C183.701 147.278 184.22 147.185 184.68 146.998C185.14 146.806 185.504 146.542 185.773 146.204C186.041 145.862 186.176 145.463 186.176 145.007C186.176 144.592 186.06 144.254 185.828 143.994C185.596 143.733 185.29 143.522 184.912 143.359C184.533 143.196 184.124 143.053 183.685 142.931L182.146 142.492C181.169 142.211 180.396 141.81 179.826 141.289C179.256 140.768 178.971 140.086 178.971 139.244C178.971 138.544 179.161 137.933 179.539 137.412C179.922 136.887 180.435 136.48 181.078 136.191C181.725 135.898 182.447 135.751 183.245 135.751C184.051 135.751 184.767 135.896 185.394 136.185C186.021 136.47 186.518 136.861 186.884 137.357C187.254 137.854 187.45 138.417 187.47 139.048H186.005Z" stroke="#C9C9C9" stroke-width="1.07455" mask="url(#path-2-outside-1_112_33903)"/>
<path d="M191.85 148.426V135.922H196.075C197.056 135.922 197.857 136.099 198.48 136.454C199.107 136.804 199.571 137.278 199.872 137.876C200.173 138.474 200.324 139.142 200.324 139.879C200.324 140.615 200.173 141.285 199.872 141.887C199.575 142.49 199.115 142.97 198.492 143.328C197.87 143.682 197.072 143.859 196.099 143.859H193.071V142.516H196.05C196.722 142.516 197.261 142.4 197.668 142.168C198.075 141.936 198.37 141.623 198.553 141.228C198.741 140.829 198.834 140.379 198.834 139.879C198.834 139.378 198.741 138.93 198.553 138.535C198.37 138.141 198.073 137.831 197.662 137.607C197.251 137.38 196.706 137.266 196.026 137.266H193.364V148.426H191.85Z" stroke="#C9C9C9" stroke-width="1.07455" mask="url(#path-2-outside-1_112_33903)"/>
<path d="M204.482 148.426V135.922H212.029V137.266H205.997V141.49H211.638V142.834H205.997V147.083H212.126V148.426H204.482Z" stroke="#C9C9C9" stroke-width="1.07455" mask="url(#path-2-outside-1_112_33903)"/>
<path d="M226.539 139.83H225.025C224.935 139.394 224.778 139.012 224.554 138.682C224.335 138.352 224.066 138.076 223.749 137.852C223.435 137.624 223.087 137.453 222.705 137.339C222.322 137.225 221.923 137.168 221.508 137.168C220.751 137.168 220.065 137.359 219.45 137.742C218.84 138.124 218.353 138.688 217.991 139.433C217.633 140.178 217.454 141.092 217.454 142.174C217.454 143.257 217.633 144.171 217.991 144.916C218.353 145.66 218.84 146.224 219.45 146.607C220.065 146.989 220.751 147.181 221.508 147.181C221.923 147.181 222.322 147.124 222.705 147.01C223.087 146.896 223.435 146.727 223.749 146.503C224.066 146.275 224.335 145.996 224.554 145.667C224.778 145.333 224.935 144.95 225.025 144.519H226.539C226.425 145.158 226.217 145.73 225.916 146.234C225.615 146.739 225.24 147.168 224.793 147.523C224.345 147.873 223.842 148.139 223.285 148.322C222.731 148.506 222.139 148.597 221.508 148.597C220.441 148.597 219.493 148.337 218.663 147.816C217.832 147.295 217.179 146.554 216.703 145.593C216.227 144.633 215.989 143.493 215.989 142.174C215.989 140.856 216.227 139.716 216.703 138.755C217.179 137.795 217.832 137.054 218.663 136.533C219.493 136.012 220.441 135.751 221.508 135.751C222.139 135.751 222.731 135.843 223.285 136.026C223.842 136.209 224.345 136.478 224.793 136.832C225.24 137.182 225.615 137.609 225.916 138.114C226.217 138.615 226.425 139.187 226.539 139.83Z" stroke="#C9C9C9" stroke-width="1.07455" mask="url(#path-2-outside-1_112_33903)"/>
<path d="M232.219 135.922V148.426H230.705V135.922H232.219Z" stroke="#C9C9C9" stroke-width="1.07455" mask="url(#path-2-outside-1_112_33903)"/>
<path d="M237.487 148.426H235.9L240.491 135.922H242.054L246.645 148.426H245.058L241.321 137.901H241.223L237.487 148.426ZM238.073 143.542H244.471V144.885H238.073V143.542Z" stroke="#C9C9C9" stroke-width="1.07455" mask="url(#path-2-outside-1_112_33903)"/>
<path d="M250.312 148.426V135.922H251.826V147.083H257.638V148.426H250.312Z" stroke="#C9C9C9" stroke-width="1.07455" mask="url(#path-2-outside-1_112_33903)"/>
<path d="M129.57 148.41V148.679H129.839H131.353H131.622V148.41V144.112H134.088C135.092 144.112 135.939 143.929 136.614 143.546L136.615 143.545C137.281 143.162 137.78 142.644 138.102 141.991C138.423 141.348 138.582 140.637 138.582 139.862C138.582 139.088 138.423 138.379 138.101 137.739C137.774 137.09 137.271 136.578 136.601 136.203C135.926 135.82 135.074 135.638 134.064 135.638H129.839H129.57V135.906V148.41ZM134.039 142.231H131.622V137.518H134.015C134.668 137.518 135.164 137.628 135.521 137.826L135.521 137.826L135.523 137.827C135.887 138.026 136.142 138.294 136.299 138.632L136.299 138.632L136.3 138.634C136.468 138.988 136.555 139.396 136.555 139.862C136.555 140.329 136.468 140.739 136.299 141.098L136.299 141.099C136.141 141.439 135.887 141.712 135.524 141.919C135.172 142.12 134.683 142.231 134.039 142.231ZM142.203 148.41V148.679H142.472H150.115H150.384V148.41V147.067V146.798H150.115H144.254V143.086H149.627H149.896V142.817V141.474V141.206H149.627H144.254V137.518H150.018H150.286V137.249V135.906V135.638H150.018H142.472H142.203V135.906V148.41ZM153.514 137.249V137.518H153.782H157.446V148.41V148.679H157.714H159.228H159.497V148.41V137.518H163.16H163.429V137.249V135.906V135.638H163.16H153.782H153.514V135.906V137.249Z" fill="#B85300" stroke="#B85300" stroke-width="0.537275"/>
</g>
<path d="M79.5166 130.558C79.0221 130.558 78.6211 130.959 78.6211 131.453C78.6211 131.948 79.0221 132.349 79.5166 132.349V130.558ZM258.608 132.349C259.103 132.349 259.504 131.948 259.504 131.453C259.504 130.959 259.103 130.558 258.608 130.558V132.349ZM258.608 153.84C259.103 153.84 259.504 153.439 259.504 152.944C259.504 152.45 259.103 152.049 258.608 152.049V153.84ZM79.5166 152.049C79.0221 152.049 78.6211 152.45 78.6211 152.944C78.6211 153.439 79.0221 153.84 79.5166 153.84V152.049ZM81.3075 153.84C81.8021 153.84 82.203 153.439 82.203 152.944C82.203 152.45 81.8021 152.049 81.3075 152.049V153.84ZM84.8893 152.049C84.3948 152.049 83.9939 152.45 83.9939 152.944C83.9939 153.439 84.3948 153.84 84.8893 153.84V152.049ZM88.4712 153.84C88.9657 153.84 89.3666 153.439 89.3666 152.944C89.3666 152.45 88.9657 152.049 88.4712 152.049V153.84ZM92.053 152.049C91.5585 152.049 91.1576 152.45 91.1576 152.944C91.1576 153.439 91.5585 153.84 92.053 153.84V152.049ZM95.6348 153.84C96.1294 153.84 96.5303 153.439 96.5303 152.944C96.5303 152.45 96.1294 152.049 95.6348 152.049V153.84ZM99.2167 152.049C98.7221 152.049 98.3212 152.45 98.3212 152.944C98.3212 153.439 98.7221 153.84 99.2167 153.84V152.049ZM102.799 153.84C103.293 153.84 103.694 153.439 103.694 152.944C103.694 152.45 103.293 152.049 102.799 152.049V153.84ZM106.38 152.049C105.886 152.049 105.485 152.45 105.485 152.944C105.485 153.439 105.886 153.84 106.38 153.84V152.049ZM109.962 153.84C110.457 153.84 110.858 153.439 110.858 152.944C110.858 152.45 110.457 152.049 109.962 152.049V153.84ZM113.544 152.049C113.049 152.049 112.649 152.45 112.649 152.944C112.649 153.439 113.049 153.84 113.544 153.84V152.049ZM117.126 153.84C117.62 153.84 118.021 153.439 118.021 152.944C118.021 152.45 117.62 152.049 117.126 152.049V153.84ZM120.708 152.049C120.213 152.049 119.812 152.45 119.812 152.944C119.812 153.439 120.213 153.84 120.708 153.84V152.049ZM124.289 153.84C124.784 153.84 125.185 153.439 125.185 152.944C125.185 152.45 124.784 152.049 124.289 152.049V153.84ZM127.871 152.049C127.377 152.049 126.976 152.45 126.976 152.944C126.976 153.439 127.377 153.84 127.871 153.84V152.049ZM131.453 153.84C131.948 153.84 132.349 153.439 132.349 152.944C132.349 152.45 131.948 152.049 131.453 152.049V153.84ZM135.035 152.049C134.54 152.049 134.14 152.45 134.14 152.944C134.14 153.439 134.54 153.84 135.035 153.84V152.049ZM138.617 153.84C139.111 153.84 139.512 153.439 139.512 152.944C139.512 152.45 139.111 152.049 138.617 152.049V153.84ZM142.199 152.049C141.704 152.049 141.303 152.45 141.303 152.944C141.303 153.439 141.704 153.84 142.199 153.84V152.049ZM145.78 153.84C146.275 153.84 146.676 153.439 146.676 152.944C146.676 152.45 146.275 152.049 145.78 152.049V153.84ZM149.362 152.049C148.868 152.049 148.467 152.45 148.467 152.944C148.467 153.439 148.868 153.84 149.362 153.84V152.049ZM152.944 153.84C153.439 153.84 153.84 153.439 153.84 152.944C153.84 152.45 153.439 152.049 152.944 152.049V153.84ZM156.526 152.049C156.031 152.049 155.631 152.45 155.631 152.944C155.631 153.439 156.031 153.84 156.526 153.84V152.049ZM160.108 153.84C160.602 153.84 161.003 153.439 161.003 152.944C161.003 152.45 160.602 152.049 160.108 152.049V153.84ZM163.69 152.049C163.195 152.049 162.794 152.45 162.794 152.944C162.794 153.439 163.195 153.84 163.69 153.84V152.049ZM167.271 153.84C167.766 153.84 168.167 153.439 168.167 152.944C168.167 152.45 167.766 152.049 167.271 152.049V153.84ZM170.853 152.049C170.359 152.049 169.958 152.45 169.958 152.944C169.958 153.439 170.359 153.84 170.853 153.84V152.049ZM174.435 153.84C174.93 153.84 175.331 153.439 175.331 152.944C175.331 152.45 174.93 152.049 174.435 152.049V153.84ZM178.017 152.049C177.522 152.049 177.122 152.45 177.122 152.944C177.122 153.439 177.522 153.84 178.017 153.84V152.049ZM181.599 153.84C182.093 153.84 182.494 153.439 182.494 152.944C182.494 152.45 182.093 152.049 181.599 152.049V153.84ZM185.181 152.049C184.686 152.049 184.285 152.45 184.285 152.944C184.285 153.439 184.686 153.84 185.181 153.84V152.049ZM188.762 153.84C189.257 153.84 189.658 153.439 189.658 152.944C189.658 152.45 189.257 152.049 188.762 152.049V153.84ZM192.344 152.049C191.85 152.049 191.449 152.45 191.449 152.944C191.449 153.439 191.85 153.84 192.344 153.84V152.049ZM195.926 153.84C196.421 153.84 196.822 153.439 196.822 152.944C196.822 152.45 196.421 152.049 195.926 152.049V153.84ZM199.508 152.049C199.013 152.049 198.613 152.45 198.613 152.944C198.613 153.439 199.013 153.84 199.508 153.84V152.049ZM203.09 153.84C203.584 153.84 203.985 153.439 203.985 152.944C203.985 152.45 203.584 152.049 203.09 152.049V153.84ZM206.672 152.049C206.177 152.049 205.776 152.45 205.776 152.944C205.776 153.439 206.177 153.84 206.672 153.84V152.049ZM210.253 153.84C210.748 153.84 211.149 153.439 211.149 152.944C211.149 152.45 210.748 152.049 210.253 152.049V153.84ZM213.835 152.049C213.341 152.049 212.94 152.45 212.94 152.944C212.94 153.439 213.341 153.84 213.835 153.84V152.049ZM217.417 153.84C217.912 153.84 218.313 153.439 218.313 152.944C218.313 152.45 217.912 152.049 217.417 152.049V153.84ZM220.999 152.049C220.504 152.049 220.104 152.45 220.104 152.944C220.104 153.439 220.504 153.84 220.999 153.84V152.049ZM224.581 153.84C225.075 153.84 225.476 153.439 225.476 152.944C225.476 152.45 225.075 152.049 224.581 152.049V153.84ZM228.163 152.049C227.668 152.049 227.267 152.45 227.267 152.944C227.267 153.439 227.668 153.84 228.163 153.84V152.049ZM231.744 153.84C232.239 153.84 232.64 153.439 232.64 152.944C232.64 152.45 232.239 152.049 231.744 152.049V153.84ZM235.326 152.049C234.832 152.049 234.431 152.45 234.431 152.944C234.431 153.439 234.832 153.84 235.326 153.84V152.049ZM238.908 153.84C239.403 153.84 239.804 153.439 239.804 152.944C239.804 152.45 239.403 152.049 238.908 152.049V153.84ZM242.49 152.049C241.995 152.049 241.595 152.45 241.595 152.944C241.595 153.439 241.995 153.84 242.49 153.84V152.049ZM246.072 153.84C246.566 153.84 246.967 153.439 246.967 152.944C246.967 152.45 246.566 152.049 246.072 152.049V153.84ZM249.654 152.049C249.159 152.049 248.758 152.45 248.758 152.944C248.758 153.439 249.159 153.84 249.654 153.84V152.049ZM253.235 153.84C253.73 153.84 254.131 153.439 254.131 152.944C254.131 152.45 253.73 152.049 253.235 152.049V153.84ZM256.817 152.049C256.323 152.049 255.922 152.45 255.922 152.944C255.922 153.439 256.323 153.84 256.817 153.84V152.049ZM256.817 130.558C256.323 130.558 255.922 130.959 255.922 131.453C255.922 131.948 256.323 132.349 256.817 132.349V130.558ZM253.235 132.349C253.73 132.349 254.131 131.948 254.131 131.453C254.131 130.959 253.73 130.558 253.235 130.558V132.349ZM249.654 130.558C249.159 130.558 248.758 130.959 248.758 131.453C248.758 131.948 249.159 132.349 249.654 132.349V130.558ZM246.072 132.349C246.566 132.349 246.967 131.948 246.967 131.453C246.967 130.959 246.566 130.558 246.072 130.558V132.349ZM242.49 130.558C241.995 130.558 241.594 130.959 241.594 131.453C241.594 131.948 241.995 132.349 242.49 132.349V130.558ZM238.908 132.349C239.403 132.349 239.804 131.948 239.804 131.453C239.804 130.959 239.403 130.558 238.908 130.558V132.349ZM235.326 130.558C234.832 130.558 234.431 130.959 234.431 131.453C234.431 131.948 234.832 132.349 235.326 132.349V130.558ZM231.744 132.349C232.239 132.349 232.64 131.948 232.64 131.453C232.64 130.959 232.239 130.558 231.744 130.558V132.349ZM228.163 130.558C227.668 130.558 227.267 130.959 227.267 131.453C227.267 131.948 227.668 132.349 228.163 132.349V130.558ZM224.581 132.349C225.075 132.349 225.476 131.948 225.476 131.453C225.476 130.959 225.075 130.558 224.581 130.558V132.349ZM220.999 130.558C220.504 130.558 220.103 130.959 220.103 131.453C220.103 131.948 220.504 132.349 220.999 132.349V130.558ZM217.417 132.349C217.912 132.349 218.313 131.948 218.313 131.453C218.313 130.959 217.912 130.558 217.417 130.558V132.349ZM213.835 130.558C213.341 130.558 212.94 130.959 212.94 131.453C212.94 131.948 213.341 132.349 213.835 132.349V130.558ZM210.253 132.349C210.748 132.349 211.149 131.948 211.149 131.453C211.149 130.959 210.748 130.558 210.253 130.558V132.349ZM206.672 130.558C206.177 130.558 205.776 130.959 205.776 131.453C205.776 131.948 206.177 132.349 206.672 132.349V130.558ZM203.09 132.349C203.584 132.349 203.985 131.948 203.985 131.453C203.985 130.959 203.584 130.558 203.09 130.558V132.349ZM199.508 130.558C199.013 130.558 198.612 130.959 198.612 131.453C198.612 131.948 199.013 132.349 199.508 132.349V130.558ZM195.926 132.349C196.421 132.349 196.822 131.948 196.822 131.453C196.822 130.959 196.421 130.558 195.926 130.558V132.349ZM192.344 130.558C191.85 130.558 191.449 130.959 191.449 131.453C191.449 131.948 191.85 132.349 192.344 132.349V130.558ZM188.762 132.349C189.257 132.349 189.658 131.948 189.658 131.453C189.658 130.959 189.257 130.558 188.762 130.558V132.349ZM185.181 130.558C184.686 130.558 184.285 130.959 184.285 131.453C184.285 131.948 184.686 132.349 185.181 132.349V130.558ZM181.599 132.349C182.093 132.349 182.494 131.948 182.494 131.453C182.494 130.959 182.093 130.558 181.599 130.558V132.349ZM178.017 130.558C177.522 130.558 177.121 130.959 177.121 131.453C177.121 131.948 177.522 132.349 178.017 132.349V130.558ZM174.435 132.349C174.93 132.349 175.331 131.948 175.331 131.453C175.331 130.959 174.93 130.558 174.435 130.558V132.349ZM170.853 130.558C170.359 130.558 169.958 130.959 169.958 131.453C169.958 131.948 170.359 132.349 170.853 132.349V130.558ZM167.271 132.349C167.766 132.349 168.167 131.948 168.167 131.453C168.167 130.959 167.766 130.558 167.271 130.558V132.349ZM163.69 130.558C163.195 130.558 162.794 130.959 162.794 131.453C162.794 131.948 163.195 132.349 163.69 132.349V130.558ZM160.108 132.349C160.602 132.349 161.003 131.948 161.003 131.453C161.003 130.959 160.602 130.558 160.108 130.558V132.349ZM156.526 130.558C156.031 130.558 155.63 130.959 155.63 131.453C155.63 131.948 156.031 132.349 156.526 132.349V130.558ZM152.944 132.349C153.439 132.349 153.84 131.948 153.84 131.453C153.84 130.959 153.439 130.558 152.944 130.558V132.349ZM149.362 130.558C148.868 130.558 148.467 130.959 148.467 131.453C148.467 131.948 148.868 132.349 149.362 132.349V130.558ZM145.78 132.349C146.275 132.349 146.676 131.948 146.676 131.453C146.676 130.959 146.275 130.558 145.78 130.558V132.349ZM142.199 130.558C141.704 130.558 141.303 130.959 141.303 131.453C141.303 131.948 141.704 132.349 142.199 132.349V130.558ZM138.617 132.349C139.111 132.349 139.512 131.948 139.512 131.453C139.512 130.959 139.111 130.558 138.617 130.558V132.349ZM135.035 130.558C134.54 130.558 134.139 130.959 134.139 131.453C134.139 131.948 134.54 132.349 135.035 132.349V130.558ZM131.453 132.349C131.948 132.349 132.349 131.948 132.349 131.453C132.349 130.959 131.948 130.558 131.453 130.558V132.349ZM127.871 130.558C127.377 130.558 126.976 130.959 126.976 131.453C126.976 131.948 127.377 132.349 127.871 132.349V130.558ZM124.289 132.349C124.784 132.349 125.185 131.948 125.185 131.453C125.185 130.959 124.784 130.558 124.289 130.558V132.349ZM120.708 130.558C120.213 130.558 119.812 130.959 119.812 131.453C119.812 131.948 120.213 132.349 120.708 132.349V130.558ZM117.126 132.349C117.62 132.349 118.021 131.948 118.021 131.453C118.021 130.959 117.62 130.558 117.126 130.558V132.349ZM113.544 130.558C113.049 130.558 112.648 130.959 112.648 131.453C112.648 131.948 113.049 132.349 113.544 132.349V130.558ZM109.962 132.349C110.457 132.349 110.858 131.948 110.858 131.453C110.858 130.959 110.457 130.558 109.962 130.558V132.349ZM106.38 130.558C105.886 130.558 105.485 130.959 105.485 131.453C105.485 131.948 105.886 132.349 106.38 132.349V130.558ZM102.798 132.349C103.293 132.349 103.694 131.948 103.694 131.453C103.694 130.959 103.293 130.558 102.798 130.558V132.349ZM99.2166 130.558C98.7221 130.558 98.3212 130.959 98.3212 131.453C98.3212 131.948 98.7221 132.349 99.2166 132.349V130.558ZM95.6348 132.349C96.1293 132.349 96.5302 131.948 96.5302 131.453C96.5302 130.959 96.1293 130.558 95.6348 130.558V132.349ZM92.0529 130.558C91.5584 130.558 91.1575 130.959 91.1575 131.453C91.1575 131.948 91.5584 132.349 92.0529 132.349V130.558ZM88.4711 132.349C88.9657 132.349 89.3666 131.948 89.3666 131.453C89.3666 130.959 88.9657 130.558 88.4711 130.558V132.349ZM84.8893 130.558C84.3947 130.558 83.9938 130.959 83.9938 131.453C83.9938 131.948 84.3947 132.349 84.8893 132.349V130.558ZM81.3075 132.349C81.802 132.349 82.2029 131.948 82.2029 131.453C82.2029 130.959 81.802 130.558 81.3075 130.558V132.349ZM79.5166 153.84H81.3075V152.049H79.5166V153.84ZM84.8893 153.84H88.4712V152.049H84.8893V153.84ZM92.053 153.84H95.6348V152.049H92.053V153.84ZM99.2167 153.84H102.799V152.049H99.2167V153.84ZM106.38 153.84H109.962V152.049H106.38V153.84ZM113.544 153.84H117.126V152.049H113.544V153.84ZM120.708 153.84H124.289V152.049H120.708V153.84ZM127.871 153.84H131.453V152.049H127.871V153.84ZM135.035 153.84H138.617V152.049H135.035V153.84ZM142.199 153.84H145.78V152.049H142.199V153.84ZM149.362 153.84H152.944V152.049H149.362V153.84ZM156.526 153.84H160.108V152.049H156.526V153.84ZM163.69 153.84H167.271V152.049H163.69V153.84ZM170.853 153.84H174.435V152.049H170.853V153.84ZM178.017 153.84H181.599V152.049H178.017V153.84ZM185.181 153.84H188.762V152.049H185.181V153.84ZM192.344 153.84H195.926V152.049H192.344V153.84ZM199.508 153.84H203.09V152.049H199.508V153.84ZM206.672 153.84H210.253V152.049H206.672V153.84ZM213.835 153.84H217.417V152.049H213.835V153.84ZM220.999 153.84H224.581V152.049H220.999V153.84ZM228.163 153.84H231.744V152.049H228.163V153.84ZM235.326 153.84H238.908V152.049H235.326V153.84ZM242.49 153.84H246.072V152.049H242.49V153.84ZM249.654 153.84H253.235V152.049H249.654V153.84ZM256.817 153.84H258.608V152.049H256.817V153.84ZM258.608 130.558H256.817V132.349H258.608V130.558ZM253.235 130.558H249.654V132.349H253.235V130.558ZM246.072 130.558H242.49V132.349H246.072V130.558ZM238.908 130.558H235.326V132.349H238.908V130.558ZM231.744 130.558H228.163V132.349H231.744V130.558ZM224.581 130.558H220.999V132.349H224.581V130.558ZM217.417 130.558H213.835V132.349H217.417V130.558ZM210.253 130.558H206.672V132.349H210.253V130.558ZM203.09 130.558H199.508V132.349H203.09V130.558ZM195.926 130.558H192.344V132.349H195.926V130.558ZM188.762 130.558H185.181V132.349H188.762V130.558ZM181.599 130.558H178.017V132.349H181.599V130.558ZM174.435 130.558H170.853V132.349H174.435V130.558ZM167.271 130.558H163.69V132.349H167.271V130.558ZM160.108 130.558H156.526V132.349H160.108V130.558ZM152.944 130.558H149.362V132.349H152.944V130.558ZM145.78 130.558H142.199V132.349H145.78V130.558ZM138.617 130.558H135.035V132.349H138.617V130.558ZM131.453 130.558H127.871V132.349H131.453V130.558ZM124.289 130.558H120.708V132.349H124.289V130.558ZM117.126 130.558H113.544V132.349H117.126V130.558ZM109.962 130.558H106.38V132.349H109.962V130.558ZM102.798 130.558H99.2166V132.349H102.798V130.558ZM95.6348 130.558H92.0529V132.349H95.6348V130.558ZM88.4711 130.558H84.8893V132.349H88.4711V130.558ZM81.3075 130.558H79.5166V132.349H81.3075V130.558Z" fill="#4C4C4C"/>
<g filter="url(#filter1_d_112_33903)">
<path d="M66.211 162.144H66.0046C64.9845 162.144 64.1879 162.402 63.6148 162.918C63.0532 163.422 62.7724 164.322 62.7724 165.617C62.7724 166.041 62.8125 166.339 62.8927 166.511C62.973 166.672 63.0131 166.764 63.0131 166.786C62.3942 166.786 61.93 166.66 61.6205 166.408C61.3225 166.145 61.1735 165.715 61.1735 165.119C61.1735 164.305 61.3741 163.566 61.7752 162.901C62.1764 162.225 62.8125 161.68 63.6836 161.268C64.5662 160.855 65.6837 160.649 67.0362 160.649C67.7927 160.649 68.6065 160.717 69.4776 160.855C70.2111 160.981 70.8645 161.044 71.4376 161.044C72.1711 161.044 72.8359 160.924 73.4319 160.683C73.409 161.428 73.2199 161.978 72.8646 162.333C72.5092 162.689 71.982 162.866 71.2828 162.866C70.916 162.866 70.5493 162.838 70.1825 162.781C69.8157 162.723 69.2942 162.626 68.6179 162.488L66.2453 173.526H63.7696L66.211 162.144ZM71.8578 173.595C71.0097 173.595 70.3391 173.377 69.8463 172.941C69.3534 172.506 69.107 171.818 69.107 170.878C69.107 170.099 69.2675 169.234 69.5884 168.282C69.9093 167.331 70.4251 166.511 71.1357 165.824C71.8464 165.124 72.7404 164.775 73.8178 164.775C75.2849 164.775 76.0185 165.692 76.0185 167.526V167.543C76.0529 167.554 76.1159 167.56 76.2076 167.56C76.5859 167.56 77.0214 167.463 77.5143 167.268C78.0071 167.062 78.4541 166.815 78.8553 166.529L79.01 166.993C78.6777 167.348 78.2421 167.652 77.7034 167.904C77.1761 168.145 76.5973 168.317 75.9669 168.42C75.8752 169.463 75.6403 170.374 75.262 171.153C74.8838 171.933 74.3966 172.535 73.8006 172.959C73.2046 173.383 72.557 173.595 71.8578 173.595ZM72.5456 172.047C72.8206 172.047 73.0957 171.893 73.3708 171.583C73.6459 171.262 73.8866 170.832 74.0929 170.294C74.2992 169.744 74.4482 169.136 74.5399 168.471C74.2305 168.403 74.0757 168.162 74.0757 167.749C74.0757 167.279 74.2534 166.97 74.6087 166.821C74.5858 166.443 74.5285 166.185 74.4368 166.047C74.3451 165.898 74.1846 165.824 73.9554 165.824C73.5771 165.824 73.2103 166.099 72.855 166.649C72.4997 167.199 72.2132 167.858 71.9954 168.626C71.7776 169.394 71.6687 170.07 71.6687 170.655C71.6687 171.205 71.7318 171.577 71.8578 171.772C71.9839 171.956 72.2132 172.047 72.5456 172.047ZM78.9663 173.629C78.3129 173.629 77.7685 173.406 77.3329 172.959C76.8974 172.512 76.6796 171.812 76.6796 170.861C76.6796 170.013 76.8458 169.125 77.1782 168.196C77.5221 167.256 78.0264 166.465 78.6912 165.824C79.3674 165.17 80.1698 164.844 81.0982 164.844C81.5681 164.844 81.9177 164.924 82.1469 165.084C82.3762 165.245 82.4908 165.457 82.4908 165.72V165.789L83.3332 161.835L85.8778 161.491L83.9006 170.775C83.8547 170.947 83.8318 171.13 83.8318 171.325C83.8318 171.555 83.8834 171.721 83.9866 171.824C84.1012 171.916 84.2846 171.961 84.5367 171.961C84.8577 171.961 85.1327 171.824 85.362 171.549C85.6027 171.274 85.7918 170.907 85.9293 170.448H86.6514C85.9523 172.5 84.8003 173.526 83.1957 173.526C82.7257 173.526 82.3418 173.4 82.0438 173.148C81.7572 172.896 81.5796 172.529 81.5108 172.047C81.2128 172.506 80.8517 172.884 80.4276 173.182C80.015 173.48 79.5279 173.629 78.9663 173.629ZM80.0838 171.961C80.3589 171.961 80.634 171.835 80.909 171.583C81.1956 171.331 81.3904 170.981 81.4936 170.534V170.448L82.336 166.511C82.2329 166.11 81.9979 165.91 81.6311 165.91C81.1727 165.91 80.76 166.179 80.3933 166.718C80.0265 167.245 79.7399 167.887 79.5336 168.643C79.3273 169.388 79.2242 170.047 79.2242 170.62C79.2242 171.194 79.3044 171.56 79.4648 171.721C79.6368 171.881 79.8431 171.961 80.0838 171.961ZM88.4462 173.595C87.598 173.595 86.9275 173.377 86.4346 172.941C85.9418 172.506 85.6954 171.818 85.6954 170.878C85.6954 170.087 85.8501 169.222 86.1596 168.282C86.469 167.331 86.9734 166.511 87.6725 165.824C88.3717 165.124 89.2657 164.775 90.3546 164.775C91.7071 164.775 92.4349 165.549 92.5381 167.096C92.7902 167.039 93.0137 166.901 93.2086 166.683C93.4035 166.454 93.5868 166.196 93.7588 165.91H94.3089C93.9995 166.529 93.7244 167.016 93.4837 167.371C93.243 167.715 92.9278 167.996 92.5381 168.213C92.4693 169.291 92.2458 170.236 91.8676 171.05C91.5008 171.864 91.0194 172.494 90.4234 172.941C89.8274 173.377 89.1683 173.595 88.4462 173.595ZM89.1339 172.047C89.558 172.047 89.9534 171.704 90.3202 171.016C90.687 170.328 90.9392 169.48 91.0767 168.471C90.8016 168.368 90.6641 168.11 90.6641 167.698C90.6641 167.251 90.8245 166.953 91.1455 166.804C91.1225 166.437 91.0595 166.185 90.9563 166.047C90.8647 165.898 90.7099 165.824 90.4921 165.824C90.1139 165.824 89.7529 166.099 89.409 166.649C89.0651 167.188 88.7843 167.847 88.5665 168.626C88.3602 169.394 88.2571 170.07 88.2571 170.655C88.2571 171.205 88.3201 171.577 88.4462 171.772C88.5723 171.956 88.8015 172.047 89.1339 172.047ZM99.3482 164.293H101.824L101.549 165.583C102.122 165.09 102.792 164.844 103.56 164.844C104.202 164.844 104.712 165.056 105.091 165.48C105.469 165.904 105.658 166.597 105.658 167.56C105.658 168.466 105.526 169.383 105.262 170.311C104.999 171.228 104.552 172.013 103.921 172.666C103.291 173.308 102.46 173.629 101.429 173.629C100.695 173.629 100.208 173.423 99.9671 173.01L99.0731 177.205L96.477 177.824L99.3482 164.293ZM100.896 172.133C101.446 172.133 101.898 171.875 102.254 171.36C102.621 170.844 102.884 170.231 103.045 169.52C103.217 168.798 103.303 168.127 103.303 167.509C103.303 166.557 103.016 166.082 102.443 166.082C102.237 166.082 102.025 166.156 101.807 166.305C101.6 166.454 101.417 166.66 101.257 166.924L100.242 171.738C100.334 172.002 100.552 172.133 100.896 172.133ZM108.542 173.629C107.694 173.629 107.035 173.411 106.565 172.976C106.095 172.529 105.86 171.835 105.86 170.896C105.86 170.105 106.015 169.234 106.325 168.282C106.634 167.331 107.138 166.511 107.838 165.824C108.537 165.124 109.425 164.775 110.502 164.775C111.763 164.775 112.394 165.325 112.394 166.425C112.394 167.067 112.21 167.658 111.843 168.196C111.477 168.735 110.99 169.17 110.382 169.503C109.775 169.824 109.127 170.007 108.439 170.053C108.416 170.397 108.405 170.626 108.405 170.741C108.405 171.302 108.502 171.686 108.697 171.893C108.892 172.088 109.207 172.185 109.643 172.185C110.262 172.185 110.789 172.042 111.224 171.755C111.672 171.469 112.159 171.033 112.686 170.448H113.27C111.998 172.569 110.422 173.629 108.542 173.629ZM108.577 169.228C109.001 169.205 109.402 169.056 109.78 168.781C110.17 168.506 110.479 168.156 110.709 167.732C110.949 167.308 111.07 166.861 111.07 166.391C111.07 165.921 110.926 165.686 110.64 165.686C110.227 165.686 109.82 166.047 109.419 166.769C109.03 167.491 108.749 168.311 108.577 169.228ZM114.298 173.629C113.714 173.629 113.278 173.451 112.992 173.096C112.717 172.741 112.579 172.271 112.579 171.686C112.579 171.388 112.613 171.085 112.682 170.775L113.783 165.617H113.215L113.353 164.93H113.92L114.436 162.557L116.98 162.213C116.877 162.649 116.82 162.907 116.809 162.987C116.728 163.308 116.591 163.955 116.396 164.93H117.427L117.29 165.617H116.258L115.158 170.775C115.101 171.027 115.072 171.228 115.072 171.377C115.072 171.79 115.273 171.996 115.674 171.996C115.88 171.996 116.029 171.979 116.121 171.944C115.892 172.609 115.622 173.056 115.313 173.285C115.003 173.515 114.665 173.629 114.298 173.629ZM126.302 160.631H128.107L126.027 163.881H124.737L126.302 160.631ZM123.602 173.629C122.766 173.629 122.112 173.411 121.643 172.976C121.173 172.529 120.938 171.835 120.938 170.896C120.938 170.105 121.092 169.234 121.402 168.282C121.711 167.331 122.216 166.511 122.915 165.824C123.614 165.124 124.502 164.775 125.58 164.775C126.84 164.775 127.471 165.325 127.471 166.425C127.471 167.067 127.287 167.658 126.921 168.196C126.554 168.735 126.067 169.17 125.459 169.503C124.852 169.824 124.204 170.007 123.517 170.053C123.494 170.305 123.482 170.477 123.482 170.569C123.482 171.52 123.837 171.996 124.548 171.996C124.869 171.996 125.213 171.91 125.58 171.738C125.946 171.566 126.279 171.348 126.577 171.085C126.267 172.781 125.276 173.629 123.602 173.629ZM123.637 169.228C124.072 169.216 124.479 169.073 124.858 168.798C125.247 168.523 125.557 168.173 125.786 167.749C126.027 167.314 126.147 166.861 126.147 166.391C126.147 165.921 126.004 165.686 125.717 165.686C125.316 165.686 124.915 166.053 124.514 166.786C124.124 167.509 123.832 168.322 123.637 169.228ZM133.66 173.629C132.812 173.629 132.153 173.411 131.683 172.976C131.213 172.529 130.978 171.835 130.978 170.896C130.978 170.105 131.133 169.234 131.442 168.282C131.752 167.331 132.256 166.511 132.955 165.824C133.654 165.124 134.543 164.775 135.62 164.775C136.881 164.775 137.511 165.325 137.511 166.425C137.511 167.067 137.328 167.658 136.961 168.196C136.594 168.735 136.107 169.17 135.5 169.503C134.892 169.824 134.245 170.007 133.557 170.053C133.534 170.397 133.522 170.626 133.522 170.741C133.522 171.302 133.62 171.686 133.815 171.893C134.01 172.088 134.325 172.185 134.76 172.185C135.379 172.185 135.907 172.042 136.342 171.755C136.789 171.469 137.276 171.033 137.803 170.448H138.388C137.116 172.569 135.54 173.629 133.66 173.629ZM133.694 169.228C134.118 169.205 134.52 169.056 134.898 168.781C135.288 168.506 135.597 168.156 135.826 167.732C136.067 167.308 136.187 166.861 136.187 166.391C136.187 165.921 136.044 165.686 135.758 165.686C135.345 165.686 134.938 166.047 134.537 166.769C134.147 167.491 133.866 168.311 133.694 169.228ZM139.76 173.629C139.21 173.629 138.745 173.526 138.367 173.32C137.989 173.102 137.708 172.827 137.525 172.494C137.341 172.151 137.25 171.795 137.25 171.428C137.25 171.05 137.341 170.724 137.525 170.448C137.697 170.162 137.909 169.956 138.161 169.83C138.608 169.027 138.998 168.219 139.33 167.405C139.662 166.58 139.978 165.692 140.276 164.74L142.82 164.397C142.877 165.864 142.975 167.451 143.112 169.159C143.17 169.847 143.198 170.345 143.198 170.655C143.198 170.918 143.175 171.136 143.13 171.308C143.668 170.999 144.081 170.712 144.367 170.448H145.09C144.356 171.297 143.479 172.013 142.459 172.598C142.127 172.953 141.714 173.217 141.221 173.388C140.74 173.549 140.253 173.629 139.76 173.629ZM139.21 172.271C139.634 172.271 139.989 172.145 140.276 171.893C140.562 171.641 140.705 171.234 140.705 170.672C140.705 170.328 140.671 169.847 140.602 169.228C140.488 167.921 140.413 167.044 140.379 166.597C140.104 167.503 139.639 168.586 138.986 169.847C139.25 169.984 139.382 170.185 139.382 170.448C139.382 170.666 139.307 170.861 139.158 171.033C139.021 171.205 138.843 171.291 138.625 171.291C138.384 171.291 138.23 171.216 138.161 171.067C138.161 171.48 138.241 171.784 138.402 171.979C138.574 172.174 138.843 172.271 139.21 172.271ZM145.671 164.293H148.147L147.872 165.583C148.445 165.09 149.116 164.844 149.884 164.844C150.525 164.844 151.035 165.056 151.414 165.48C151.792 165.904 151.981 166.597 151.981 167.56C151.981 168.466 151.849 169.383 151.586 170.311C151.322 171.228 150.875 172.013 150.245 172.666C149.614 173.308 148.783 173.629 147.752 173.629C147.018 173.629 146.531 173.423 146.29 173.01L145.396 177.205L142.8 177.824L145.671 164.293ZM147.219 172.133C147.769 172.133 148.222 171.875 148.577 171.36C148.944 170.844 149.207 170.231 149.368 169.52C149.54 168.798 149.626 168.127 149.626 167.509C149.626 166.557 149.339 166.082 148.766 166.082C148.56 166.082 148.348 166.156 148.13 166.305C147.924 166.454 147.74 166.66 147.58 166.924L146.565 171.738C146.657 172.002 146.875 172.133 147.219 172.133ZM154.866 173.629C154.017 173.629 153.358 173.411 152.888 172.976C152.418 172.529 152.183 171.835 152.183 170.896C152.183 170.105 152.338 169.234 152.648 168.282C152.957 167.331 153.461 166.511 154.161 165.824C154.86 165.124 155.748 164.775 156.826 164.775C158.086 164.775 158.717 165.325 158.717 166.425C158.717 167.067 158.533 167.658 158.167 168.196C157.8 168.735 157.313 169.17 156.705 169.503C156.098 169.824 155.45 170.007 154.762 170.053C154.739 170.397 154.728 170.626 154.728 170.741C154.728 171.302 154.825 171.686 155.02 171.893C155.215 172.088 155.53 172.185 155.966 172.185C156.585 172.185 157.112 172.042 157.548 171.755C157.995 171.469 158.482 171.033 159.009 170.448H159.594C158.321 172.569 156.745 173.629 154.866 173.629ZM154.9 169.228C155.324 169.205 155.725 169.056 156.103 168.781C156.493 168.506 156.803 168.156 157.032 167.732C157.273 167.308 157.393 166.861 157.393 166.391C157.393 165.921 157.25 165.686 156.963 165.686C156.55 165.686 156.144 166.047 155.742 166.769C155.353 167.491 155.072 168.311 154.9 169.228ZM161.464 173.629C160.616 173.629 159.957 173.411 159.487 172.976C159.017 172.529 158.782 171.835 158.782 170.896C158.782 170.105 158.937 169.234 159.246 168.282C159.567 167.331 160.071 166.511 160.759 165.824C161.458 165.124 162.341 164.775 163.407 164.775C164.094 164.775 164.582 164.924 164.868 165.222C165.166 165.52 165.315 165.898 165.315 166.357C165.315 166.758 165.229 167.067 165.057 167.285C164.885 167.503 164.668 167.612 164.404 167.612C164.209 167.612 164.008 167.543 163.802 167.405C163.94 167.027 164.008 166.689 164.008 166.391C164.008 166.173 163.968 166.001 163.888 165.875C163.808 165.749 163.688 165.686 163.527 165.686C163.183 165.686 162.839 165.967 162.496 166.529C162.152 167.09 161.871 167.772 161.653 168.574C161.435 169.377 161.326 170.099 161.326 170.741C161.326 171.302 161.424 171.686 161.619 171.893C161.814 172.088 162.129 172.185 162.564 172.185C163.183 172.185 163.71 172.042 164.146 171.755C164.593 171.469 165.08 171.033 165.607 170.448H166.192C164.92 172.569 163.344 173.629 161.464 173.629ZM168.475 164.001C168.097 164.001 167.776 163.869 167.512 163.606C167.249 163.342 167.117 163.021 167.117 162.643C167.117 162.265 167.249 161.944 167.512 161.68C167.776 161.405 168.097 161.268 168.475 161.268C168.853 161.268 169.174 161.405 169.438 161.68C169.713 161.944 169.85 162.265 169.85 162.643C169.85 163.021 169.713 163.342 169.438 163.606C169.174 163.869 168.853 164.001 168.475 164.001ZM167.306 173.629C166.756 173.629 166.309 173.457 165.965 173.113C165.632 172.77 165.466 172.254 165.466 171.566C165.466 171.279 165.512 170.907 165.604 170.448L166.773 164.93H169.249L168.011 170.775C167.965 170.947 167.942 171.13 167.942 171.325C167.942 171.555 167.994 171.721 168.097 171.824C168.211 171.916 168.395 171.961 168.647 171.961C168.979 171.961 169.289 171.824 169.575 171.549C169.862 171.262 170.068 170.896 170.194 170.448H170.916C170.492 171.686 169.948 172.529 169.283 172.976C168.618 173.411 167.959 173.629 167.306 173.629ZM172.251 173.629C171.597 173.629 171.053 173.406 170.617 172.959C170.182 172.512 169.964 171.812 169.964 170.861C169.964 170.013 170.13 169.125 170.463 168.196C170.806 167.256 171.311 166.465 171.975 165.824C172.652 165.17 173.454 164.844 174.382 164.844C174.852 164.844 175.202 164.924 175.431 165.084C175.66 165.245 175.775 165.457 175.775 165.72V165.841L175.964 164.93H178.44L177.202 170.775C177.156 170.947 177.133 171.13 177.133 171.325C177.133 171.818 177.368 172.065 177.838 172.065C178.159 172.065 178.434 171.916 178.663 171.618C178.904 171.32 179.093 170.93 179.231 170.448H179.953C179.529 171.686 179.002 172.529 178.371 172.976C177.752 173.411 177.128 173.629 176.497 173.629C176.016 173.629 175.626 173.497 175.328 173.234C175.042 172.959 174.87 172.563 174.812 172.047C174.48 172.517 174.107 172.901 173.695 173.199C173.294 173.486 172.812 173.629 172.251 173.629ZM173.368 171.961C173.655 171.961 173.935 171.83 174.211 171.566C174.497 171.291 174.692 170.918 174.795 170.448L175.62 166.563C175.62 166.414 175.563 166.271 175.448 166.133C175.334 165.984 175.156 165.91 174.915 165.91C174.457 165.91 174.044 166.179 173.678 166.718C173.311 167.245 173.024 167.887 172.818 168.643C172.612 169.388 172.508 170.047 172.508 170.62C172.508 171.194 172.589 171.56 172.749 171.721C172.921 171.881 173.127 171.961 173.368 171.961ZM180.905 173.629C180.355 173.629 179.908 173.457 179.564 173.113C179.231 172.758 179.065 172.231 179.065 171.532C179.065 171.245 179.111 170.873 179.203 170.414L181.042 161.801L183.587 161.457L181.61 170.741C181.564 170.913 181.541 171.079 181.541 171.239C181.541 171.698 181.776 171.927 182.246 171.927C182.452 171.927 182.636 171.893 182.796 171.824C182.75 172.397 182.544 172.844 182.177 173.165C181.822 173.474 181.398 173.629 180.905 173.629ZM184.688 173.595C184.31 173.595 183.989 173.463 183.725 173.199C183.461 172.936 183.33 172.615 183.33 172.237C183.33 171.858 183.461 171.537 183.725 171.274C183.989 170.999 184.31 170.861 184.688 170.861C185.066 170.861 185.387 170.999 185.651 171.274C185.926 171.537 186.063 171.858 186.063 172.237C186.063 172.615 185.926 172.936 185.651 173.199C185.387 173.463 185.066 173.595 184.688 173.595ZM194.788 175.486C194.364 175.486 193.992 175.452 193.671 175.383C193.35 175.314 193.069 175.148 192.828 174.884C192.599 174.621 192.485 174.214 192.485 173.664C192.485 172.896 192.714 171.864 193.172 170.569C193.642 169.274 194.255 167.973 195.012 166.666C194.439 166.7 193.986 166.786 193.654 166.924C193.321 167.062 193.104 167.274 193 167.56C193.046 167.56 193.092 167.617 193.138 167.732C193.195 167.847 193.224 167.967 193.224 168.093C193.224 168.299 193.132 168.466 192.949 168.592C192.765 168.706 192.536 168.764 192.261 168.764C191.94 168.764 191.682 168.678 191.487 168.506C191.293 168.334 191.195 168.087 191.195 167.766C191.195 167.377 191.344 167.021 191.642 166.7C191.952 166.38 192.376 166.127 192.914 165.944C193.453 165.749 194.049 165.652 194.702 165.652C194.943 165.652 195.241 165.669 195.596 165.703C196.536 164.213 197.528 162.998 198.571 162.058C199.625 161.107 200.628 160.631 201.58 160.631C202.13 160.631 202.582 160.712 202.938 160.872L200.239 173.526H197.763L199.087 167.285C198.663 167.09 198.273 166.947 197.918 166.855C197.562 166.764 197.184 166.7 196.783 166.666C196.129 168.076 195.591 169.52 195.167 170.999C194.754 172.466 194.548 173.641 194.548 174.523C194.548 174.959 194.628 175.28 194.788 175.486ZM200.239 161.852C199.746 162.116 199.23 162.609 198.691 163.331C198.164 164.041 197.648 164.907 197.144 165.927C197.969 166.087 198.668 166.288 199.241 166.529L200.239 161.852ZM204.227 173.629C203.677 173.629 203.23 173.457 202.886 173.113C202.553 172.77 202.387 172.254 202.387 171.566C202.387 171.279 202.433 170.907 202.525 170.448L204.364 161.835L206.909 161.491L204.932 170.775C204.886 170.947 204.863 171.13 204.863 171.325C204.863 171.555 204.914 171.721 205.018 171.824C205.132 171.916 205.316 171.961 205.568 171.961C205.9 171.961 206.21 171.824 206.496 171.549C206.783 171.262 206.989 170.896 207.115 170.448H207.837C207.413 171.686 206.869 172.529 206.204 172.976C205.539 173.411 204.88 173.629 204.227 173.629ZM210.151 177.824C209.601 177.824 209.143 177.681 208.776 177.394C208.409 177.108 208.226 176.695 208.226 176.156C208.226 175.503 208.489 174.976 209.017 174.575C209.544 174.185 210.214 173.858 211.028 173.595L211.235 172.684C210.65 173.314 209.962 173.629 209.171 173.629C208.518 173.629 207.974 173.406 207.538 172.959C207.103 172.512 206.885 171.812 206.885 170.861C206.885 170.013 207.051 169.125 207.383 168.196C207.727 167.256 208.232 166.465 208.896 165.824C209.573 165.17 210.375 164.844 211.303 164.844C211.773 164.844 212.123 164.924 212.352 165.084C212.581 165.245 212.696 165.457 212.696 165.72V165.824L212.885 164.93H215.361L213.659 172.907C214.209 172.724 214.65 172.449 214.983 172.082C215.315 171.715 215.596 171.171 215.825 170.448H216.547C216.238 171.469 215.819 172.219 215.292 172.701C214.765 173.171 214.169 173.492 213.504 173.664L213.246 174.901C213.017 176.013 212.621 176.775 212.06 177.188C211.498 177.612 210.862 177.824 210.151 177.824ZM210.289 171.961C210.553 171.961 210.822 171.841 211.097 171.6C211.372 171.36 211.561 171.033 211.664 170.62L212.541 166.546C212.541 166.408 212.484 166.271 212.369 166.133C212.255 165.984 212.077 165.91 211.836 165.91C211.378 165.91 210.965 166.179 210.598 166.718C210.232 167.245 209.945 167.887 209.739 168.643C209.532 169.388 209.429 170.047 209.429 170.62C209.429 171.194 209.51 171.56 209.67 171.721C209.842 171.881 210.048 171.961 210.289 171.961ZM209.756 176.483C209.951 176.483 210.14 176.351 210.323 176.088C210.507 175.824 210.65 175.446 210.753 174.953L210.856 174.454C209.733 174.867 209.171 175.354 209.171 175.916C209.171 176.065 209.223 176.197 209.326 176.311C209.429 176.426 209.573 176.483 209.756 176.483ZM217.524 173.629C216.974 173.629 216.527 173.457 216.183 173.113C215.851 172.77 215.685 172.254 215.685 171.566C215.685 171.279 215.73 170.907 215.822 170.448L216.991 164.93H219.467L218.229 170.775C218.195 170.947 218.178 171.108 218.178 171.257C218.178 171.726 218.35 171.961 218.693 171.961C219.014 171.961 219.289 171.83 219.519 171.566C219.748 171.291 219.931 170.918 220.069 170.448L221.238 164.93H223.714L222.476 170.775C222.43 170.947 222.407 171.13 222.407 171.325C222.407 171.555 222.459 171.721 222.562 171.824C222.676 171.916 222.86 171.961 223.112 171.961C223.433 171.961 223.708 171.824 223.937 171.549C224.178 171.274 224.367 170.907 224.505 170.448H225.227C224.803 171.686 224.275 172.529 223.645 172.976C223.026 173.411 222.401 173.629 221.771 173.629C221.278 173.629 220.883 173.492 220.585 173.217C220.298 172.941 220.126 172.535 220.069 171.996C219.679 172.626 219.266 173.056 218.831 173.285C218.407 173.515 217.971 173.629 217.524 173.629ZM230.709 173.629C230.01 173.629 229.494 173.446 229.162 173.079C228.841 172.701 228.68 172.237 228.68 171.686C228.68 171.446 228.709 171.176 228.766 170.878C228.824 170.569 228.881 170.271 228.938 169.984C229.007 169.698 229.053 169.514 229.076 169.434C229.168 169.033 229.253 168.638 229.334 168.248C229.414 167.858 229.454 167.543 229.454 167.302C229.454 166.718 229.248 166.425 228.835 166.425C228.537 166.425 228.273 166.574 228.044 166.872C227.815 167.159 227.632 167.537 227.494 168.007L226.325 173.526H223.849L225.672 164.93H228.147L227.958 165.824C228.531 165.182 229.202 164.861 229.97 164.861C230.554 164.861 231.019 165.021 231.362 165.342C231.706 165.663 231.878 166.15 231.878 166.804C231.878 167.136 231.838 167.509 231.758 167.921C231.678 168.322 231.563 168.815 231.414 169.4C231.322 169.755 231.236 170.105 231.156 170.448C231.087 170.781 231.053 171.045 231.053 171.239C231.053 171.469 231.105 171.646 231.208 171.772C231.311 171.898 231.489 171.961 231.741 171.961C232.085 171.961 232.36 171.841 232.566 171.6C232.772 171.348 232.979 170.964 233.185 170.448H233.907C233.483 171.709 232.99 172.557 232.428 172.993C231.878 173.417 231.305 173.629 230.709 173.629ZM235.143 173.629C234.593 173.629 234.128 173.526 233.75 173.32C233.372 173.102 233.091 172.827 232.908 172.494C232.724 172.151 232.633 171.795 232.633 171.428C232.633 171.05 232.724 170.724 232.908 170.448C233.08 170.162 233.292 169.956 233.544 169.83C233.991 169.027 234.381 168.219 234.713 167.405C235.045 166.58 235.361 165.692 235.659 164.74L238.203 164.397C238.26 165.864 238.358 167.451 238.495 169.159C238.553 169.847 238.581 170.345 238.581 170.655C238.581 171.354 238.404 171.927 238.048 172.374C237.693 172.821 237.252 173.142 236.725 173.337C236.209 173.532 235.682 173.629 235.143 173.629ZM234.593 172.271C235.017 172.271 235.372 172.145 235.659 171.893C235.945 171.641 236.088 171.234 236.088 170.672C236.088 170.328 236.054 169.847 235.985 169.228C235.871 167.921 235.796 167.044 235.762 166.597C235.487 167.503 235.023 168.586 234.369 169.847C234.633 169.984 234.765 170.185 234.765 170.448C234.765 170.666 234.69 170.861 234.541 171.033C234.404 171.205 234.226 171.291 234.008 171.291C233.767 171.291 233.613 171.216 233.544 171.067C233.544 171.48 233.624 171.784 233.785 171.979C233.957 172.174 234.226 172.271 234.593 172.271ZM239.328 175.692C239.225 175.624 239.173 175.526 239.173 175.4C239.173 175.262 239.207 175.142 239.276 175.039C239.345 174.936 239.459 174.798 239.62 174.626C239.78 174.454 239.895 174.317 239.964 174.214C240.033 174.111 240.067 173.984 240.067 173.835C240.067 173.709 239.992 173.595 239.843 173.492C239.305 173.148 239.035 172.729 239.035 172.237C239.035 171.858 239.167 171.537 239.431 171.274C239.694 170.999 240.015 170.861 240.394 170.861C240.76 170.861 241.047 170.981 241.253 171.222C241.46 171.463 241.563 171.778 241.563 172.168C241.563 172.706 241.356 173.314 240.944 173.99C240.543 174.666 240.004 175.234 239.328 175.692ZM256.514 173.629C255.815 173.629 255.299 173.446 254.967 173.079C254.646 172.701 254.485 172.237 254.485 171.686C254.485 171.446 254.514 171.176 254.571 170.878C254.628 170.569 254.686 170.271 254.743 169.984C254.812 169.698 254.858 169.514 254.881 169.434C254.972 169.033 255.058 168.638 255.138 168.248C255.219 167.858 255.259 167.543 255.259 167.302C255.259 166.718 255.052 166.425 254.64 166.425C254.342 166.425 254.078 166.574 253.849 166.872C253.62 167.159 253.436 167.537 253.299 168.007L252.13 173.526H249.654L250.909 167.594C250.943 167.457 250.961 167.314 250.961 167.165C250.961 166.66 250.789 166.408 250.445 166.408C250.124 166.408 249.843 166.557 249.602 166.855C249.373 167.142 249.19 167.526 249.052 168.007L247.883 173.526H245.407L247.23 164.93H249.706L249.516 165.824C250.101 165.17 250.8 164.844 251.614 164.844C252.623 164.844 253.213 165.337 253.385 166.322C254.015 165.348 254.812 164.861 255.775 164.861C256.359 164.861 256.823 165.021 257.167 165.342C257.511 165.663 257.683 166.15 257.683 166.804C257.683 167.136 257.643 167.509 257.563 167.921C257.482 168.322 257.368 168.815 257.219 169.4C257.127 169.755 257.041 170.105 256.961 170.448C256.892 170.781 256.858 171.045 256.858 171.239C256.858 171.469 256.909 171.646 257.012 171.772C257.116 171.898 257.293 171.961 257.545 171.961C257.889 171.961 258.164 171.841 258.371 171.6C258.577 171.348 258.783 170.964 258.99 170.448H259.712C259.288 171.709 258.795 172.557 258.233 172.993C257.683 173.417 257.11 173.629 256.514 173.629ZM261.052 173.629C260.399 173.629 259.854 173.406 259.419 172.959C258.983 172.512 258.765 171.812 258.765 170.861C258.765 170.013 258.932 169.125 259.264 168.196C259.608 167.256 260.112 166.465 260.777 165.824C261.453 165.17 262.255 164.844 263.184 164.844C263.654 164.844 264.003 164.924 264.233 165.084C264.462 165.245 264.577 165.457 264.577 165.72V165.841L264.766 164.93H267.241L266.004 170.775C265.958 170.947 265.935 171.13 265.935 171.325C265.935 171.818 266.17 172.065 266.64 172.065C266.961 172.065 267.236 171.916 267.465 171.618C267.706 171.32 267.895 170.93 268.032 170.448H268.754C268.33 171.686 267.803 172.529 267.173 172.976C266.554 173.411 265.929 173.629 265.299 173.629C264.817 173.629 264.427 173.497 264.129 173.234C263.843 172.959 263.671 172.563 263.614 172.047C263.281 172.517 262.909 172.901 262.496 173.199C262.095 173.486 261.614 173.629 261.052 173.629ZM262.17 171.961C262.456 171.961 262.737 171.83 263.012 171.566C263.299 171.291 263.493 170.918 263.597 170.448L264.422 166.563C264.422 166.414 264.364 166.271 264.25 166.133C264.135 165.984 263.958 165.91 263.717 165.91C263.258 165.91 262.846 166.179 262.479 166.718C262.112 167.245 261.826 167.887 261.619 168.643C261.413 169.388 261.31 170.047 261.31 170.62C261.31 171.194 261.39 171.56 261.551 171.721C261.722 171.881 261.929 171.961 262.17 171.961ZM270.91 164.001C270.532 164.001 270.211 163.869 269.947 163.606C269.683 163.342 269.552 163.021 269.552 162.643C269.552 162.265 269.683 161.944 269.947 161.68C270.211 161.405 270.532 161.268 270.91 161.268C271.288 161.268 271.609 161.405 271.873 161.68C272.148 161.944 272.285 162.265 272.285 162.643C272.285 163.021 272.148 163.342 271.873 163.606C271.609 163.869 271.288 164.001 270.91 164.001ZM269.741 173.629C269.19 173.629 268.743 173.457 268.4 173.113C268.067 172.77 267.901 172.254 267.901 171.566C267.901 171.279 267.947 170.907 268.039 170.448L269.208 164.93H271.683L270.446 170.775C270.4 170.947 270.377 171.13 270.377 171.325C270.377 171.555 270.428 171.721 270.532 171.824C270.646 171.916 270.83 171.961 271.082 171.961C271.414 171.961 271.724 171.824 272.01 171.549C272.297 171.262 272.503 170.896 272.629 170.448H273.351C272.927 171.686 272.383 172.529 271.718 172.976C271.053 173.411 270.394 173.629 269.741 173.629ZM274.582 173.629C274.032 173.629 273.568 173.526 273.19 173.32C272.811 173.102 272.53 172.827 272.347 172.494C272.164 172.151 272.072 171.795 272.072 171.428C272.072 171.05 272.164 170.724 272.347 170.448C272.519 170.162 272.731 169.956 272.983 169.83C273.43 169.027 273.82 168.219 274.152 167.405C274.485 166.58 274.8 165.692 275.098 164.74L277.642 164.397C277.7 165.864 277.797 167.451 277.935 169.159C277.992 169.847 278.021 170.345 278.021 170.655C278.021 171.354 277.843 171.927 277.488 172.374C277.132 172.821 276.691 173.142 276.164 173.337C275.648 173.532 275.121 173.629 274.582 173.629ZM274.032 172.271C274.456 172.271 274.811 172.145 275.098 171.893C275.384 171.641 275.528 171.234 275.528 170.672C275.528 170.328 275.493 169.847 275.425 169.228C275.31 167.921 275.235 167.044 275.201 166.597C274.926 167.503 274.462 168.586 273.808 169.847C274.072 169.984 274.204 170.185 274.204 170.448C274.204 170.666 274.129 170.861 273.98 171.033C273.843 171.205 273.665 171.291 273.447 171.291C273.207 171.291 273.052 171.216 272.983 171.067C272.983 171.48 273.063 171.784 273.224 171.979C273.396 172.174 273.665 172.271 274.032 172.271ZM279.953 173.595C279.575 173.595 279.254 173.463 278.99 173.199C278.727 172.936 278.595 172.615 278.595 172.237C278.595 171.858 278.727 171.537 278.99 171.274C279.254 170.999 279.575 170.861 279.953 170.861C280.332 170.861 280.652 170.999 280.916 171.274C281.191 171.537 281.329 171.858 281.329 172.237C281.329 172.615 281.191 172.936 280.916 173.199C280.652 173.463 280.332 173.595 279.953 173.595Z" fill="#C9C9C9"/>
</g>
<defs>
<filter id="filter0_d_112_33903" x="84.3524" y="134.856" width="175.256" height="16.8346" filterUnits="userSpaceOnUse" color-interpolation-filters="sRGB">
<feFlood flood-opacity="0" result="BackgroundImageFix"/>
<feColorMatrix in="SourceAlpha" type="matrix" values="0 0 0 0 0 0 0 0 0 0 0 0 0 0 0 0 0 0 127 0" result="hardAlpha"/>
<feOffset dy="1.07455"/>
<feGaussianBlur stdDeviation="0.716366"/>
<feComposite in2="hardAlpha" operator="out"/>
<feColorMatrix type="matrix" values="0 0 0 0 0 0 0 0 0 0 0 0 0 0 0 0 0 0 0.25 0"/>
<feBlend mode="normal" in2="BackgroundImageFix" result="effect1_dropShadow_112_33903"/>
<feBlend mode="normal" in="SourceGraphic" in2="effect1_dropShadow_112_33903" result="shape"/>
</filter>
<filter id="filter1_d_112_33903" x="60.0988" y="160.631" width="222.304" height="19.3419" filterUnits="userSpaceOnUse" color-interpolation-filters="sRGB">
<feFlood flood-opacity="0" result="BackgroundImageFix"/>
<feColorMatrix in="SourceAlpha" type="matrix" values="0 0 0 0 0 0 0 0 0 0 0 0 0 0 0 0 0 0 127 0" result="hardAlpha"/>
<feOffset dy="1.07455"/>
<feGaussianBlur stdDeviation="0.537275"/>
<feComposite in2="hardAlpha" operator="out"/>
<feColorMatrix type="matrix" values="0 0 0 0 0 0 0 0 0 0 0 0 0 0 0 0 0 0 0.25 0"/>
<feBlend mode="normal" in2="BackgroundImageFix" result="effect1_dropShadow_112_33903"/>
<feBlend mode="normal" in="SourceGraphic" in2="effect1_dropShadow_112_33903" result="shape"/>
</filter>
</defs>
</svg>
