<svg width="300" height="170" viewBox="0 0 300 170" fill="none" xmlns="http://www.w3.org/2000/svg">
<path d="M88.5214 15.5394C90.5315 14.8166 93.2621 13.6523 95.5568 13.5293C97.4122 13.3746 99.4223 13.1448 101.129 13.1448L101.278 13.9364C98.0286 13.9973 94.6296 13.4991 91.5461 14.8166C89.282 15.4366 87.2503 16.732 85.739 18.5312C84.0395 20.3525 83.1316 22.9986 80.7456 24.0892C80.666 24.0128 80.2603 23.6959 80.3415 23.6463L82.0273 22.8839L82.8769 21.8638C82.7692 21.5886 86.2041 16.7994 88.5214 15.5394Z" fill="#5C4635"/>
<path d="M168.246 42.3022C173.621 41.8427 179.063 41.804 184.433 42.3354C181.93 42.7063 179.4 42.3576 176.887 42.4074C174.008 42.3354 171.113 42.6953 168.246 42.3022Z" fill="#C97734"/>
<path d="M199.363 76.8627C200.78 76.8793 202.042 76.0544 203.459 76.1652C206.881 76.4475 210.368 78.3574 211.697 81.6789C214.132 86.2349 211.486 92.2579 206.803 94.1346C201.096 96.8029 194.154 91.9645 193.844 85.8751C193.744 83.5555 194.79 81.3744 196.003 79.459C196.29 79.4645 196.872 79.4811 197.16 79.4867C198.687 81.6512 200.675 83.5057 201.837 85.9194C202.12 87.259 203.753 86.7663 204.699 86.5449C204.793 86.0578 204.816 85.5706 204.766 85.089C203.133 83.3673 202.136 81.1585 200.464 79.4701C199.983 78.6895 198.732 77.9034 199.363 76.8627Z" fill="#C97734"/>
<path d="M219.951 78.4708L220.953 77.6266C222.392 78.8334 224.031 79.769 225.459 80.998C223.621 81.1696 221.567 78.9469 219.951 78.4708Z" fill="#B85300"/>
<path d="M111.796 84.2807C112.937 85.5374 114.315 86.6003 115.201 88.0673C114.083 88.9752 112.881 89.7613 111.708 90.5861C110.152 90.2041 108.563 90.6304 106.997 90.6249C106.831 88.8312 108.298 87.1871 109.643 86.091C110.263 85.2717 111.852 85.5761 111.796 84.2807Z" fill="#C97734"/>
<path d="M101.129 13.1448C102.189 13.1485 103.168 13.6764 104.09 13.7925C107.512 15.193 110.363 17.6454 113.003 20.1753C114.559 21.8582 116.347 23.7017 116.718 26.0157C116.524 27.5159 116.596 29.0272 116.685 30.5274C116.812 32.6089 116.363 34.707 116.773 36.7719C116.801 38.3994 116.568 40.0214 116.673 41.6434C116.983 42.3686 118.013 42.6011 117.98 43.5201C117.299 43.0606 116.613 42.6067 115.921 42.1694C116.092 36.8272 116.823 31.4408 116.153 26.0932C115.101 22.5281 112.106 20.0646 109.366 17.7617C107.058 16.0234 104.589 13.881 101.522 13.953L101.278 13.9364L101.129 13.1448Z" fill="#5B4843"/>
<path d="M91.5461 14.8166C94.6296 13.4991 98.0286 13.9973 101.278 13.9364L101.522 13.953C101.771 17.031 103.282 19.7767 104.03 22.7274C104.378 27.7816 101.549 32.2601 99.3628 36.6058C97.5636 40.5252 94.6296 44.5332 95.9305 49.0836C97.154 51.8516 99.8444 53.8833 102.773 54.5586C106.299 55.0735 110.551 54.8742 112.942 51.8294C114.946 49.056 115.876 45.5628 115.921 42.1694C116.613 42.6067 117.299 43.0606 117.98 43.5201C117.991 43.5312 118.008 43.5533 118.013 43.5644C120.028 46.4264 123.815 46.9745 127.075 47.0852C130.607 46.6091 134.194 46.205 137.588 45.0535C140.998 45.0314 144.309 44.129 147.702 43.9076C148.023 48.3363 149.772 52.6156 152.241 56.2858C155.64 61.3622 161.514 64.3793 167.504 65.027C170.41 65.1986 173.394 64.8221 176.212 65.73C179.528 66.6822 182.927 67.7728 185.761 69.7989C177.778 70.048 169.619 69.0239 161.841 71.2825C157.899 71.825 154.107 73.2644 150.559 75.0358C146.728 77.2502 142.62 78.9276 138.69 80.9149C137.655 81.2348 136.383 81.782 134.975 82.0996C131.155 83.3507 127.33 84.5022 123.316 84.9893C122.84 85.5927 122.314 86.1961 122.159 86.9767C121.473 89.418 120.416 91.732 119.685 94.1622C116.424 94.3394 113.142 94.5055 109.875 94.3837C110.213 92.9997 111.287 91.9424 111.708 90.5861C112.881 89.7613 114.083 88.9752 115.201 88.0673C114.315 86.6003 112.937 85.5374 111.796 84.2807C108.907 81.6124 105.967 78.994 103.26 76.1319C97.1097 69.0294 92.7474 60.2218 91.906 50.7998C92.1385 47.4616 92.2713 44.0737 92.0831 40.7356L91.6568 40.6359C87.7651 40.0602 83.9454 39.0803 80.0149 38.726C78.5202 38.5932 77.1196 37.9399 75.6194 37.8292C72.1429 37.6631 68.5501 35.8252 66.9115 32.6698C67.8803 31.3024 68.3176 29.6638 68.7715 28.0805C70.9029 26.9457 73.4438 26.9789 75.6083 25.8717C77.3466 25.3846 79.2011 25.1133 80.7456 24.0892C83.1316 22.9986 84.0395 20.3525 85.739 18.5312C87.2503 16.732 89.282 15.4366 91.5461 14.8166ZM89.6916 23.6408C89.38 24.1284 89.2911 25.1547 89.603 25.6946C89.7485 26.4809 90.3639 26.7455 91.0756 26.8737C92.454 26.3257 92.8249 25.058 92.454 23.674C91.4064 22.8248 90.5105 23.0379 89.6916 23.6408Z" fill="#B85300"/>
<path d="M155.319 43.1658C159.604 42.5901 163.933 42.5292 168.246 42.3022C171.113 42.6953 174.008 42.3354 176.887 42.4074C179.4 42.3576 181.93 42.7063 184.433 42.3354C188.878 42.7063 193.567 42.8558 197.503 45.1864C200.182 47.3398 202.042 50.296 204.445 52.7318C202.086 54.4701 199.053 53.9774 196.335 54.5254C186.353 54.9572 176.35 54.7081 166.363 54.5088C162.865 54.0936 159.338 54.005 155.818 54.0549C155.192 54.0549 154.572 54.0493 153.946 54.0272C151.605 51.0544 150.952 47.218 149.911 43.6751C151.627 42.9997 153.531 43.4315 155.319 43.1658Z" fill="#B85300"/>
<path d="M196.816 55.7987C199.756 55.854 202.74 55.4499 205.419 54.1822C210.894 61.8162 213.911 71.1607 220.953 77.6266L219.951 78.4708C218.954 77.3138 217.681 76.4807 216.579 75.4289C213.208 72.2624 210.423 68.5367 207.883 64.6893C207.545 64.1744 207.13 63.6928 206.449 63.7925C206.067 65.647 206.189 67.7229 207.346 69.2896C207.229 70.1421 207.229 71.0223 206.947 71.8472C205.037 71.7032 203.133 70.967 201.223 71.5759C199.036 71.6977 197.154 72.8602 195.144 73.5744C191.59 70.6293 187.953 67.6787 183.735 65.7356C178.736 63.1946 173.056 62.2867 167.493 62.3864C162.726 62.1206 158.491 59.5188 155.187 56.2139C155.513 55.8762 155.901 55.6824 156.344 55.6381C169.834 55.5717 183.336 56.9612 196.816 55.7987Z" fill="#B85300"/>
<path d="M101.522 13.953C104.589 13.881 107.058 16.0234 109.366 17.7617C112.106 20.0646 115.101 22.5281 116.153 26.0932C116.823 31.4408 116.092 36.8272 115.921 42.1694C115.876 45.5628 114.946 49.056 112.942 51.8294C110.551 54.8742 106.299 55.0735 102.773 54.5586C99.8444 53.8833 97.154 51.8516 95.9305 49.0836C94.6296 44.5332 97.5636 40.5252 99.3628 36.6058C101.549 32.2601 104.378 27.7816 104.03 22.7274C103.282 19.7767 101.771 17.031 101.522 13.953Z" fill="#62372D"/>
<path d="M147.702 43.9076C148.427 43.7194 149.169 43.6806 149.911 43.6751C150.952 47.218 151.605 51.0544 153.946 54.0272C154.572 54.0493 155.192 54.0549 155.818 54.0549C155.402 54.5531 155.004 55.0569 154.611 55.5662C154.755 55.7267 155.043 56.0533 155.187 56.2139C158.491 59.5188 162.726 62.1206 167.493 62.3864C173.056 62.2867 178.736 63.1946 183.735 65.7356C187.953 67.6787 191.59 70.6293 195.144 73.5744C197.154 72.8602 199.036 71.6977 201.223 71.5759C203.133 70.967 205.037 71.7032 206.947 71.8472C207.229 71.0223 207.229 70.1421 207.346 69.2896C208.303 70.585 208.801 72.1904 209.82 73.4249C212.427 75.0192 214.658 77.3166 215.854 80.1565C217.764 84.4136 217.183 89.6616 214.387 93.3983C212.217 96.6589 208.431 98.674 204.605 99.1501C198.051 99.8808 191.297 95.1587 190.007 88.6375C189.769 87.1428 189.243 85.6536 188.108 84.6074C184.731 80.9537 184.449 75.4234 186.282 70.967C186.149 70.6736 185.888 70.0923 185.761 69.7989C182.927 67.7728 179.528 66.6822 176.212 65.73C173.394 64.8221 170.41 65.1986 167.504 65.027C161.514 64.3793 155.64 61.3622 152.241 56.2858C149.772 52.6156 148.023 48.3363 147.702 43.9076ZM189.797 73.3197C188.734 75.3459 188.418 78.1691 190.184 79.9074C190.926 78.4792 191.873 77.1782 192.786 75.8607C192.819 74.4823 191.148 73.1979 189.797 73.3197ZM199.363 76.8627C198.732 77.9034 199.983 78.6895 200.464 79.4701C202.136 81.1585 203.133 83.3673 204.766 85.089C204.816 85.5706 204.793 86.0578 204.699 86.5449C203.753 86.7663 202.12 87.259 201.837 85.9194C200.675 83.5057 198.687 81.6512 197.16 79.4867C196.872 79.4811 196.29 79.4645 196.003 79.459C194.79 81.3744 193.744 83.5555 193.844 85.8751C194.154 91.9645 201.096 96.8029 206.803 94.1346C211.486 92.2579 214.132 86.2349 211.697 81.6789C210.368 78.3574 206.881 76.4475 203.459 76.1652C202.042 76.0544 200.78 76.8793 199.363 76.8627Z" fill="#62372D"/>
<path d="M89.6916 23.6408C90.5105 23.0379 91.4064 22.8248 92.454 23.674C92.8249 25.058 92.454 26.3257 91.0756 26.8737C90.3639 26.7455 89.7485 26.4809 89.603 25.6946C89.2911 25.1547 89.38 24.1284 89.6916 23.6408Z" fill="#29312F"/>
<path d="M70.543 26.9734C73.8426 25.9274 80.4402 23.8951 80.3415 23.6463C80.3415 23.6463 80.5878 23.9162 80.7456 24.0892C79.2011 25.1133 77.3466 25.3846 75.6083 25.8717C73.4438 26.9789 70.9029 26.9457 68.7715 28.0805C67.7474 28.3407 66.7343 28.6508 65.8707 29.2874C65.5275 30.5163 66.3911 31.6235 66.9115 32.6698C68.5501 35.8252 72.1429 37.6631 75.6194 37.8292C77.1196 37.9399 78.5202 38.5932 80.0149 38.726C83.9454 39.0803 87.7651 40.0602 91.6568 40.6359C91.906 44.0073 91.2693 47.445 91.906 50.7998C92.7474 60.2218 97.1097 69.0294 103.26 76.1319L102.773 76.3423C95.3216 67.9056 90.76 56.8062 91.1531 45.4798C90.9981 43.9851 91.7067 42.3576 91.0258 40.9625C88.0641 40.6415 85.1688 39.9993 82.2126 39.6339C78.0275 38.4548 73.2888 38.9143 69.5355 36.3899C67.3599 34.7347 65.2839 32.2934 65.2507 29.4479C66.2749 27.6931 68.694 27.4163 70.543 26.9734Z" fill="#5C4635"/>
<path d="M116.718 26.0157C117.548 29.4977 117.476 33.2787 116.773 36.7719C116.363 34.707 116.812 32.6089 116.685 30.5274C116.596 29.0272 116.524 27.5159 116.718 26.0157Z" fill="#45403F"/>
<path d="M65.8707 29.2874C66.7343 28.6508 67.7474 28.3407 68.7715 28.0805C68.3176 29.6638 67.8803 31.3024 66.9115 32.6698C66.3911 31.6235 65.5275 30.5163 65.8707 29.2874Z" fill="#423A2E"/>
<path d="M91.6568 40.6359L92.0831 40.7356C92.2713 44.0737 92.1385 47.4616 91.906 50.7998C91.2693 47.445 91.906 44.0073 91.6568 40.6359Z" fill="#AF6526"/>
<path d="M155.308 42.5126C159.909 41.9922 164.559 42.1804 169.154 41.5604C173.577 41.422 178.005 41.4663 182.429 41.5161C187.306 42.2081 192.471 41.9645 196.966 44.2675C199.363 45.6237 200.869 47.971 202.706 49.9362C203.614 50.8109 204.068 52.1838 205.413 52.4827C205.718 53.2245 205.79 54.0715 206.327 54.6915C211.83 62.3144 214.73 71.8804 222.193 78.0031C223.909 79.2265 225.642 80.6603 227.778 81.009C227.247 83.0241 225.243 81.2692 224.008 81.0699C223.14 80.5384 220.605 79.2453 219.951 78.4708C221.567 78.9469 223.621 81.1696 225.459 80.998C224.031 79.769 222.392 78.8334 220.953 77.6266C213.911 71.1607 210.894 61.8162 205.419 54.1822C205.115 53.684 204.805 53.1913 204.445 52.7318C202.042 50.296 200.182 47.3398 197.503 45.1864C193.567 42.8558 188.878 42.7063 184.433 42.3354C179.063 41.804 173.621 41.8427 168.246 42.3022C163.933 42.5292 159.604 42.5901 155.319 43.1658C153.531 43.4315 151.627 42.9997 149.911 43.6751C149.169 43.6806 148.427 43.7194 147.702 43.9076C144.309 44.129 140.998 45.0314 137.588 45.0535C134.194 46.205 130.607 46.6091 127.075 47.0852C123.815 46.9745 120.028 46.4264 118.013 43.5644C120.189 44.6273 122.281 46.4984 124.9 46.4763C127.192 46.4984 129.572 46.7143 131.748 45.8341C139.531 44.2066 147.398 43.2821 155.308 42.5126Z" fill="#644A35"/>
<path d="M204.445 52.7318C204.805 53.1913 205.115 53.684 205.419 54.1822C202.74 55.4499 199.756 55.854 196.816 55.7987C183.336 56.9612 169.834 55.5717 156.344 55.6381C155.901 55.6824 155.513 55.8762 155.187 56.2139C155.043 56.0533 154.755 55.7267 154.611 55.5662C155.004 55.0569 155.402 54.5531 155.818 54.0549C159.338 54.005 162.865 54.0936 166.363 54.5088C176.35 54.7081 186.353 54.9572 196.335 54.5254C199.053 53.9774 202.086 54.4701 204.445 52.7318Z" fill="#763D22"/>
<path d="M206.449 63.7925C207.13 63.6928 207.545 64.1744 207.883 64.6893C210.423 68.5367 213.208 72.2624 216.579 75.4289C217.681 76.4807 218.954 77.3138 219.951 78.4708C216.325 76.7325 213.817 73.2588 211.226 70.2473C209.704 68.2765 208.309 66.2116 206.831 64.2132C206.797 65.802 206.814 67.5458 207.849 68.8578C208.824 70.12 209.289 71.6755 210.18 72.982C215.4 75.8939 218.517 82.2712 217.277 88.1448C216.441 92.4019 213.573 96.1884 209.704 98.1868C205.33 100.368 199.717 100.224 195.626 97.4616C192.913 95.8894 191.02 93.2046 189.808 90.3647C189.337 88.9143 189.315 87.2369 188.529 85.9304C184.992 82.5757 183.569 77.1505 185.208 72.5392C185.329 71.9523 185.905 71.2382 185.457 70.6736C182.119 69.8321 178.642 70.0757 175.226 70.0535C171.861 69.9926 168.589 70.9282 165.234 71.0334C160.235 72.0354 155.137 73.1093 150.653 75.6614C147.054 77.5546 143.406 79.3815 139.669 80.998L138.69 80.9149C142.62 78.9276 146.728 77.2502 150.559 75.0358C154.107 73.2644 157.899 71.825 161.841 71.2825C169.619 69.0239 177.778 70.048 185.761 69.7989C185.888 70.0923 186.149 70.6736 186.282 70.967C184.449 75.4234 184.731 80.9537 188.108 84.6074C189.243 85.6536 189.769 87.1428 190.007 88.6375C191.297 95.1587 198.051 99.8808 204.605 99.1501C208.431 98.674 212.217 96.6589 214.387 93.3983C217.183 89.6616 217.764 84.4136 215.854 80.1565C214.658 77.3166 212.427 75.0192 209.82 73.4249C208.801 72.1904 208.303 70.585 207.346 69.2896C206.189 67.7229 206.067 65.647 206.449 63.7925Z" fill="#57453A"/>
<path d="M189.797 73.3197C191.148 73.1979 192.819 74.4823 192.786 75.8607C191.873 77.1782 190.926 78.4792 190.184 79.9074C188.418 78.1691 188.734 75.3459 189.797 73.3197Z" fill="#C77633"/>
<path d="M103.26 76.1319C105.967 78.994 108.907 81.6124 111.796 84.2807C111.852 85.5761 110.263 85.2717 109.643 86.091C108.298 87.1871 106.831 88.8312 106.997 90.6249C108.563 90.6304 110.152 90.2041 111.708 90.5861C111.287 91.9424 110.213 92.9997 109.875 94.3837L109.931 94.7767C113.241 95.0092 116.557 94.7657 119.873 94.7048C119.27 95.2085 118.39 94.8985 117.675 95.0148C115.007 94.9317 112.311 95.358 109.665 95.0535C109.183 93.5367 110.484 92.3908 110.745 91.0068C109.361 90.9072 107.966 91.1176 106.582 90.9349C106.128 89.2409 107.467 87.558 108.552 86.3346C109.178 85.3935 110.645 85.4045 111.038 84.314C108.386 81.856 105.286 78.9552 102.773 76.3423L103.26 76.1319Z" fill="#554335"/>
<path d="M134.975 82.0996C136.383 81.782 137.655 81.2348 138.69 80.9149L139.669 80.998C134.881 82.7473 128.592 84.8952 123.521 85.5318C121.944 88.4382 121.451 91.804 119.873 94.7048C116.557 94.7657 113.241 95.0092 109.931 94.7767L109.875 94.3837C113.142 94.5055 116.424 94.3394 119.685 94.1622C120.416 91.732 121.473 89.418 122.159 86.9767C122.314 86.1961 122.84 85.5927 123.316 84.9893C127.33 84.5022 131.155 83.3507 134.975 82.0996Z" fill="#735238"/>
<path d="M224.008 81.0699C225.243 81.2692 227.247 83.0241 227.778 81.009C229.03 81.6678 230.419 81.8228 231.77 82.1605C229.234 83.2013 226.256 82.4484 224.008 81.0699Z" fill="#473E38"/>
<g filter="url(#filter0_d_38_33806)">
<mask id="path-2-outside-1_38_33806" maskUnits="userSpaceOnUse" x="73.5281" y="116.204" width="150" height="13" fill="black">
<rect fill="white" x="73.5281" y="116.204" width="150" height="13"/>
<path d="M74.5281 117.351H76.0884L79.7571 126.313H79.8836L83.5524 117.351H85.1127V128.147H83.8898V119.945H83.7844L80.4108 128.147H79.23L75.8564 119.945H75.751V128.147H74.5281V117.351Z"/>
<path d="M89.2182 128.147V117.351H95.7334V118.511H90.5255V122.159H95.3961V123.318H90.5255V126.987H95.8178V128.147H89.2182Z"/>
<path d="M106.659 117.351H107.966V124.499C107.966 125.237 107.792 125.896 107.444 126.476C107.1 127.052 106.613 127.507 105.984 127.841C105.355 128.172 104.617 128.337 103.77 128.337C102.923 128.337 102.185 128.172 101.556 127.841C100.927 127.507 100.439 127.052 100.091 126.476C99.7462 125.896 99.574 125.237 99.574 124.499V117.351H100.881V124.394C100.881 124.921 100.997 125.39 101.229 125.801C101.461 126.209 101.791 126.53 102.22 126.766C102.652 126.998 103.169 127.114 103.77 127.114C104.371 127.114 104.887 126.998 105.32 126.766C105.752 126.53 106.082 126.209 106.311 125.801C106.543 125.39 106.659 124.921 106.659 124.394V117.351Z"/>
<path d="M112.061 128.147V117.351H115.708C116.555 117.351 117.248 117.504 117.785 117.81C118.327 118.112 118.727 118.522 118.987 119.038C119.247 119.555 119.377 120.131 119.377 120.767C119.377 121.403 119.247 121.981 118.987 122.501C118.731 123.022 118.334 123.436 117.796 123.745C117.258 124.051 116.569 124.204 115.73 124.204H113.115V123.044H115.687C116.267 123.044 116.733 122.944 117.084 122.744C117.436 122.544 117.69 122.273 117.849 121.932C118.01 121.588 118.091 121.199 118.091 120.767C118.091 120.335 118.01 119.948 117.849 119.608C117.69 119.267 117.434 119 117.079 118.806C116.724 118.61 116.253 118.511 115.666 118.511H113.368V128.147H112.061Z"/>
<path d="M122.967 128.147V117.351H129.483V118.511H124.275V122.159H129.145V123.318H124.275V126.987H129.567V128.147H122.967Z"/>
<path d="M132.733 118.511V117.351H140.83V118.511H137.435V128.147H136.128V118.511H132.733Z"/>
<path d="M144.332 128.147V117.351H150.847V118.511H145.639V122.159H150.509V123.318H145.639V126.987H150.931V128.147H144.332Z"/>
<path d="M160.591 120.05C160.528 119.516 160.271 119.101 159.822 118.806C159.372 118.511 158.82 118.364 158.166 118.364C157.688 118.364 157.27 118.441 156.912 118.595C156.557 118.75 156.279 118.963 156.079 119.233C155.882 119.504 155.784 119.811 155.784 120.156C155.784 120.444 155.852 120.692 155.989 120.899C156.13 121.103 156.309 121.273 156.527 121.41C156.745 121.544 156.973 121.655 157.212 121.742C157.451 121.827 157.671 121.895 157.871 121.948L158.968 122.243C159.249 122.317 159.561 122.419 159.906 122.549C160.254 122.679 160.586 122.856 160.902 123.081C161.222 123.303 161.485 123.587 161.693 123.935C161.9 124.283 162.004 124.71 162.004 125.216C162.004 125.799 161.851 126.327 161.545 126.797C161.243 127.268 160.8 127.643 160.217 127.92C159.637 128.198 158.932 128.337 158.103 128.337C157.33 128.337 156.661 128.212 156.095 127.962C155.533 127.713 155.09 127.365 154.766 126.919C154.447 126.472 154.266 125.954 154.223 125.364H155.573C155.608 125.771 155.745 126.109 155.984 126.376C156.227 126.639 156.532 126.836 156.901 126.966C157.274 127.093 157.674 127.156 158.103 127.156C158.602 127.156 159.05 127.075 159.447 126.913C159.844 126.748 160.159 126.52 160.391 126.228C160.623 125.933 160.739 125.589 160.739 125.195C160.739 124.837 160.639 124.545 160.438 124.32C160.238 124.095 159.974 123.912 159.648 123.772C159.321 123.631 158.968 123.508 158.588 123.403L157.26 123.023C156.416 122.781 155.749 122.435 155.257 121.985C154.765 121.535 154.519 120.946 154.519 120.219C154.519 119.615 154.682 119.087 155.009 118.638C155.339 118.184 155.782 117.833 156.337 117.583C156.896 117.33 157.52 117.204 158.209 117.204C158.904 117.204 159.523 117.329 160.064 117.578C160.605 117.824 161.034 118.161 161.35 118.59C161.67 119.019 161.839 119.506 161.856 120.05H160.591Z"/>
<path d="M165.638 128.147V117.351H169.285C170.132 117.351 170.824 117.504 171.362 117.81C171.903 118.112 172.304 118.522 172.564 119.038C172.824 119.555 172.954 120.131 172.954 120.767C172.954 121.403 172.824 121.981 172.564 122.501C172.307 123.022 171.91 123.436 171.373 123.745C170.835 124.051 170.146 124.204 169.306 124.204H166.692V123.044H169.264C169.844 123.044 170.31 122.944 170.661 122.744C171.012 122.544 171.267 122.273 171.425 121.932C171.587 121.588 171.668 121.199 171.668 120.767C171.668 120.335 171.587 119.948 171.425 119.608C171.267 119.267 171.011 119 170.656 118.806C170.301 118.61 169.83 118.511 169.243 118.511H166.945V128.147H165.638Z"/>
<path d="M176.544 128.147V117.351H183.059V118.511H177.851V122.159H182.722V123.318H177.851V126.987H183.144V128.147H176.544Z"/>
<path d="M195.587 120.725H194.28C194.202 120.349 194.067 120.019 193.874 119.734C193.684 119.449 193.452 119.21 193.178 119.017C192.908 118.82 192.607 118.673 192.277 118.574C191.946 118.476 191.602 118.427 191.244 118.427C190.59 118.427 189.998 118.592 189.467 118.922C188.94 119.253 188.52 119.739 188.207 120.382C187.898 121.025 187.743 121.814 187.743 122.749C187.743 123.684 187.898 124.473 188.207 125.116C188.52 125.759 188.94 126.246 189.467 126.576C189.998 126.906 190.59 127.072 191.244 127.072C191.602 127.072 191.946 127.022 192.277 126.924C192.607 126.826 192.908 126.68 193.178 126.486C193.452 126.29 193.684 126.049 193.874 125.764C194.067 125.476 194.202 125.146 194.28 124.773H195.587C195.489 125.325 195.309 125.819 195.049 126.255C194.789 126.69 194.466 127.061 194.079 127.367C193.693 127.669 193.259 127.899 192.777 128.057C192.3 128.215 191.788 128.295 191.244 128.295C190.323 128.295 189.504 128.07 188.787 127.62C188.07 127.17 187.506 126.53 187.095 125.701C186.684 124.872 186.478 123.888 186.478 122.749C186.478 121.611 186.684 120.627 187.095 119.797C187.506 118.968 188.07 118.328 188.787 117.879C189.504 117.429 190.323 117.204 191.244 117.204C191.788 117.204 192.3 117.283 192.777 117.441C193.259 117.599 193.693 117.831 194.079 118.137C194.466 118.439 194.789 118.808 195.049 119.244C195.309 119.676 195.489 120.17 195.587 120.725Z"/>
<path d="M200.491 117.351V128.147H199.184V117.351H200.491Z"/>
<path d="M205.039 128.147H203.669L207.633 117.351H208.982L212.946 128.147H211.576L208.35 119.059H208.265L205.039 128.147ZM205.545 123.93H211.07V125.09H205.545V123.93Z"/>
<path d="M216.112 128.147V117.351H217.419V126.987H222.438V128.147H216.112Z"/>
</mask>
<path d="M74.5281 117.351H76.0884L79.7571 126.313H79.8836L83.5524 117.351H85.1127V128.147H83.8898V119.945H83.7844L80.4108 128.147H79.23L75.8564 119.945H75.751V128.147H74.5281V117.351Z" fill="#4D4D4D"/>
<path d="M89.2182 128.147V117.351H95.7334V118.511H90.5255V122.159H95.3961V123.318H90.5255V126.987H95.8178V128.147H89.2182Z" fill="#4D4D4D"/>
<path d="M106.659 117.351H107.966V124.499C107.966 125.237 107.792 125.896 107.444 126.476C107.1 127.052 106.613 127.507 105.984 127.841C105.355 128.172 104.617 128.337 103.77 128.337C102.923 128.337 102.185 128.172 101.556 127.841C100.927 127.507 100.439 127.052 100.091 126.476C99.7462 125.896 99.574 125.237 99.574 124.499V117.351H100.881V124.394C100.881 124.921 100.997 125.39 101.229 125.801C101.461 126.209 101.791 126.53 102.22 126.766C102.652 126.998 103.169 127.114 103.77 127.114C104.371 127.114 104.887 126.998 105.32 126.766C105.752 126.53 106.082 126.209 106.311 125.801C106.543 125.39 106.659 124.921 106.659 124.394V117.351Z" fill="#4D4D4D"/>
<path d="M112.061 128.147V117.351H115.708C116.555 117.351 117.248 117.504 117.785 117.81C118.327 118.112 118.727 118.522 118.987 119.038C119.247 119.555 119.377 120.131 119.377 120.767C119.377 121.403 119.247 121.981 118.987 122.501C118.731 123.022 118.334 123.436 117.796 123.745C117.258 124.051 116.569 124.204 115.73 124.204H113.115V123.044H115.687C116.267 123.044 116.733 122.944 117.084 122.744C117.436 122.544 117.69 122.273 117.849 121.932C118.01 121.588 118.091 121.199 118.091 120.767C118.091 120.335 118.01 119.948 117.849 119.608C117.69 119.267 117.434 119 117.079 118.806C116.724 118.61 116.253 118.511 115.666 118.511H113.368V128.147H112.061Z" fill="#4D4D4D"/>
<path d="M122.967 128.147V117.351H129.483V118.511H124.275V122.159H129.145V123.318H124.275V126.987H129.567V128.147H122.967Z" fill="#4D4D4D"/>
<path d="M132.733 118.511V117.351H140.83V118.511H137.435V128.147H136.128V118.511H132.733Z" fill="#4D4D4D"/>
<path d="M144.332 128.147V117.351H150.847V118.511H145.639V122.159H150.509V123.318H145.639V126.987H150.931V128.147H144.332Z" fill="#4D4D4D"/>
<path d="M160.591 120.05C160.528 119.516 160.271 119.101 159.822 118.806C159.372 118.511 158.82 118.364 158.166 118.364C157.688 118.364 157.27 118.441 156.912 118.595C156.557 118.75 156.279 118.963 156.079 119.233C155.882 119.504 155.784 119.811 155.784 120.156C155.784 120.444 155.852 120.692 155.989 120.899C156.13 121.103 156.309 121.273 156.527 121.41C156.745 121.544 156.973 121.655 157.212 121.742C157.451 121.827 157.671 121.895 157.871 121.948L158.968 122.243C159.249 122.317 159.561 122.419 159.906 122.549C160.254 122.679 160.586 122.856 160.902 123.081C161.222 123.303 161.485 123.587 161.693 123.935C161.9 124.283 162.004 124.71 162.004 125.216C162.004 125.799 161.851 126.327 161.545 126.797C161.243 127.268 160.8 127.643 160.217 127.92C159.637 128.198 158.932 128.337 158.103 128.337C157.33 128.337 156.661 128.212 156.095 127.962C155.533 127.713 155.09 127.365 154.766 126.919C154.447 126.472 154.266 125.954 154.223 125.364H155.573C155.608 125.771 155.745 126.109 155.984 126.376C156.227 126.639 156.532 126.836 156.901 126.966C157.274 127.093 157.674 127.156 158.103 127.156C158.602 127.156 159.05 127.075 159.447 126.913C159.844 126.748 160.159 126.52 160.391 126.228C160.623 125.933 160.739 125.589 160.739 125.195C160.739 124.837 160.639 124.545 160.438 124.32C160.238 124.095 159.974 123.912 159.648 123.772C159.321 123.631 158.968 123.508 158.588 123.403L157.26 123.023C156.416 122.781 155.749 122.435 155.257 121.985C154.765 121.535 154.519 120.946 154.519 120.219C154.519 119.615 154.682 119.087 155.009 118.638C155.339 118.184 155.782 117.833 156.337 117.583C156.896 117.33 157.52 117.204 158.209 117.204C158.904 117.204 159.523 117.329 160.064 117.578C160.605 117.824 161.034 118.161 161.35 118.59C161.67 119.019 161.839 119.506 161.856 120.05H160.591Z" fill="#4D4D4D"/>
<path d="M165.638 128.147V117.351H169.285C170.132 117.351 170.824 117.504 171.362 117.81C171.903 118.112 172.304 118.522 172.564 119.038C172.824 119.555 172.954 120.131 172.954 120.767C172.954 121.403 172.824 121.981 172.564 122.501C172.307 123.022 171.91 123.436 171.373 123.745C170.835 124.051 170.146 124.204 169.306 124.204H166.692V123.044H169.264C169.844 123.044 170.31 122.944 170.661 122.744C171.012 122.544 171.267 122.273 171.425 121.932C171.587 121.588 171.668 121.199 171.668 120.767C171.668 120.335 171.587 119.948 171.425 119.608C171.267 119.267 171.011 119 170.656 118.806C170.301 118.61 169.83 118.511 169.243 118.511H166.945V128.147H165.638Z" fill="#4D4D4D"/>
<path d="M176.544 128.147V117.351H183.059V118.511H177.851V122.159H182.722V123.318H177.851V126.987H183.144V128.147H176.544Z" fill="#4D4D4D"/>
<path d="M195.587 120.725H194.28C194.202 120.349 194.067 120.019 193.874 119.734C193.684 119.449 193.452 119.21 193.178 119.017C192.908 118.82 192.607 118.673 192.277 118.574C191.946 118.476 191.602 118.427 191.244 118.427C190.59 118.427 189.998 118.592 189.467 118.922C188.94 119.253 188.52 119.739 188.207 120.382C187.898 121.025 187.743 121.814 187.743 122.749C187.743 123.684 187.898 124.473 188.207 125.116C188.52 125.759 188.94 126.246 189.467 126.576C189.998 126.906 190.59 127.072 191.244 127.072C191.602 127.072 191.946 127.022 192.277 126.924C192.607 126.826 192.908 126.68 193.178 126.486C193.452 126.29 193.684 126.049 193.874 125.764C194.067 125.476 194.202 125.146 194.28 124.773H195.587C195.489 125.325 195.309 125.819 195.049 126.255C194.789 126.69 194.466 127.061 194.079 127.367C193.693 127.669 193.259 127.899 192.777 128.057C192.3 128.215 191.788 128.295 191.244 128.295C190.323 128.295 189.504 128.07 188.787 127.62C188.07 127.17 187.506 126.53 187.095 125.701C186.684 124.872 186.478 123.888 186.478 122.749C186.478 121.611 186.684 120.627 187.095 119.797C187.506 118.968 188.07 118.328 188.787 117.879C189.504 117.429 190.323 117.204 191.244 117.204C191.788 117.204 192.3 117.283 192.777 117.441C193.259 117.599 193.693 117.831 194.079 118.137C194.466 118.439 194.789 118.808 195.049 119.244C195.309 119.676 195.489 120.17 195.587 120.725Z" fill="#4D4D4D"/>
<path d="M200.491 117.351V128.147H199.184V117.351H200.491Z" fill="#4D4D4D"/>
<path d="M205.039 128.147H203.669L207.633 117.351H208.982L212.946 128.147H211.576L208.35 119.059H208.265L205.039 128.147ZM205.545 123.93H211.07V125.09H205.545V123.93Z" fill="#4D4D4D"/>
<path d="M216.112 128.147V117.351H217.419V126.987H222.438V128.147H216.112Z" fill="#4D4D4D"/>
<path d="M74.5281 117.351H76.0884L79.7571 126.313H79.8836L83.5524 117.351H85.1127V128.147H83.8898V119.945H83.7844L80.4108 128.147H79.23L75.8564 119.945H75.751V128.147H74.5281V117.351Z" stroke="#4D4D4D" stroke-width="0.927736" mask="url(#path-2-outside-1_38_33806)"/>
<path d="M89.2182 128.147V117.351H95.7334V118.511H90.5255V122.159H95.3961V123.318H90.5255V126.987H95.8178V128.147H89.2182Z" stroke="#4D4D4D" stroke-width="0.927736" mask="url(#path-2-outside-1_38_33806)"/>
<path d="M106.659 117.351H107.966V124.499C107.966 125.237 107.792 125.896 107.444 126.476C107.1 127.052 106.613 127.507 105.984 127.841C105.355 128.172 104.617 128.337 103.77 128.337C102.923 128.337 102.185 128.172 101.556 127.841C100.927 127.507 100.439 127.052 100.091 126.476C99.7462 125.896 99.574 125.237 99.574 124.499V117.351H100.881V124.394C100.881 124.921 100.997 125.39 101.229 125.801C101.461 126.209 101.791 126.53 102.22 126.766C102.652 126.998 103.169 127.114 103.77 127.114C104.371 127.114 104.887 126.998 105.32 126.766C105.752 126.53 106.082 126.209 106.311 125.801C106.543 125.39 106.659 124.921 106.659 124.394V117.351Z" stroke="#4D4D4D" stroke-width="0.927736" mask="url(#path-2-outside-1_38_33806)"/>
<path d="M112.061 128.147V117.351H115.708C116.555 117.351 117.248 117.504 117.785 117.81C118.327 118.112 118.727 118.522 118.987 119.038C119.247 119.555 119.377 120.131 119.377 120.767C119.377 121.403 119.247 121.981 118.987 122.501C118.731 123.022 118.334 123.436 117.796 123.745C117.258 124.051 116.569 124.204 115.73 124.204H113.115V123.044H115.687C116.267 123.044 116.733 122.944 117.084 122.744C117.436 122.544 117.69 122.273 117.849 121.932C118.01 121.588 118.091 121.199 118.091 120.767C118.091 120.335 118.01 119.948 117.849 119.608C117.69 119.267 117.434 119 117.079 118.806C116.724 118.61 116.253 118.511 115.666 118.511H113.368V128.147H112.061Z" stroke="#4D4D4D" stroke-width="0.927736" mask="url(#path-2-outside-1_38_33806)"/>
<path d="M122.967 128.147V117.351H129.483V118.511H124.275V122.159H129.145V123.318H124.275V126.987H129.567V128.147H122.967Z" stroke="#4D4D4D" stroke-width="0.927736" mask="url(#path-2-outside-1_38_33806)"/>
<path d="M132.733 118.511V117.351H140.83V118.511H137.435V128.147H136.128V118.511H132.733Z" stroke="#4D4D4D" stroke-width="0.927736" mask="url(#path-2-outside-1_38_33806)"/>
<path d="M144.332 128.147V117.351H150.847V118.511H145.639V122.159H150.509V123.318H145.639V126.987H150.931V128.147H144.332Z" stroke="#4D4D4D" stroke-width="0.927736" mask="url(#path-2-outside-1_38_33806)"/>
<path d="M160.591 120.05C160.528 119.516 160.271 119.101 159.822 118.806C159.372 118.511 158.82 118.364 158.166 118.364C157.688 118.364 157.27 118.441 156.912 118.595C156.557 118.75 156.279 118.963 156.079 119.233C155.882 119.504 155.784 119.811 155.784 120.156C155.784 120.444 155.852 120.692 155.989 120.899C156.13 121.103 156.309 121.273 156.527 121.41C156.745 121.544 156.973 121.655 157.212 121.742C157.451 121.827 157.671 121.895 157.871 121.948L158.968 122.243C159.249 122.317 159.561 122.419 159.906 122.549C160.254 122.679 160.586 122.856 160.902 123.081C161.222 123.303 161.485 123.587 161.693 123.935C161.9 124.283 162.004 124.71 162.004 125.216C162.004 125.799 161.851 126.327 161.545 126.797C161.243 127.268 160.8 127.643 160.217 127.92C159.637 128.198 158.932 128.337 158.103 128.337C157.33 128.337 156.661 128.212 156.095 127.962C155.533 127.713 155.09 127.365 154.766 126.919C154.447 126.472 154.266 125.954 154.223 125.364H155.573C155.608 125.771 155.745 126.109 155.984 126.376C156.227 126.639 156.532 126.836 156.901 126.966C157.274 127.093 157.674 127.156 158.103 127.156C158.602 127.156 159.05 127.075 159.447 126.913C159.844 126.748 160.159 126.52 160.391 126.228C160.623 125.933 160.739 125.589 160.739 125.195C160.739 124.837 160.639 124.545 160.438 124.32C160.238 124.095 159.974 123.912 159.648 123.772C159.321 123.631 158.968 123.508 158.588 123.403L157.26 123.023C156.416 122.781 155.749 122.435 155.257 121.985C154.765 121.535 154.519 120.946 154.519 120.219C154.519 119.615 154.682 119.087 155.009 118.638C155.339 118.184 155.782 117.833 156.337 117.583C156.896 117.33 157.52 117.204 158.209 117.204C158.904 117.204 159.523 117.329 160.064 117.578C160.605 117.824 161.034 118.161 161.35 118.59C161.67 119.019 161.839 119.506 161.856 120.05H160.591Z" stroke="#4D4D4D" stroke-width="0.927736" mask="url(#path-2-outside-1_38_33806)"/>
<path d="M165.638 128.147V117.351H169.285C170.132 117.351 170.824 117.504 171.362 117.81C171.903 118.112 172.304 118.522 172.564 119.038C172.824 119.555 172.954 120.131 172.954 120.767C172.954 121.403 172.824 121.981 172.564 122.501C172.307 123.022 171.91 123.436 171.373 123.745C170.835 124.051 170.146 124.204 169.306 124.204H166.692V123.044H169.264C169.844 123.044 170.31 122.944 170.661 122.744C171.012 122.544 171.267 122.273 171.425 121.932C171.587 121.588 171.668 121.199 171.668 120.767C171.668 120.335 171.587 119.948 171.425 119.608C171.267 119.267 171.011 119 170.656 118.806C170.301 118.61 169.83 118.511 169.243 118.511H166.945V128.147H165.638Z" stroke="#4D4D4D" stroke-width="0.927736" mask="url(#path-2-outside-1_38_33806)"/>
<path d="M176.544 128.147V117.351H183.059V118.511H177.851V122.159H182.722V123.318H177.851V126.987H183.144V128.147H176.544Z" stroke="#4D4D4D" stroke-width="0.927736" mask="url(#path-2-outside-1_38_33806)"/>
<path d="M195.587 120.725H194.28C194.202 120.349 194.067 120.019 193.874 119.734C193.684 119.449 193.452 119.21 193.178 119.017C192.908 118.82 192.607 118.673 192.277 118.574C191.946 118.476 191.602 118.427 191.244 118.427C190.59 118.427 189.998 118.592 189.467 118.922C188.94 119.253 188.52 119.739 188.207 120.382C187.898 121.025 187.743 121.814 187.743 122.749C187.743 123.684 187.898 124.473 188.207 125.116C188.52 125.759 188.94 126.246 189.467 126.576C189.998 126.906 190.59 127.072 191.244 127.072C191.602 127.072 191.946 127.022 192.277 126.924C192.607 126.826 192.908 126.68 193.178 126.486C193.452 126.29 193.684 126.049 193.874 125.764C194.067 125.476 194.202 125.146 194.28 124.773H195.587C195.489 125.325 195.309 125.819 195.049 126.255C194.789 126.69 194.466 127.061 194.079 127.367C193.693 127.669 193.259 127.899 192.777 128.057C192.3 128.215 191.788 128.295 191.244 128.295C190.323 128.295 189.504 128.07 188.787 127.62C188.07 127.17 187.506 126.53 187.095 125.701C186.684 124.872 186.478 123.888 186.478 122.749C186.478 121.611 186.684 120.627 187.095 119.797C187.506 118.968 188.07 118.328 188.787 117.879C189.504 117.429 190.323 117.204 191.244 117.204C191.788 117.204 192.3 117.283 192.777 117.441C193.259 117.599 193.693 117.831 194.079 118.137C194.466 118.439 194.789 118.808 195.049 119.244C195.309 119.676 195.489 120.17 195.587 120.725Z" stroke="#4D4D4D" stroke-width="0.927736" mask="url(#path-2-outside-1_38_33806)"/>
<path d="M200.491 117.351V128.147H199.184V117.351H200.491Z" stroke="#4D4D4D" stroke-width="0.927736" mask="url(#path-2-outside-1_38_33806)"/>
<path d="M205.039 128.147H203.669L207.633 117.351H208.982L212.946 128.147H211.576L208.35 119.059H208.265L205.039 128.147ZM205.545 123.93H211.07V125.09H205.545V123.93Z" stroke="#4D4D4D" stroke-width="0.927736" mask="url(#path-2-outside-1_38_33806)"/>
<path d="M216.112 128.147V117.351H217.419V126.987H222.438V128.147H216.112Z" stroke="#4D4D4D" stroke-width="0.927736" mask="url(#path-2-outside-1_38_33806)"/>
<path d="M111.867 128.133V128.365H112.099H113.407H113.639V128.133V124.422H115.768C116.634 124.422 117.366 124.265 117.949 123.933L117.95 123.933C118.525 123.602 118.955 123.155 119.233 122.591C119.511 122.036 119.648 121.422 119.648 120.753C119.648 120.085 119.511 119.472 119.233 118.92C118.951 118.359 118.516 117.917 117.938 117.594C117.355 117.263 116.62 117.106 115.747 117.106H112.099H111.867V117.338V128.133ZM115.726 122.799H113.639V118.729H115.705C116.269 118.729 116.697 118.824 117.005 118.995L117.005 118.995L117.007 118.996C117.321 119.168 117.541 119.399 117.677 119.691L117.677 119.691L117.678 119.693C117.823 119.999 117.898 120.351 117.898 120.753C117.898 121.156 117.823 121.51 117.677 121.82L117.677 121.821C117.54 122.114 117.321 122.35 117.008 122.529C116.704 122.702 116.282 122.799 115.726 122.799ZM122.774 128.133V128.365H123.006H129.606H129.838V128.133V126.973V126.742H129.606H124.545V123.537H129.184H129.416V123.305V122.145V121.913H129.184H124.545V118.729H129.521H129.753V118.497V117.338V117.106H129.521H123.006H122.774V117.338V128.133ZM132.54 118.497V118.729H132.772H135.934V128.133V128.365H136.166H137.473H137.705V128.133V118.729H140.868H141.1V118.497V117.338V117.106H140.868H132.772H132.54V117.338V118.497Z" fill="#B85300" stroke="#B85300" stroke-width="0.463868"/>
</g>
<path d="M68.6523 112.72C68.2254 112.72 67.8792 113.066 67.8792 113.493C67.8792 113.92 68.2254 114.266 68.6523 114.266V112.72ZM223.275 114.266C223.702 114.266 224.048 113.92 224.048 113.493C224.048 113.066 223.702 112.72 223.275 112.72V114.266ZM223.275 132.821C223.702 132.821 224.048 132.475 224.048 132.048C224.048 131.621 223.702 131.275 223.275 131.275V132.821ZM68.6523 131.275C68.2254 131.275 67.8792 131.621 67.8792 132.048C67.8792 132.475 68.2254 132.821 68.6523 132.821V131.275ZM70.1986 132.821C70.6255 132.821 70.9717 132.475 70.9717 132.048C70.9717 131.621 70.6255 131.275 70.1986 131.275V132.821ZM73.291 131.275C72.864 131.275 72.5179 131.621 72.5179 132.048C72.5179 132.475 72.864 132.821 73.291 132.821V131.275ZM76.3835 132.821C76.8105 132.821 77.1566 132.475 77.1566 132.048C77.1566 131.621 76.8105 131.275 76.3835 131.275V132.821ZM79.4759 131.275C79.049 131.275 78.7028 131.621 78.7028 132.048C78.7028 132.475 79.049 132.821 79.4759 132.821V131.275ZM82.5684 132.821C82.9954 132.821 83.3415 132.475 83.3415 132.048C83.3415 131.621 82.9954 131.275 82.5684 131.275V132.821ZM85.6608 131.275C85.2339 131.275 84.8877 131.621 84.8877 132.048C84.8877 132.475 85.2339 132.821 85.6608 132.821V131.275ZM88.7533 132.821C89.1803 132.821 89.5264 132.475 89.5264 132.048C89.5264 131.621 89.1803 131.275 88.7533 131.275V132.821ZM91.8457 131.275C91.4188 131.275 91.0726 131.621 91.0726 132.048C91.0726 132.475 91.4188 132.821 91.8457 132.821V131.275ZM94.9382 132.821C95.3652 132.821 95.7113 132.475 95.7113 132.048C95.7113 131.621 95.3652 131.275 94.9382 131.275V132.821ZM98.0306 131.275C97.6037 131.275 97.2575 131.621 97.2575 132.048C97.2575 132.475 97.6037 132.821 98.0306 132.821V131.275ZM101.123 132.821C101.55 132.821 101.896 132.475 101.896 132.048C101.896 131.621 101.55 131.275 101.123 131.275V132.821ZM104.216 131.275C103.789 131.275 103.442 131.621 103.442 132.048C103.442 132.475 103.789 132.821 104.216 132.821V131.275ZM107.308 132.821C107.735 132.821 108.081 132.475 108.081 132.048C108.081 131.621 107.735 131.275 107.308 131.275V132.821ZM110.4 131.275C109.973 131.275 109.627 131.621 109.627 132.048C109.627 132.475 109.973 132.821 110.4 132.821V131.275ZM113.493 132.821C113.92 132.821 114.266 132.475 114.266 132.048C114.266 131.621 113.92 131.275 113.493 131.275V132.821ZM116.585 131.275C116.158 131.275 115.812 131.621 115.812 132.048C115.812 132.475 116.158 132.821 116.585 132.821V131.275ZM119.678 132.821C120.105 132.821 120.451 132.475 120.451 132.048C120.451 131.621 120.105 131.275 119.678 131.275V132.821ZM122.77 131.275C122.343 131.275 121.997 131.621 121.997 132.048C121.997 132.475 122.343 132.821 122.77 132.821V131.275ZM125.863 132.821C126.29 132.821 126.636 132.475 126.636 132.048C126.636 131.621 126.29 131.275 125.863 131.275V132.821ZM128.955 131.275C128.528 131.275 128.182 131.621 128.182 132.048C128.182 132.475 128.528 132.821 128.955 132.821V131.275ZM132.048 132.821C132.475 132.821 132.821 132.475 132.821 132.048C132.821 131.621 132.475 131.275 132.048 131.275V132.821ZM135.14 131.275C134.713 131.275 134.367 131.621 134.367 132.048C134.367 132.475 134.713 132.821 135.14 132.821V131.275ZM138.233 132.821C138.66 132.821 139.006 132.475 139.006 132.048C139.006 131.621 138.66 131.275 138.233 131.275V132.821ZM141.325 131.275C140.898 131.275 140.552 131.621 140.552 132.048C140.552 132.475 140.898 132.821 141.325 132.821V131.275ZM144.417 132.821C144.844 132.821 145.191 132.475 145.191 132.048C145.191 131.621 144.844 131.275 144.417 131.275V132.821ZM147.51 131.275C147.083 131.275 146.737 131.621 146.737 132.048C146.737 132.475 147.083 132.821 147.51 132.821V131.275ZM150.602 132.821C151.029 132.821 151.375 132.475 151.375 132.048C151.375 131.621 151.029 131.275 150.602 131.275V132.821ZM153.695 131.275C153.268 131.275 152.922 131.621 152.922 132.048C152.922 132.475 153.268 132.821 153.695 132.821V131.275ZM156.787 132.821C157.214 132.821 157.56 132.475 157.56 132.048C157.56 131.621 157.214 131.275 156.787 131.275V132.821ZM159.88 131.275C159.453 131.275 159.107 131.621 159.107 132.048C159.107 132.475 159.453 132.821 159.88 132.821V131.275ZM162.972 132.821C163.399 132.821 163.745 132.475 163.745 132.048C163.745 131.621 163.399 131.275 162.972 131.275V132.821ZM166.065 131.275C165.638 131.275 165.291 131.621 165.291 132.048C165.291 132.475 165.638 132.821 166.065 132.821V131.275ZM169.157 132.821C169.584 132.821 169.93 132.475 169.93 132.048C169.93 131.621 169.584 131.275 169.157 131.275V132.821ZM172.25 131.275C171.823 131.275 171.476 131.621 171.476 132.048C171.476 132.475 171.823 132.821 172.25 132.821V131.275ZM175.342 132.821C175.769 132.821 176.115 132.475 176.115 132.048C176.115 131.621 175.769 131.275 175.342 131.275V132.821ZM178.434 131.275C178.007 131.275 177.661 131.621 177.661 132.048C177.661 132.475 178.007 132.821 178.434 132.821V131.275ZM181.527 132.821C181.954 132.821 182.3 132.475 182.3 132.048C182.3 131.621 181.954 131.275 181.527 131.275V132.821ZM184.619 131.275C184.192 131.275 183.846 131.621 183.846 132.048C183.846 132.475 184.192 132.821 184.619 132.821V131.275ZM187.712 132.821C188.139 132.821 188.485 132.475 188.485 132.048C188.485 131.621 188.139 131.275 187.712 131.275V132.821ZM190.804 131.275C190.377 131.275 190.031 131.621 190.031 132.048C190.031 132.475 190.377 132.821 190.804 132.821V131.275ZM193.897 132.821C194.324 132.821 194.67 132.475 194.67 132.048C194.67 131.621 194.324 131.275 193.897 131.275V132.821ZM196.989 131.275C196.562 131.275 196.216 131.621 196.216 132.048C196.216 132.475 196.562 132.821 196.989 132.821V131.275ZM200.082 132.821C200.509 132.821 200.855 132.475 200.855 132.048C200.855 131.621 200.509 131.275 200.082 131.275V132.821ZM203.174 131.275C202.747 131.275 202.401 131.621 202.401 132.048C202.401 132.475 202.747 132.821 203.174 132.821V131.275ZM206.266 132.821C206.693 132.821 207.04 132.475 207.04 132.048C207.04 131.621 206.693 131.275 206.266 131.275V132.821ZM209.359 131.275C208.932 131.275 208.586 131.621 208.586 132.048C208.586 132.475 208.932 132.821 209.359 132.821V131.275ZM212.451 132.821C212.878 132.821 213.225 132.475 213.225 132.048C213.225 131.621 212.878 131.275 212.451 131.275V132.821ZM215.544 131.275C215.117 131.275 214.771 131.621 214.771 132.048C214.771 132.475 215.117 132.821 215.544 132.821V131.275ZM218.636 132.821C219.063 132.821 219.409 132.475 219.409 132.048C219.409 131.621 219.063 131.275 218.636 131.275V132.821ZM221.729 131.275C221.302 131.275 220.956 131.621 220.956 132.048C220.956 132.475 221.302 132.821 221.729 132.821V131.275ZM221.729 112.72C221.302 112.72 220.956 113.066 220.956 113.493C220.956 113.92 221.302 114.266 221.729 114.266V112.72ZM218.636 114.266C219.063 114.266 219.409 113.92 219.409 113.493C219.409 113.066 219.063 112.72 218.636 112.72V114.266ZM215.544 112.72C215.117 112.72 214.771 113.066 214.771 113.493C214.771 113.92 215.117 114.266 215.544 114.266V112.72ZM212.451 114.266C212.878 114.266 213.225 113.92 213.225 113.493C213.225 113.066 212.878 112.72 212.451 112.72V114.266ZM209.359 112.72C208.932 112.72 208.586 113.066 208.586 113.493C208.586 113.92 208.932 114.266 209.359 114.266V112.72ZM206.267 114.266C206.693 114.266 207.04 113.92 207.04 113.493C207.04 113.066 206.693 112.72 206.267 112.72V114.266ZM203.174 112.72C202.747 112.72 202.401 113.066 202.401 113.493C202.401 113.92 202.747 114.266 203.174 114.266V112.72ZM200.082 114.266C200.509 114.266 200.855 113.92 200.855 113.493C200.855 113.066 200.509 112.72 200.082 112.72V114.266ZM196.989 112.72C196.562 112.72 196.216 113.066 196.216 113.493C196.216 113.92 196.562 114.266 196.989 114.266V112.72ZM193.897 114.266C194.324 114.266 194.67 113.92 194.67 113.493C194.67 113.066 194.324 112.72 193.897 112.72V114.266ZM190.804 112.72C190.377 112.72 190.031 113.066 190.031 113.493C190.031 113.92 190.377 114.266 190.804 114.266V112.72ZM187.712 114.266C188.139 114.266 188.485 113.92 188.485 113.493C188.485 113.066 188.139 112.72 187.712 112.72V114.266ZM184.619 112.72C184.192 112.72 183.846 113.066 183.846 113.493C183.846 113.92 184.192 114.266 184.619 114.266V112.72ZM181.527 114.266C181.954 114.266 182.3 113.92 182.3 113.493C182.3 113.066 181.954 112.72 181.527 112.72V114.266ZM178.434 112.72C178.007 112.72 177.661 113.066 177.661 113.493C177.661 113.92 178.007 114.266 178.434 114.266V112.72ZM175.342 114.266C175.769 114.266 176.115 113.92 176.115 113.493C176.115 113.066 175.769 112.72 175.342 112.72V114.266ZM172.25 112.72C171.823 112.72 171.476 113.066 171.476 113.493C171.476 113.92 171.823 114.266 172.25 114.266V112.72ZM169.157 114.266C169.584 114.266 169.93 113.92 169.93 113.493C169.93 113.066 169.584 112.72 169.157 112.72V114.266ZM166.065 112.72C165.638 112.72 165.291 113.066 165.291 113.493C165.291 113.92 165.638 114.266 166.065 114.266V112.72ZM162.972 114.266C163.399 114.266 163.745 113.92 163.745 113.493C163.745 113.066 163.399 112.72 162.972 112.72V114.266ZM159.88 112.72C159.453 112.72 159.107 113.066 159.107 113.493C159.107 113.92 159.453 114.266 159.88 114.266V112.72ZM156.787 114.266C157.214 114.266 157.56 113.92 157.56 113.493C157.56 113.066 157.214 112.72 156.787 112.72V114.266ZM153.695 112.72C153.268 112.72 152.922 113.066 152.922 113.493C152.922 113.92 153.268 114.266 153.695 114.266V112.72ZM150.602 114.266C151.029 114.266 151.375 113.92 151.375 113.493C151.375 113.066 151.029 112.72 150.602 112.72V114.266ZM147.51 112.72C147.083 112.72 146.737 113.066 146.737 113.493C146.737 113.92 147.083 114.266 147.51 114.266V112.72ZM144.417 114.266C144.844 114.266 145.191 113.92 145.191 113.493C145.191 113.066 144.844 112.72 144.417 112.72V114.266ZM141.325 112.72C140.898 112.72 140.552 113.066 140.552 113.493C140.552 113.92 140.898 114.266 141.325 114.266V112.72ZM138.233 114.266C138.66 114.266 139.006 113.92 139.006 113.493C139.006 113.066 138.66 112.72 138.233 112.72V114.266ZM135.14 112.72C134.713 112.72 134.367 113.066 134.367 113.493C134.367 113.92 134.713 114.266 135.14 114.266V112.72ZM132.048 114.266C132.475 114.266 132.821 113.92 132.821 113.493C132.821 113.066 132.475 112.72 132.048 112.72V114.266ZM128.955 112.72C128.528 112.72 128.182 113.066 128.182 113.493C128.182 113.92 128.528 114.266 128.955 114.266V112.72ZM125.863 114.266C126.29 114.266 126.636 113.92 126.636 113.493C126.636 113.066 126.29 112.72 125.863 112.72V114.266ZM122.77 112.72C122.343 112.72 121.997 113.066 121.997 113.493C121.997 113.92 122.343 114.266 122.77 114.266V112.72ZM119.678 114.266C120.105 114.266 120.451 113.92 120.451 113.493C120.451 113.066 120.105 112.72 119.678 112.72V114.266ZM116.585 112.72C116.158 112.72 115.812 113.066 115.812 113.493C115.812 113.92 116.158 114.266 116.585 114.266V112.72ZM113.493 114.266C113.92 114.266 114.266 113.92 114.266 113.493C114.266 113.066 113.92 112.72 113.493 112.72V114.266ZM110.4 112.72C109.973 112.72 109.627 113.066 109.627 113.493C109.627 113.92 109.973 114.266 110.4 114.266V112.72ZM107.308 114.266C107.735 114.266 108.081 113.92 108.081 113.493C108.081 113.066 107.735 112.72 107.308 112.72V114.266ZM104.216 112.72C103.789 112.72 103.442 113.066 103.442 113.493C103.442 113.92 103.789 114.266 104.216 114.266V112.72ZM101.123 114.266C101.55 114.266 101.896 113.92 101.896 113.493C101.896 113.066 101.55 112.72 101.123 112.72V114.266ZM98.0306 112.72C97.6037 112.72 97.2575 113.066 97.2575 113.493C97.2575 113.92 97.6037 114.266 98.0306 114.266V112.72ZM94.9382 114.266C95.3652 114.266 95.7113 113.92 95.7113 113.493C95.7113 113.066 95.3652 112.72 94.9382 112.72V114.266ZM91.8457 112.72C91.4188 112.72 91.0726 113.066 91.0726 113.493C91.0726 113.92 91.4188 114.266 91.8457 114.266V112.72ZM88.7533 114.266C89.1803 114.266 89.5264 113.92 89.5264 113.493C89.5264 113.066 89.1803 112.72 88.7533 112.72V114.266ZM85.6608 112.72C85.2339 112.72 84.8877 113.066 84.8877 113.493C84.8877 113.92 85.2339 114.266 85.6608 114.266V112.72ZM82.5684 114.266C82.9954 114.266 83.3415 113.92 83.3415 113.493C83.3415 113.066 82.9954 112.72 82.5684 112.72V114.266ZM79.4759 112.72C79.049 112.72 78.7028 113.066 78.7028 113.493C78.7028 113.92 79.049 114.266 79.4759 114.266V112.72ZM76.3835 114.266C76.8105 114.266 77.1566 113.92 77.1566 113.493C77.1566 113.066 76.8105 112.72 76.3835 112.72V114.266ZM73.291 112.72C72.864 112.72 72.5179 113.066 72.5179 113.493C72.5179 113.92 72.864 114.266 73.291 114.266V112.72ZM70.1986 114.266C70.6256 114.266 70.9717 113.92 70.9717 113.493C70.9717 113.066 70.6256 112.72 70.1986 112.72V114.266ZM68.6523 132.821H70.1986V131.275H68.6523V132.821ZM73.291 132.821H76.3835V131.275H73.291V132.821ZM79.4759 132.821H82.5684V131.275H79.4759V132.821ZM85.6608 132.821H88.7533V131.275H85.6608V132.821ZM91.8457 132.821H94.9382V131.275H91.8457V132.821ZM98.0306 132.821H101.123V131.275H98.0306V132.821ZM104.216 132.821H107.308V131.275H104.216V132.821ZM110.4 132.821H113.493V131.275H110.4V132.821ZM116.585 132.821H119.678V131.275H116.585V132.821ZM122.77 132.821H125.863V131.275H122.77V132.821ZM128.955 132.821H132.048V131.275H128.955V132.821ZM135.14 132.821H138.233V131.275H135.14V132.821ZM141.325 132.821H144.417V131.275H141.325V132.821ZM147.51 132.821H150.602V131.275H147.51V132.821ZM153.695 132.821H156.787V131.275H153.695V132.821ZM159.88 132.821H162.972V131.275H159.88V132.821ZM166.065 132.821H169.157V131.275H166.065V132.821ZM172.25 132.821H175.342V131.275H172.25V132.821ZM178.434 132.821H181.527V131.275H178.434V132.821ZM184.619 132.821H187.712V131.275H184.619V132.821ZM190.804 132.821H193.897V131.275H190.804V132.821ZM196.989 132.821H200.082V131.275H196.989V132.821ZM203.174 132.821H206.266V131.275H203.174V132.821ZM209.359 132.821H212.451V131.275H209.359V132.821ZM215.544 132.821H218.636V131.275H215.544V132.821ZM221.729 132.821H223.275V131.275H221.729V132.821ZM223.275 112.72H221.729V114.266H223.275V112.72ZM218.636 112.72H215.544V114.266H218.636V112.72ZM212.451 112.72H209.359V114.266H212.451V112.72ZM206.267 112.72H203.174V114.266H206.267V112.72ZM200.082 112.72H196.989V114.266H200.082V112.72ZM193.897 112.72H190.804V114.266H193.897V112.72ZM187.712 112.72H184.619V114.266H187.712V112.72ZM181.527 112.72H178.434V114.266H181.527V112.72ZM175.342 112.72H172.25V114.266H175.342V112.72ZM169.157 112.72H166.065V114.266H169.157V112.72ZM162.972 112.72H159.88V114.266H162.972V112.72ZM156.787 112.72H153.695V114.266H156.787V112.72ZM150.602 112.72H147.51V114.266H150.602V112.72ZM144.417 112.72H141.325V114.266H144.417V112.72ZM138.233 112.72H135.14V114.266H138.233V112.72ZM132.048 112.72H128.955V114.266H132.048V112.72ZM125.863 112.72H122.77V114.266H125.863V112.72ZM119.678 112.72H116.585V114.266H119.678V112.72ZM113.493 112.72H110.4V114.266H113.493V112.72ZM107.308 112.72H104.216V114.266H107.308V112.72ZM101.123 112.72H98.0306V114.266H101.123V112.72ZM94.9382 112.72H91.8457V114.266H94.9382V112.72ZM88.7533 112.72H85.6608V114.266H88.7533V112.72ZM82.5684 112.72H79.4759V114.266H82.5684V112.72ZM76.3835 112.72H73.291V114.266H76.3835V112.72ZM70.1986 112.72H68.6523V114.266H70.1986V112.72Z" fill="#4C4C4C"/>
<g filter="url(#filter1_d_38_33806)">
<path d="M57.1646 140.313H56.9865C56.1058 140.313 55.418 140.536 54.9232 140.981C54.4383 141.417 54.1959 142.194 54.1959 143.312C54.1959 143.678 54.2305 143.935 54.2998 144.084C54.369 144.222 54.4037 144.301 54.4037 144.321C53.8693 144.321 53.4685 144.212 53.2013 143.995C52.944 143.767 52.8154 143.396 52.8154 142.881C52.8154 142.179 52.9886 141.54 53.3349 140.966C53.6813 140.383 54.2305 139.913 54.9826 139.556C55.7446 139.2 56.7094 139.022 57.8771 139.022C58.5302 139.022 59.2328 139.081 59.9849 139.2C60.6183 139.309 61.1823 139.363 61.6771 139.363C62.3104 139.363 62.8844 139.259 63.399 139.052C63.3792 139.695 63.2159 140.17 62.9091 140.477C62.6024 140.783 62.1472 140.937 61.5435 140.937C61.2269 140.937 60.9102 140.912 60.5935 140.863C60.2769 140.813 59.8266 140.729 59.2427 140.61L57.1943 150.14H55.0568L57.1646 140.313ZM62.04 150.199C61.3077 150.199 60.7288 150.011 60.3033 149.635C59.8777 149.259 59.665 148.665 59.665 147.854C59.665 147.181 59.8035 146.434 60.0806 145.613C60.3577 144.791 60.803 144.084 61.4165 143.49C62.0301 142.886 62.802 142.584 63.7322 142.584C64.9988 142.584 65.6322 143.376 65.6322 144.959V144.974C65.6619 144.984 65.7163 144.989 65.7955 144.989C66.122 144.989 66.4981 144.905 66.9236 144.737C67.3491 144.559 67.735 144.346 68.0814 144.098L68.215 144.499C67.928 144.806 67.552 145.068 67.0869 145.286C66.6317 145.494 66.1319 145.642 65.5876 145.731C65.5085 146.632 65.3056 147.419 64.979 148.091C64.6525 148.764 64.2319 149.284 63.7173 149.65C63.2027 150.016 62.6436 150.199 62.04 150.199ZM62.6337 148.863C62.8712 148.863 63.1087 148.73 63.3462 148.463C63.5837 148.185 63.7915 147.814 63.9697 147.349C64.1478 146.874 64.2764 146.35 64.3556 145.776C64.0884 145.716 63.9548 145.509 63.9548 145.152C63.9548 144.747 64.1082 144.479 64.415 144.351C64.3952 144.024 64.3457 143.802 64.2665 143.683C64.1874 143.554 64.0488 143.49 63.8509 143.49C63.5244 143.49 63.2077 143.727 62.9009 144.202C62.5941 144.677 62.3467 145.246 62.1587 145.909C61.9707 146.572 61.8767 147.156 61.8767 147.661C61.8767 148.136 61.9311 148.458 62.04 148.626C62.1488 148.784 62.3467 148.863 62.6337 148.863ZM68.1772 150.229C67.6131 150.229 67.1431 150.036 66.767 149.65C66.391 149.264 66.203 148.66 66.203 147.839C66.203 147.107 66.3464 146.34 66.6334 145.538C66.9303 144.727 67.3657 144.044 67.9397 143.49C68.5235 142.926 69.2162 142.644 70.0178 142.644C70.4235 142.644 70.7254 142.713 70.9233 142.852C71.1212 142.99 71.2202 143.173 71.2202 143.401V143.46L71.9475 140.046L74.1444 139.749L72.4373 147.765C72.3978 147.913 72.378 148.072 72.378 148.24C72.378 148.438 72.4225 148.581 72.5116 148.67C72.6105 148.75 72.7689 148.789 72.9866 148.789C73.2636 148.789 73.5011 148.67 73.6991 148.433C73.9069 148.195 74.0702 147.879 74.1889 147.483H74.8123C74.2087 149.254 73.2142 150.14 71.8287 150.14C71.423 150.14 71.0915 150.031 70.8342 149.813C70.5868 149.596 70.4334 149.279 70.3741 148.863C70.1168 149.259 69.805 149.586 69.4389 149.843C69.0827 150.1 68.6621 150.229 68.1772 150.229ZM69.142 148.789C69.3795 148.789 69.617 148.68 69.8545 148.463C70.1019 148.245 70.2702 147.943 70.3592 147.557V147.483L71.0866 144.084C70.9975 143.737 70.7946 143.564 70.478 143.564C70.0821 143.564 69.7259 143.797 69.4092 144.262C69.0925 144.717 68.8452 145.271 68.667 145.924C68.4889 146.567 68.3998 147.137 68.3998 147.631C68.3998 148.126 68.4691 148.443 68.6076 148.581C68.7561 148.72 68.9342 148.789 69.142 148.789ZM76.3619 150.199C75.6296 150.199 75.0507 150.011 74.6252 149.635C74.1997 149.259 73.9869 148.665 73.9869 147.854C73.9869 147.171 74.1205 146.424 74.3877 145.613C74.6549 144.791 75.0903 144.084 75.6939 143.49C76.2976 142.886 77.0695 142.584 78.0096 142.584C79.1773 142.584 79.8057 143.252 79.8947 144.588C80.1124 144.539 80.3054 144.42 80.4736 144.232C80.6419 144.034 80.8002 143.811 80.9486 143.564H81.4236C81.1564 144.098 80.9189 144.519 80.7111 144.826C80.5033 145.123 80.2312 145.365 79.8947 145.553C79.8353 146.483 79.6424 147.3 79.3158 148.002C78.9991 148.705 78.5835 149.249 78.0689 149.635C77.5543 150.011 76.9853 150.199 76.3619 150.199ZM76.9557 148.863C77.3218 148.863 77.6632 148.566 77.9799 147.973C78.2965 147.379 78.5142 146.647 78.633 145.776C78.3955 145.687 78.2767 145.464 78.2767 145.108C78.2767 144.722 78.4153 144.465 78.6924 144.336C78.6726 144.019 78.6182 143.802 78.5291 143.683C78.4499 143.554 78.3163 143.49 78.1283 143.49C77.8017 143.49 77.49 143.727 77.1932 144.202C76.8963 144.667 76.6538 145.236 76.4658 145.909C76.2877 146.572 76.1986 147.156 76.1986 147.661C76.1986 148.136 76.253 148.458 76.3619 148.626C76.4708 148.784 76.6687 148.863 76.9557 148.863ZM85.7744 142.169H87.9119L87.6744 143.282C88.1692 142.857 88.7481 142.644 89.4111 142.644C89.9653 142.644 90.4056 142.827 90.7322 143.193C91.0587 143.559 91.222 144.158 91.222 144.989C91.222 145.771 91.1082 146.563 90.8806 147.364C90.653 148.156 90.2671 148.834 89.7228 149.398C89.1785 149.952 88.4611 150.229 87.5705 150.229C86.9371 150.229 86.5165 150.051 86.3087 149.695L85.5369 153.316L83.2954 153.851L85.7744 142.169ZM87.1103 148.938C87.5853 148.938 87.9762 148.715 88.283 148.27C88.5996 147.824 88.8272 147.295 88.9658 146.681C89.1142 146.058 89.1884 145.479 89.1884 144.945C89.1884 144.123 88.941 143.713 88.4462 143.713C88.2681 143.713 88.085 143.777 87.897 143.906C87.7189 144.034 87.5606 144.212 87.422 144.44L86.5462 148.596C86.6254 148.824 86.8134 148.938 87.1103 148.938ZM93.7124 150.229C92.9801 150.229 92.4111 150.041 92.0054 149.665C91.5997 149.279 91.3968 148.68 91.3968 147.869C91.3968 147.186 91.5304 146.434 91.7976 145.613C92.0648 144.791 92.5002 144.084 93.1038 143.49C93.7075 142.886 94.4744 142.584 95.4046 142.584C96.4931 142.584 97.0374 143.059 97.0374 144.009C97.0374 144.564 96.8791 145.073 96.5624 145.538C96.2458 146.003 95.8252 146.379 95.3007 146.666C94.7762 146.944 94.2171 147.102 93.6234 147.141C93.6036 147.438 93.5937 147.636 93.5937 147.735C93.5937 148.22 93.6778 148.552 93.846 148.73C94.0142 148.898 94.2864 148.982 94.6624 148.982C95.1968 148.982 95.652 148.858 96.028 148.611C96.414 148.364 96.8346 147.988 97.2898 147.483H97.7945C96.696 149.314 95.3353 150.229 93.7124 150.229ZM93.7421 146.429C94.1082 146.409 94.4546 146.281 94.7812 146.043C95.1176 145.806 95.3848 145.504 95.5827 145.138C95.7905 144.771 95.8945 144.385 95.8945 143.98C95.8945 143.574 95.7708 143.371 95.5234 143.371C95.1671 143.371 94.8158 143.683 94.4694 144.306C94.133 144.93 93.8905 145.637 93.7421 146.429ZM98.6819 150.229C98.1773 150.229 97.8012 150.076 97.5538 149.769C97.3163 149.462 97.1976 149.056 97.1976 148.552C97.1976 148.294 97.2273 148.032 97.2866 147.765L98.2366 143.312H97.7468L97.8655 142.718H98.3554L98.8007 140.67L100.998 140.373C100.909 140.749 100.859 140.971 100.849 141.041C100.78 141.318 100.661 141.877 100.493 142.718H101.384L101.265 143.312H100.374L99.4241 147.765C99.3747 147.983 99.3499 148.156 99.3499 148.284C99.3499 148.641 99.5231 148.819 99.8694 148.819C100.048 148.819 100.176 148.804 100.255 148.774C100.057 149.348 99.8249 149.734 99.5577 149.932C99.2905 150.13 98.9986 150.229 98.6819 150.229ZM109.045 139.007H110.604L108.808 141.813H107.695L109.045 139.007ZM106.715 150.229C105.992 150.229 105.428 150.041 105.023 149.665C104.617 149.279 104.414 148.68 104.414 147.869C104.414 147.186 104.548 146.434 104.815 145.613C105.082 144.791 105.517 144.084 106.121 143.49C106.725 142.886 107.492 142.584 108.422 142.584C109.51 142.584 110.055 143.059 110.055 144.009C110.055 144.564 109.896 145.073 109.58 145.538C109.263 146.003 108.842 146.379 108.318 146.666C107.794 146.944 107.234 147.102 106.641 147.141C106.621 147.359 106.611 147.508 106.611 147.587C106.611 148.408 106.918 148.819 107.531 148.819C107.808 148.819 108.105 148.745 108.422 148.596C108.739 148.448 109.026 148.26 109.283 148.032C109.016 149.497 108.16 150.229 106.715 150.229ZM106.745 146.429C107.121 146.419 107.472 146.295 107.798 146.058C108.135 145.82 108.402 145.519 108.6 145.152C108.808 144.776 108.912 144.385 108.912 143.98C108.912 143.574 108.788 143.371 108.541 143.371C108.194 143.371 107.848 143.688 107.502 144.321C107.165 144.945 106.913 145.647 106.745 146.429ZM115.398 150.229C114.666 150.229 114.097 150.041 113.691 149.665C113.285 149.279 113.083 148.68 113.083 147.869C113.083 147.186 113.216 146.434 113.483 145.613C113.751 144.791 114.186 144.084 114.79 143.49C115.393 142.886 116.16 142.584 117.09 142.584C118.179 142.584 118.723 143.059 118.723 144.009C118.723 144.564 118.565 145.073 118.248 145.538C117.932 146.003 117.511 146.379 116.987 146.666C116.462 146.944 115.903 147.102 115.309 147.141C115.289 147.438 115.279 147.636 115.279 147.735C115.279 148.22 115.364 148.552 115.532 148.73C115.7 148.898 115.972 148.982 116.348 148.982C116.883 148.982 117.338 148.858 117.714 148.611C118.1 148.364 118.52 147.988 118.976 147.483H119.48C118.382 149.314 117.021 150.229 115.398 150.229ZM115.428 146.429C115.794 146.409 116.14 146.281 116.467 146.043C116.803 145.806 117.071 145.504 117.269 145.138C117.476 144.771 117.58 144.385 117.58 143.98C117.58 143.574 117.457 143.371 117.209 143.371C116.853 143.371 116.502 143.683 116.155 144.306C115.819 144.93 115.576 145.637 115.428 146.429ZM120.665 150.229C120.19 150.229 119.789 150.14 119.462 149.962C119.136 149.774 118.893 149.536 118.735 149.249C118.577 148.952 118.497 148.646 118.497 148.329C118.497 148.002 118.577 147.72 118.735 147.483C118.883 147.235 119.066 147.057 119.284 146.948C119.67 146.256 120.007 145.558 120.294 144.856C120.581 144.143 120.853 143.376 121.11 142.555L123.307 142.258C123.356 143.525 123.44 144.895 123.559 146.37C123.609 146.963 123.633 147.394 123.633 147.661C123.633 147.889 123.614 148.077 123.574 148.225C124.039 147.958 124.395 147.71 124.643 147.483H125.266C124.633 148.215 123.876 148.834 122.995 149.338C122.708 149.645 122.352 149.873 121.926 150.021C121.511 150.16 121.09 150.229 120.665 150.229ZM120.19 149.056C120.556 149.056 120.863 148.947 121.11 148.73C121.357 148.512 121.481 148.161 121.481 147.676C121.481 147.379 121.451 146.963 121.392 146.429C121.293 145.301 121.229 144.544 121.199 144.158C120.962 144.94 120.561 145.875 119.997 146.963C120.224 147.082 120.338 147.255 120.338 147.483C120.338 147.671 120.274 147.839 120.145 147.988C120.026 148.136 119.873 148.21 119.685 148.21C119.477 148.21 119.344 148.146 119.284 148.017C119.284 148.373 119.353 148.636 119.492 148.804C119.64 148.972 119.873 149.056 120.19 149.056ZM125.768 142.169H127.906L127.668 143.282C128.163 142.857 128.742 142.644 129.405 142.644C129.959 142.644 130.4 142.827 130.726 143.193C131.053 143.559 131.216 144.158 131.216 144.989C131.216 145.771 131.102 146.563 130.875 147.364C130.647 148.156 130.261 148.834 129.717 149.398C129.173 149.952 128.455 150.229 127.565 150.229C126.931 150.229 126.511 150.051 126.303 149.695L125.531 153.316L123.29 153.851L125.768 142.169ZM127.104 148.938C127.579 148.938 127.97 148.715 128.277 148.27C128.594 147.824 128.821 147.295 128.96 146.681C129.108 146.058 129.183 145.479 129.183 144.945C129.183 144.123 128.935 143.713 128.44 143.713C128.262 143.713 128.079 143.777 127.891 143.906C127.713 144.034 127.555 144.212 127.416 144.44L126.54 148.596C126.62 148.824 126.808 148.938 127.104 148.938ZM133.707 150.229C132.974 150.229 132.405 150.041 131.999 149.665C131.594 149.279 131.391 148.68 131.391 147.869C131.391 147.186 131.524 146.434 131.792 145.613C132.059 144.791 132.494 144.084 133.098 143.49C133.702 142.886 134.469 142.584 135.399 142.584C136.487 142.584 137.032 143.059 137.032 144.009C137.032 144.564 136.873 145.073 136.557 145.538C136.24 146.003 135.819 146.379 135.295 146.666C134.77 146.944 134.211 147.102 133.617 147.141C133.598 147.438 133.588 147.636 133.588 147.735C133.588 148.22 133.672 148.552 133.84 148.73C134.008 148.898 134.28 148.982 134.657 148.982C135.191 148.982 135.646 148.858 136.022 148.611C136.408 148.364 136.829 147.988 137.284 147.483H137.789C136.69 149.314 135.329 150.229 133.707 150.229ZM133.736 146.429C134.102 146.409 134.449 146.281 134.775 146.043C135.112 145.806 135.379 145.504 135.577 145.138C135.785 144.771 135.889 144.385 135.889 143.98C135.889 143.574 135.765 143.371 135.517 143.371C135.161 143.371 134.81 143.683 134.464 144.306C134.127 144.93 133.885 145.637 133.736 146.429ZM139.403 150.229C138.671 150.229 138.102 150.041 137.696 149.665C137.291 149.279 137.088 148.68 137.088 147.869C137.088 147.186 137.221 146.434 137.489 145.613C137.766 144.791 138.201 144.084 138.795 143.49C139.398 142.886 140.16 142.584 141.081 142.584C141.675 142.584 142.095 142.713 142.342 142.97C142.6 143.228 142.728 143.554 142.728 143.95C142.728 144.296 142.654 144.564 142.506 144.752C142.357 144.94 142.169 145.034 141.942 145.034C141.773 145.034 141.6 144.974 141.422 144.856C141.541 144.529 141.6 144.237 141.6 143.98C141.6 143.792 141.566 143.643 141.496 143.534C141.427 143.426 141.323 143.371 141.185 143.371C140.888 143.371 140.591 143.614 140.294 144.098C139.997 144.583 139.755 145.172 139.567 145.865C139.379 146.558 139.285 147.181 139.285 147.735C139.285 148.22 139.369 148.552 139.537 148.73C139.705 148.898 139.977 148.982 140.353 148.982C140.888 148.982 141.343 148.858 141.719 148.611C142.105 148.364 142.526 147.988 142.981 147.483H143.485C142.387 149.314 141.026 150.229 139.403 150.229ZM145.457 141.916C145.13 141.916 144.853 141.803 144.625 141.575C144.398 141.347 144.284 141.07 144.284 140.744C144.284 140.417 144.398 140.14 144.625 139.913C144.853 139.675 145.13 139.556 145.457 139.556C145.783 139.556 146.06 139.675 146.288 139.913C146.525 140.14 146.644 140.417 146.644 140.744C146.644 141.07 146.525 141.347 146.288 141.575C146.06 141.803 145.783 141.916 145.457 141.916ZM144.447 150.229C143.972 150.229 143.586 150.081 143.289 149.784C143.002 149.487 142.859 149.041 142.859 148.448C142.859 148.2 142.898 147.879 142.978 147.483L143.987 142.718H146.125L145.056 147.765C145.016 147.913 144.996 148.072 144.996 148.24C144.996 148.438 145.041 148.581 145.13 148.67C145.229 148.75 145.387 148.789 145.605 148.789C145.892 148.789 146.159 148.67 146.407 148.433C146.654 148.185 146.832 147.869 146.941 147.483H147.564C147.198 148.552 146.728 149.279 146.154 149.665C145.58 150.041 145.011 150.229 144.447 150.229ZM148.716 150.229C148.152 150.229 147.682 150.036 147.306 149.65C146.93 149.264 146.742 148.66 146.742 147.839C146.742 147.107 146.886 146.34 147.173 145.538C147.469 144.727 147.905 144.044 148.479 143.49C149.063 142.926 149.755 142.644 150.557 142.644C150.963 142.644 151.264 142.713 151.462 142.852C151.66 142.99 151.759 143.173 151.759 143.401V143.505L151.923 142.718H154.06L152.991 147.765C152.952 147.913 152.932 148.072 152.932 148.24C152.932 148.665 153.135 148.878 153.54 148.878C153.818 148.878 154.055 148.75 154.253 148.492C154.461 148.235 154.624 147.898 154.743 147.483H155.366C155 148.552 154.545 149.279 154.001 149.665C153.466 150.041 152.927 150.229 152.383 150.229C151.967 150.229 151.631 150.115 151.373 149.888C151.126 149.65 150.977 149.309 150.928 148.863C150.641 149.269 150.319 149.601 149.963 149.858C149.617 150.105 149.201 150.229 148.716 150.229ZM149.681 148.789C149.928 148.789 150.171 148.675 150.408 148.448C150.656 148.21 150.824 147.889 150.913 147.483L151.626 144.128C151.626 144 151.576 143.876 151.477 143.757C151.378 143.628 151.225 143.564 151.017 143.564C150.621 143.564 150.265 143.797 149.948 144.262C149.632 144.717 149.384 145.271 149.206 145.924C149.028 146.567 148.939 147.137 148.939 147.631C148.939 148.126 149.008 148.443 149.147 148.581C149.295 148.72 149.473 148.789 149.681 148.789ZM156.188 150.229C155.713 150.229 155.327 150.081 155.03 149.784C154.743 149.477 154.6 149.022 154.6 148.418C154.6 148.171 154.639 147.849 154.719 147.453L156.307 140.016L158.504 139.72L156.797 147.735C156.757 147.884 156.737 148.027 156.737 148.166C156.737 148.562 156.94 148.759 157.346 148.759C157.524 148.759 157.682 148.73 157.821 148.67C157.781 149.165 157.603 149.551 157.287 149.828C156.98 150.095 156.614 150.229 156.188 150.229ZM159.454 150.199C159.128 150.199 158.851 150.085 158.623 149.858C158.395 149.63 158.282 149.353 158.282 149.027C158.282 148.7 158.395 148.423 158.623 148.195C158.851 147.958 159.128 147.839 159.454 147.839C159.781 147.839 160.058 147.958 160.285 148.195C160.523 148.423 160.642 148.7 160.642 149.027C160.642 149.353 160.523 149.63 160.285 149.858C160.058 150.085 159.781 150.199 159.454 150.199ZM168.175 151.832C167.809 151.832 167.487 151.802 167.21 151.743C166.933 151.684 166.69 151.54 166.483 151.313C166.285 151.085 166.186 150.734 166.186 150.259C166.186 149.596 166.384 148.705 166.78 147.587C167.185 146.469 167.715 145.345 168.368 144.217C167.873 144.247 167.482 144.321 167.195 144.44C166.908 144.559 166.72 144.742 166.631 144.989C166.671 144.989 166.71 145.039 166.75 145.138C166.799 145.236 166.824 145.34 166.824 145.449C166.824 145.627 166.745 145.771 166.587 145.88C166.428 145.979 166.23 146.028 165.993 146.028C165.716 146.028 165.493 145.954 165.325 145.806C165.157 145.657 165.072 145.444 165.072 145.167C165.072 144.831 165.201 144.524 165.458 144.247C165.726 143.97 166.092 143.752 166.557 143.594C167.022 143.426 167.537 143.341 168.101 143.341C168.308 143.341 168.566 143.356 168.872 143.386C169.684 142.1 170.54 141.051 171.44 140.239C172.351 139.418 173.217 139.007 174.038 139.007C174.513 139.007 174.904 139.076 175.211 139.215L172.88 150.14H170.743L171.886 144.752C171.52 144.583 171.183 144.46 170.876 144.381C170.57 144.301 170.243 144.247 169.897 144.217C169.333 145.434 168.868 146.681 168.501 147.958C168.145 149.225 167.967 150.239 167.967 151.001C167.967 151.377 168.036 151.654 168.175 151.832ZM172.88 140.061C172.455 140.289 172.009 140.714 171.544 141.338C171.089 141.951 170.644 142.698 170.208 143.579C170.921 143.717 171.525 143.891 172.019 144.098L172.88 140.061ZM176.324 150.229C175.849 150.229 175.463 150.081 175.166 149.784C174.879 149.487 174.735 149.041 174.735 148.448C174.735 148.2 174.775 147.879 174.854 147.483L176.442 140.046L178.639 139.749L176.932 147.765C176.893 147.913 176.873 148.072 176.873 148.24C176.873 148.438 176.917 148.581 177.006 148.67C177.105 148.75 177.264 148.789 177.481 148.789C177.768 148.789 178.036 148.67 178.283 148.433C178.53 148.185 178.708 147.869 178.817 147.483H179.441C179.075 148.552 178.605 149.279 178.031 149.665C177.457 150.041 176.888 150.229 176.324 150.229ZM181.439 153.851C180.964 153.851 180.568 153.727 180.251 153.48C179.935 153.232 179.776 152.876 179.776 152.411C179.776 151.847 180.004 151.392 180.459 151.045C180.914 150.709 181.493 150.427 182.196 150.199L182.374 149.413C181.869 149.957 181.275 150.229 180.593 150.229C180.029 150.229 179.559 150.036 179.183 149.65C178.806 149.264 178.618 148.66 178.618 147.839C178.618 147.107 178.762 146.34 179.049 145.538C179.346 144.727 179.781 144.044 180.355 143.49C180.939 142.926 181.632 142.644 182.433 142.644C182.839 142.644 183.141 142.713 183.339 142.852C183.537 142.99 183.636 143.173 183.636 143.401V143.49L183.799 142.718H185.936L184.467 149.606C184.942 149.447 185.323 149.21 185.61 148.893C185.897 148.576 186.139 148.106 186.337 147.483H186.961C186.693 148.364 186.332 149.012 185.877 149.427C185.422 149.833 184.907 150.11 184.333 150.259L184.111 151.327C183.913 152.287 183.571 152.945 183.086 153.302C182.602 153.668 182.052 153.851 181.439 153.851ZM181.558 148.789C181.785 148.789 182.018 148.685 182.255 148.477C182.493 148.27 182.656 147.988 182.745 147.631L183.502 144.113C183.502 143.995 183.453 143.876 183.354 143.757C183.255 143.628 183.101 143.564 182.893 143.564C182.498 143.564 182.141 143.797 181.825 144.262C181.508 144.717 181.261 145.271 181.083 145.924C180.904 146.567 180.815 147.137 180.815 147.631C180.815 148.126 180.885 148.443 181.023 148.581C181.172 148.72 181.35 148.789 181.558 148.789ZM181.097 152.693C181.266 152.693 181.429 152.579 181.587 152.352C181.746 152.124 181.869 151.797 181.958 151.372L182.047 150.941C181.078 151.298 180.593 151.718 180.593 152.203C180.593 152.332 180.637 152.446 180.726 152.545C180.815 152.644 180.939 152.693 181.097 152.693ZM187.804 150.229C187.329 150.229 186.943 150.081 186.647 149.784C186.36 149.487 186.216 149.041 186.216 148.448C186.216 148.2 186.256 147.879 186.335 147.483L187.344 142.718H189.482L188.413 147.765C188.383 147.913 188.368 148.052 188.368 148.181C188.368 148.586 188.517 148.789 188.814 148.789C189.091 148.789 189.328 148.675 189.526 148.448C189.724 148.21 189.882 147.889 190.001 147.483L191.011 142.718H193.148L192.079 147.765C192.04 147.913 192.02 148.072 192.02 148.24C192.02 148.438 192.064 148.581 192.154 148.67C192.253 148.75 192.411 148.789 192.629 148.789C192.906 148.789 193.143 148.67 193.341 148.433C193.549 148.195 193.712 147.879 193.831 147.483H194.454C194.088 148.552 193.633 149.279 193.089 149.665C192.554 150.041 192.015 150.229 191.471 150.229C191.045 150.229 190.704 150.11 190.447 149.873C190.199 149.635 190.051 149.284 190.001 148.819C189.665 149.363 189.308 149.734 188.932 149.932C188.566 150.13 188.19 150.229 187.804 150.229ZM199.188 150.229C198.584 150.229 198.139 150.071 197.852 149.754C197.575 149.427 197.436 149.027 197.436 148.552C197.436 148.344 197.461 148.111 197.51 147.854C197.56 147.587 197.609 147.329 197.659 147.082C197.718 146.835 197.758 146.676 197.778 146.607C197.857 146.261 197.931 145.919 198 145.583C198.07 145.246 198.104 144.974 198.104 144.766C198.104 144.262 197.926 144.009 197.57 144.009C197.312 144.009 197.085 144.138 196.887 144.395C196.689 144.643 196.531 144.969 196.412 145.375L195.403 150.14H193.265L194.839 142.718H196.976L196.813 143.49C197.308 142.936 197.886 142.659 198.549 142.659C199.054 142.659 199.455 142.797 199.752 143.074C200.049 143.351 200.197 143.772 200.197 144.336C200.197 144.623 200.162 144.945 200.093 145.301C200.024 145.647 199.925 146.073 199.796 146.577C199.717 146.884 199.643 147.186 199.574 147.483C199.514 147.77 199.485 147.997 199.485 148.166C199.485 148.364 199.529 148.517 199.618 148.626C199.707 148.735 199.861 148.789 200.078 148.789C200.375 148.789 200.613 148.685 200.791 148.477C200.969 148.26 201.147 147.928 201.325 147.483H201.949C201.583 148.571 201.157 149.304 200.672 149.68C200.197 150.046 199.702 150.229 199.188 150.229ZM203.016 150.229C202.541 150.229 202.14 150.14 201.813 149.962C201.487 149.774 201.244 149.536 201.086 149.249C200.928 148.952 200.849 148.646 200.849 148.329C200.849 148.002 200.928 147.72 201.086 147.483C201.234 147.235 201.418 147.057 201.635 146.948C202.021 146.256 202.358 145.558 202.645 144.856C202.932 144.143 203.204 143.376 203.461 142.555L205.658 142.258C205.707 143.525 205.791 144.895 205.91 146.37C205.96 146.963 205.984 147.394 205.984 147.661C205.984 148.265 205.831 148.759 205.524 149.145C205.218 149.531 204.837 149.808 204.381 149.977C203.936 150.145 203.481 150.229 203.016 150.229ZM202.541 149.056C202.907 149.056 203.214 148.947 203.461 148.73C203.708 148.512 203.832 148.161 203.832 147.676C203.832 147.379 203.802 146.963 203.743 146.429C203.644 145.301 203.58 144.544 203.55 144.158C203.313 144.94 202.912 145.875 202.348 146.963C202.575 147.082 202.689 147.255 202.689 147.483C202.689 147.671 202.625 147.839 202.496 147.988C202.377 148.136 202.224 148.21 202.036 148.21C201.828 148.21 201.695 148.146 201.635 148.017C201.635 148.373 201.705 148.636 201.843 148.804C201.991 148.972 202.224 149.056 202.541 149.056ZM206.629 152.01C206.54 151.951 206.495 151.867 206.495 151.758C206.495 151.639 206.525 151.535 206.584 151.446C206.644 151.357 206.743 151.238 206.881 151.09C207.02 150.941 207.119 150.823 207.178 150.734C207.237 150.645 207.267 150.536 207.267 150.407C207.267 150.298 207.203 150.199 207.074 150.11C206.609 149.813 206.376 149.452 206.376 149.027C206.376 148.7 206.49 148.423 206.718 148.195C206.945 147.958 207.223 147.839 207.549 147.839C207.866 147.839 208.113 147.943 208.291 148.151C208.469 148.359 208.558 148.631 208.558 148.967C208.558 149.432 208.38 149.957 208.024 150.541C207.678 151.125 207.213 151.614 206.629 152.01ZM221.467 150.229C220.863 150.229 220.418 150.071 220.131 149.754C219.854 149.427 219.715 149.027 219.715 148.552C219.715 148.344 219.74 148.111 219.79 147.854C219.839 147.587 219.888 147.329 219.938 147.082C219.997 146.835 220.037 146.676 220.057 146.607C220.136 146.261 220.21 145.919 220.279 145.583C220.349 145.246 220.383 144.974 220.383 144.766C220.383 144.262 220.205 144.009 219.849 144.009C219.592 144.009 219.364 144.138 219.166 144.395C218.968 144.643 218.81 144.969 218.691 145.375L217.682 150.14H215.544L216.628 145.019C216.657 144.9 216.672 144.776 216.672 144.648C216.672 144.212 216.524 143.995 216.227 143.995C215.95 143.995 215.707 144.123 215.5 144.381C215.302 144.628 215.143 144.959 215.025 145.375L214.015 150.14H211.878L213.451 142.718H215.589L215.425 143.49C215.93 142.926 216.534 142.644 217.236 142.644C218.107 142.644 218.617 143.069 218.765 143.92C219.31 143.079 219.997 142.659 220.829 142.659C221.333 142.659 221.734 142.797 222.031 143.074C222.328 143.351 222.476 143.772 222.476 144.336C222.476 144.623 222.442 144.945 222.372 145.301C222.303 145.647 222.204 146.073 222.075 146.577C221.996 146.884 221.922 147.186 221.853 147.483C221.793 147.77 221.764 147.997 221.764 148.166C221.764 148.364 221.808 148.517 221.897 148.626C221.986 148.735 222.14 148.789 222.357 148.789C222.654 148.789 222.892 148.685 223.07 148.477C223.248 148.26 223.426 147.928 223.604 147.483H224.228C223.862 148.571 223.436 149.304 222.951 149.68C222.476 150.046 221.981 150.229 221.467 150.229ZM225.385 150.229C224.821 150.229 224.351 150.036 223.975 149.65C223.599 149.264 223.411 148.66 223.411 147.839C223.411 147.107 223.554 146.34 223.841 145.538C224.138 144.727 224.573 144.044 225.147 143.49C225.731 142.926 226.424 142.644 227.226 142.644C227.631 142.644 227.933 142.713 228.131 142.852C228.329 142.99 228.428 143.173 228.428 143.401V143.505L228.591 142.718H230.729L229.66 147.765C229.62 147.913 229.601 148.072 229.601 148.24C229.601 148.665 229.803 148.878 230.209 148.878C230.486 148.878 230.724 148.75 230.922 148.492C231.129 148.235 231.293 147.898 231.412 147.483H232.035C231.669 148.552 231.214 149.279 230.669 149.665C230.135 150.041 229.596 150.229 229.051 150.229C228.636 150.229 228.299 150.115 228.042 149.888C227.795 149.65 227.646 149.309 227.597 148.863C227.31 149.269 226.988 149.601 226.632 149.858C226.285 150.105 225.87 150.229 225.385 150.229ZM226.35 148.789C226.597 148.789 226.84 148.675 227.077 148.448C227.325 148.21 227.493 147.889 227.582 147.483L228.294 144.128C228.294 144 228.245 143.876 228.146 143.757C228.047 143.628 227.894 143.564 227.686 143.564C227.29 143.564 226.934 143.797 226.617 144.262C226.3 144.717 226.053 145.271 225.875 145.924C225.697 146.567 225.608 147.137 225.608 147.631C225.608 148.126 225.677 148.443 225.815 148.581C225.964 148.72 226.142 148.789 226.35 148.789ZM233.896 141.916C233.569 141.916 233.292 141.803 233.065 141.575C232.837 141.347 232.723 141.07 232.723 140.744C232.723 140.417 232.837 140.14 233.065 139.913C233.292 139.675 233.569 139.556 233.896 139.556C234.222 139.556 234.5 139.675 234.727 139.913C234.965 140.14 235.083 140.417 235.083 140.744C235.083 141.07 234.965 141.347 234.727 141.575C234.5 141.803 234.222 141.916 233.896 141.916ZM232.886 150.229C232.411 150.229 232.026 150.081 231.729 149.784C231.442 149.487 231.298 149.041 231.298 148.448C231.298 148.2 231.338 147.879 231.417 147.483L232.426 142.718H234.564L233.495 147.765C233.456 147.913 233.436 148.072 233.436 148.24C233.436 148.438 233.48 148.581 233.569 148.67C233.668 148.75 233.827 148.789 234.044 148.789C234.331 148.789 234.598 148.67 234.846 148.433C235.093 148.185 235.271 147.869 235.38 147.483H236.004C235.638 148.552 235.167 149.279 234.594 149.665C234.02 150.041 233.451 150.229 232.886 150.229ZM237.067 150.229C236.592 150.229 236.191 150.14 235.864 149.962C235.538 149.774 235.295 149.536 235.137 149.249C234.978 148.952 234.899 148.646 234.899 148.329C234.899 148.002 234.978 147.72 235.137 147.483C235.285 147.235 235.468 147.057 235.686 146.948C236.072 146.256 236.408 145.558 236.695 144.856C236.982 144.143 237.255 143.376 237.512 142.555L239.709 142.258C239.758 143.525 239.842 144.895 239.961 146.37C240.011 146.963 240.035 147.394 240.035 147.661C240.035 148.265 239.882 148.759 239.575 149.145C239.268 149.531 238.887 149.808 238.432 149.977C237.987 150.145 237.532 150.229 237.067 150.229ZM236.592 149.056C236.958 149.056 237.264 148.947 237.512 148.73C237.759 148.512 237.883 148.161 237.883 147.676C237.883 147.379 237.853 146.963 237.794 146.429C237.695 145.301 237.631 144.544 237.601 144.158C237.363 144.94 236.963 145.875 236.399 146.963C236.626 147.082 236.74 147.255 236.74 147.483C236.74 147.671 236.676 147.839 236.547 147.988C236.428 148.136 236.275 148.21 236.087 148.21C235.879 148.21 235.745 148.146 235.686 148.017C235.686 148.373 235.755 148.636 235.894 148.804C236.042 148.972 236.275 149.056 236.592 149.056ZM241.704 150.199C241.377 150.199 241.1 150.085 240.873 149.858C240.645 149.63 240.531 149.353 240.531 149.027C240.531 148.7 240.645 148.423 240.873 148.195C241.1 147.958 241.377 147.839 241.704 147.839C242.03 147.839 242.307 147.958 242.535 148.195C242.773 148.423 242.891 148.7 242.891 149.027C242.891 149.353 242.773 149.63 242.535 149.858C242.307 150.085 242.03 150.199 241.704 150.199Z" fill="#4D4D4D"/>
</g>
<defs>
<filter id="filter0_d_38_33806" x="72.8272" y="116.431" width="151.311" height="14.5345" filterUnits="userSpaceOnUse" color-interpolation-filters="sRGB">
<feFlood flood-opacity="0" result="BackgroundImageFix"/>
<feColorMatrix in="SourceAlpha" type="matrix" values="0 0 0 0 0 0 0 0 0 0 0 0 0 0 0 0 0 0 127 0" result="hardAlpha"/>
<feOffset dy="0.927736"/>
<feGaussianBlur stdDeviation="0.618491"/>
<feComposite in2="hardAlpha" operator="out"/>
<feColorMatrix type="matrix" values="0 0 0 0 0 0 0 0 0 0 0 0 0 0 0 0 0 0 0.25 0"/>
<feBlend mode="normal" in2="BackgroundImageFix" result="effect1_dropShadow_38_33806"/>
<feBlend mode="normal" in="SourceGraphic" in2="effect1_dropShadow_38_33806" result="shape"/>
</filter>
<filter id="filter1_d_38_33806" x="51.8877" y="139.007" width="191.931" height="16.6992" filterUnits="userSpaceOnUse" color-interpolation-filters="sRGB">
<feFlood flood-opacity="0" result="BackgroundImageFix"/>
<feColorMatrix in="SourceAlpha" type="matrix" values="0 0 0 0 0 0 0 0 0 0 0 0 0 0 0 0 0 0 127 0" result="hardAlpha"/>
<feOffset dy="0.927736"/>
<feGaussianBlur stdDeviation="0.463868"/>
<feComposite in2="hardAlpha" operator="out"/>
<feColorMatrix type="matrix" values="0 0 0 0 0 0 0 0 0 0 0 0 0 0 0 0 0 0 0.25 0"/>
<feBlend mode="normal" in2="BackgroundImageFix" result="effect1_dropShadow_38_33806"/>
<feBlend mode="normal" in="SourceGraphic" in2="effect1_dropShadow_38_33806" result="shape"/>
</filter>
</defs>
</svg>
