<svg width="36" height="32" viewBox="0 0 36 32" fill="none" xmlns="http://www.w3.org/2000/svg">
<path d="M23.7458 0.0493393C21.7067 0.493495 20.112 2.05453 19.3414 4.36362C18.9814 5.44155 18.8239 6.77921 18.942 7.75323C19.1727 9.67791 20.157 11.187 21.6167 11.8649C22.4436 12.2493 23.262 12.3143 24.0327 12.0623C24.5727 11.8857 25.3011 11.4909 25.7764 11.1169C27.0392 10.1273 27.9392 8.60259 28.2767 6.8831C28.392 6.29349 28.4202 5.99479 28.4174 5.33765C28.4174 4.08051 28.2261 3.16362 27.8014 2.35064C27.1545 1.11427 26.1308 0.303885 24.913 0.0623264C24.5783 -0.0026083 24.0214 -0.00780296 23.7458 0.0493393Z" fill="#813D05"/>
<path d="M10.7436 0.168754C9.61575 0.350573 8.55263 1.17135 7.91981 2.34797C7.57388 2.98953 7.41075 3.60512 7.33763 4.54797C7.30388 4.96096 7.32075 5.6233 7.37138 6.03888C7.66106 8.39733 8.85356 10.3843 10.6508 11.496C11.0108 11.7194 11.607 11.9921 12.012 12.1168C12.2989 12.2051 12.372 12.2155 12.6898 12.2285C13.1117 12.2441 13.4126 12.2077 13.7811 12.0986C14.352 11.9298 14.8189 11.6649 15.2576 11.2597C16.1267 10.4571 16.6667 9.24668 16.7933 7.8233C16.8439 7.23629 16.7876 6.36356 16.6498 5.68044C16.0986 2.90901 14.3745 0.857066 12.0908 0.249273C11.6351 0.129793 11.1683 0.101222 10.7436 0.168754Z" fill="#813D05"/>
<path d="M32.071 9.64671C30.1894 9.93243 28.5525 11.1298 27.5316 12.9714C27.0619 13.8207 26.8256 14.5116 26.6428 15.587C26.5781 15.9714 26.5669 16.1168 26.5669 16.5584C26.5669 17.0987 26.6006 17.3662 26.7216 17.8026C27.045 18.974 27.8072 19.9272 28.755 20.3506C29.2725 20.5818 29.745 20.6675 30.2766 20.6233C31.5675 20.5194 32.7178 19.9818 33.7416 19.0052C34.8694 17.9272 35.6456 16.4363 35.8988 14.8701C35.9635 14.4805 36.0085 13.7116 35.9888 13.3974C35.8847 11.7818 34.9453 10.361 33.6375 9.84152C33.1313 9.64152 32.5744 9.57139 32.071 9.64671Z" fill="#813D05"/>
<path d="M2.9558 10.3272C1.73236 10.5168 0.70299 11.3064 0.323302 12.3506C0.188302 12.7194 0.0758022 13.2467 0.0279897 13.7272C-0.146385 15.4701 0.517365 17.4389 1.76611 18.883C2.69986 19.961 3.90361 20.7064 5.2508 21.0415C6.38424 21.322 7.40236 21.0571 8.2658 20.2597C9.03643 19.548 9.42174 18.509 9.42174 17.1402C9.42174 16.6077 9.39361 16.3168 9.29236 15.8233C8.94924 14.1298 7.90861 12.509 6.48268 11.4467C5.82736 10.9584 4.94424 10.509 4.38736 10.3817C3.94861 10.2804 3.39455 10.2597 2.9558 10.3272Z" fill="#813D05"/>
<path d="M17.55 16.6623C16.5713 16.7636 15.6038 17.0052 14.6504 17.3922C13.1935 17.987 11.7872 18.9766 10.8788 20.052C8.91849 22.374 7.55724 24.8883 7.00317 27.2078C6.96942 27.3507 6.91036 27.5662 6.8738 27.6883C6.68536 28.3195 6.7163 29.0364 6.96099 29.6623C7.35474 30.6701 8.20692 31.452 9.26161 31.7792C9.89161 31.974 10.8338 31.9714 11.8829 31.7688C12.5663 31.639 13.0782 31.4883 14.5294 30.9922C16.5488 30.2987 17.1085 30.1662 18.4669 30.0494C19.0744 29.9974 19.1841 29.9948 19.6032 30.0234C20.6747 30.0935 21.5213 30.3091 23.1469 30.9221C24.5869 31.4649 25.3913 31.7584 25.5938 31.8104C27.6188 32.3403 29.6297 31.6883 30.3188 30.2779C30.6197 29.6571 30.6535 28.6468 30.4004 27.6883C30.1529 26.7558 29.4188 25.2416 28.7157 24.2208C26.7329 21.3377 25.3182 19.7351 23.6813 18.5143C22.1429 17.3688 20.8519 16.826 19.2629 16.6623C18.8157 16.6156 18.0057 16.6156 17.55 16.6623Z" fill="#813D05"/>
</svg>
