<svg width="52" height="52" viewBox="0 0 52 52" fill="none" xmlns="http://www.w3.org/2000/svg">
<path d="M48.0005 38C48.0005 39.1046 48.8959 40 50.0005 40C51.1051 40 52.0005 39.1046 52.0005 38C52.0005 36.8954 51.1051 36 50.0005 36C48.8959 36 48.0005 36.8954 48.0005 38Z" fill="url(#paint0_linear_109_47768)"/>
<path d="M48.0005 50C48.0005 51.1046 48.8959 52 50.0005 52C51.1051 52 52.0005 51.1046 52.0005 50C52.0005 48.8954 51.1051 48 50.0005 48C48.8959 48 48.0005 48.8954 48.0005 50Z" fill="url(#paint1_linear_109_47768)"/>
<path d="M24.0005 26C24.0005 27.1046 24.8959 28 26.0005 28C27.1051 28 28.0005 27.1046 28.0005 26C28.0005 24.8954 27.1051 24 26.0005 24C24.8959 24 24.0005 24.8954 24.0005 26Z" fill="url(#paint2_linear_109_47768)"/>
<path d="M24.0005 14C24.0005 15.1046 24.8959 16 26.0005 16C27.1051 16 28.0005 15.1046 28.0005 14C28.0005 12.8954 27.1051 12 26.0005 12C24.8959 12 24.0005 12.8954 24.0005 14Z" fill="url(#paint3_linear_109_47768)"/>
<path d="M24.0005 38C24.0005 39.1046 24.8959 40 26.0005 40C27.1051 40 28.0005 39.1046 28.0005 38C28.0005 36.8954 27.1051 36 26.0005 36C24.8959 36 24.0005 36.8954 24.0005 38Z" fill="url(#paint4_linear_109_47768)"/>
<path d="M24.0005 50C24.0005 51.1046 24.8959 52 26.0005 52C27.1051 52 28.0005 51.1046 28.0005 50C28.0005 48.8954 27.1051 48 26.0005 48C24.8959 48 24.0005 48.8954 24.0005 50Z" fill="url(#paint5_linear_109_47768)"/>
<path d="M36.0005 26C36.0005 27.1046 36.8959 28 38.0005 28C39.1051 28 40.0005 27.1046 40.0005 26C40.0005 24.8954 39.1051 24 38.0005 24C36.8959 24 36.0005 24.8954 36.0005 26Z" fill="url(#paint6_linear_109_47768)"/>
<path d="M36.0005 14C36.0005 15.1046 36.8959 16 38.0005 16C39.1051 16 40.0005 15.1046 40.0005 14C40.0005 12.8954 39.1051 12 38.0005 12C36.8959 12 36.0005 12.8954 36.0005 14Z" fill="url(#paint7_linear_109_47768)"/>
<path d="M36.0005 38C36.0005 39.1046 36.8959 40 38.0005 40C39.1051 40 40.0005 39.1046 40.0005 38C40.0005 36.8954 39.1051 36 38.0005 36C36.8959 36 36.0005 36.8954 36.0005 38Z" fill="url(#paint8_linear_109_47768)"/>
<path d="M36.0005 50C36.0005 51.1046 36.8959 52 38.0005 52C39.1051 52 40.0005 51.1046 40.0005 50C40.0005 48.8954 39.1051 48 38.0005 48C36.8959 48 36.0005 48.8954 36.0005 50Z" fill="url(#paint9_linear_109_47768)"/>
<path d="M12.0005 2C12.0005 3.10457 12.8959 4 14.0005 4C15.1051 4 16.0005 3.10457 16.0005 2C16.0005 0.89543 15.1051 0 14.0005 0C12.8959 0 12.0005 0.89543 12.0005 2Z" fill="url(#paint10_linear_109_47768)"/>
<path d="M12.0005 26C12.0005 27.1046 12.8959 28 14.0005 28C15.1051 28 16.0005 27.1046 16.0005 26C16.0005 24.8954 15.1051 24 14.0005 24C12.8959 24 12.0005 24.8954 12.0005 26Z" fill="url(#paint11_linear_109_47768)"/>
<path d="M12.0005 14C12.0005 15.1046 12.8959 16 14.0005 16C15.1051 16 16.0005 15.1046 16.0005 14C16.0005 12.8954 15.1051 12 14.0005 12C12.8959 12 12.0005 12.8954 12.0005 14Z" fill="url(#paint12_linear_109_47768)"/>
<path d="M12.0005 38C12.0005 39.1046 12.8959 40 14.0005 40C15.1051 40 16.0005 39.1046 16.0005 38C16.0005 36.8954 15.1051 36 14.0005 36C12.8959 36 12.0005 36.8954 12.0005 38Z" fill="url(#paint13_linear_109_47768)"/>
<path d="M12.0005 50C12.0005 51.1046 12.8959 52 14.0005 52C15.1051 52 16.0005 51.1046 16.0005 50C16.0005 48.8954 15.1051 48 14.0005 48C12.8959 48 12.0005 48.8954 12.0005 50Z" fill="url(#paint14_linear_109_47768)"/>
<path d="M0.000488281 2C0.000488281 3.10457 0.89592 4 2.00049 4C3.10506 4 4.00049 3.10457 4.00049 2C4.00049 0.89543 3.10506 0 2.00049 0C0.89592 0 0.000488281 0.89543 0.000488281 2Z" fill="url(#paint15_linear_109_47768)"/>
<path d="M0.000488281 26C0.000488281 27.1046 0.89592 28 2.00049 28C3.10506 28 4.00049 27.1046 4.00049 26C4.00049 24.8954 3.10506 24 2.00049 24C0.89592 24 0.000488281 24.8954 0.000488281 26Z" fill="url(#paint16_linear_109_47768)"/>
<path d="M0.000488281 14C0.000488281 15.1046 0.89592 16 2.00049 16C3.10506 16 4.00049 15.1046 4.00049 14C4.00049 12.8954 3.10506 12 2.00049 12C0.89592 12 0.000488281 12.8954 0.000488281 14Z" fill="url(#paint17_linear_109_47768)"/>
<path d="M0.000488281 38C0.000488281 39.1046 0.89592 40 2.00049 40C3.10506 40 4.00049 39.1046 4.00049 38C4.00049 36.8954 3.10506 36 2.00049 36C0.89592 36 0.000488281 36.8954 0.000488281 38Z" fill="url(#paint18_linear_109_47768)"/>
<path d="M0.000488281 50C0.000488281 51.1046 0.89592 52 2.00049 52C3.10506 52 4.00049 51.1046 4.00049 50C4.00049 48.8954 3.10506 48 2.00049 48C0.89592 48 0.000488281 48.8954 0.000488281 50Z" fill="url(#paint19_linear_109_47768)"/>
<defs>
<linearGradient id="paint0_linear_109_47768" x1="26.0005" y1="0" x2="26.0005" y2="52" gradientUnits="userSpaceOnUse">
<stop stop-color="#FF9A47"/>
<stop offset="1" stop-color="#FF7300"/>
</linearGradient>
<linearGradient id="paint1_linear_109_47768" x1="26.0005" y1="0" x2="26.0005" y2="52" gradientUnits="userSpaceOnUse">
<stop stop-color="#FF9A47"/>
<stop offset="1" stop-color="#FF7300"/>
</linearGradient>
<linearGradient id="paint2_linear_109_47768" x1="26.0005" y1="0" x2="26.0005" y2="52" gradientUnits="userSpaceOnUse">
<stop stop-color="#FF9A47"/>
<stop offset="1" stop-color="#FF7300"/>
</linearGradient>
<linearGradient id="paint3_linear_109_47768" x1="26.0005" y1="0" x2="26.0005" y2="52" gradientUnits="userSpaceOnUse">
<stop stop-color="#FF9A47"/>
<stop offset="1" stop-color="#FF7300"/>
</linearGradient>
<linearGradient id="paint4_linear_109_47768" x1="26.0005" y1="0" x2="26.0005" y2="52" gradientUnits="userSpaceOnUse">
<stop stop-color="#FF9A47"/>
<stop offset="1" stop-color="#FF7300"/>
</linearGradient>
<linearGradient id="paint5_linear_109_47768" x1="26.0005" y1="0" x2="26.0005" y2="52" gradientUnits="userSpaceOnUse">
<stop stop-color="#FF9A47"/>
<stop offset="1" stop-color="#FF7300"/>
</linearGradient>
<linearGradient id="paint6_linear_109_47768" x1="26.0005" y1="0" x2="26.0005" y2="52" gradientUnits="userSpaceOnUse">
<stop stop-color="#FF9A47"/>
<stop offset="1" stop-color="#FF7300"/>
</linearGradient>
<linearGradient id="paint7_linear_109_47768" x1="26.0005" y1="0" x2="26.0005" y2="52" gradientUnits="userSpaceOnUse">
<stop stop-color="#FF9A47"/>
<stop offset="1" stop-color="#FF7300"/>
</linearGradient>
<linearGradient id="paint8_linear_109_47768" x1="26.0005" y1="0" x2="26.0005" y2="52" gradientUnits="userSpaceOnUse">
<stop stop-color="#FF9A47"/>
<stop offset="1" stop-color="#FF7300"/>
</linearGradient>
<linearGradient id="paint9_linear_109_47768" x1="26.0005" y1="0" x2="26.0005" y2="52" gradientUnits="userSpaceOnUse">
<stop stop-color="#FF9A47"/>
<stop offset="1" stop-color="#FF7300"/>
</linearGradient>
<linearGradient id="paint10_linear_109_47768" x1="26.0005" y1="0" x2="26.0005" y2="52" gradientUnits="userSpaceOnUse">
<stop stop-color="#FF9A47"/>
<stop offset="1" stop-color="#FF7300"/>
</linearGradient>
<linearGradient id="paint11_linear_109_47768" x1="26.0005" y1="0" x2="26.0005" y2="52" gradientUnits="userSpaceOnUse">
<stop stop-color="#FF9A47"/>
<stop offset="1" stop-color="#FF7300"/>
</linearGradient>
<linearGradient id="paint12_linear_109_47768" x1="26.0005" y1="0" x2="26.0005" y2="52" gradientUnits="userSpaceOnUse">
<stop stop-color="#FF9A47"/>
<stop offset="1" stop-color="#FF7300"/>
</linearGradient>
<linearGradient id="paint13_linear_109_47768" x1="26.0005" y1="0" x2="26.0005" y2="52" gradientUnits="userSpaceOnUse">
<stop stop-color="#FF9A47"/>
<stop offset="1" stop-color="#FF7300"/>
</linearGradient>
<linearGradient id="paint14_linear_109_47768" x1="26.0005" y1="0" x2="26.0005" y2="52" gradientUnits="userSpaceOnUse">
<stop stop-color="#FF9A47"/>
<stop offset="1" stop-color="#FF7300"/>
</linearGradient>
<linearGradient id="paint15_linear_109_47768" x1="26.0005" y1="0" x2="26.0005" y2="52" gradientUnits="userSpaceOnUse">
<stop stop-color="#FF9A47"/>
<stop offset="1" stop-color="#FF7300"/>
</linearGradient>
<linearGradient id="paint16_linear_109_47768" x1="26.0005" y1="0" x2="26.0005" y2="52" gradientUnits="userSpaceOnUse">
<stop stop-color="#FF9A47"/>
<stop offset="1" stop-color="#FF7300"/>
</linearGradient>
<linearGradient id="paint17_linear_109_47768" x1="26.0005" y1="0" x2="26.0005" y2="52" gradientUnits="userSpaceOnUse">
<stop stop-color="#FF9A47"/>
<stop offset="1" stop-color="#FF7300"/>
</linearGradient>
<linearGradient id="paint18_linear_109_47768" x1="26.0005" y1="0" x2="26.0005" y2="52" gradientUnits="userSpaceOnUse">
<stop stop-color="#FF9A47"/>
<stop offset="1" stop-color="#FF7300"/>
</linearGradient>
<linearGradient id="paint19_linear_109_47768" x1="26.0005" y1="0" x2="26.0005" y2="52" gradientUnits="userSpaceOnUse">
<stop stop-color="#FF9A47"/>
<stop offset="1" stop-color="#FF7300"/>
</linearGradient>
</defs>
</svg>
